<svg id="圖層_1" data-name="圖層 1" xmlns="http://www.w3.org/2000/svg" viewBox="0 0 650 669.43"><defs><style>.cls-1{fill:#f0a824;}.cls-2{fill:#f3d648;}.cls-3{fill:#0e0d1b;opacity:0.21;}.cls-4{fill:#52bac9;}.cls-5{fill:#fff;opacity:0.34;}.cls-6{fill:#36a8ae;}</style></defs><title>earring</title><path class="cls-1" d="M154.84,131.74a67.77,67.77,0,0,0-22.49-3.84h-1a68.37,68.37,0,0,0-22.5,4.22,67.19,67.19,0,0,0,22.5,130.12h1a67.19,67.19,0,0,0,22.49-130.5ZM132.35,245.66a4.22,4.22,0,0,1-1-.08,50.5,50.5,0,0,1-14-98.72,47.1,47.1,0,0,1,14-2.23,4.81,4.81,0,0,1,1-.07,48.78,48.78,0,0,1,13.89,2,50.53,50.53,0,0,1-13.89,99.11Z"/><path class="cls-2" d="M174,68.4c0,21.73-9.21,44.83-19.11,63.34-2.92,5.37-5.84,10.36-8.6,14.81a247.16,247.16,0,0,1-14.51,21,4.52,4.52,0,0,1-.38-.46c-1.46-1.85-7.14-9.37-14-20.27-2.69-4.37-5.61-9.37-8.53-14.74-10-18.58-19.34-41.84-19.34-63.72C89.51,22.34,108.17.23,131.35,0h.38C155,0,174,22.11,174,68.4Z"/><path class="cls-3" d="M131.35,0V167.13c-1.46-1.85-7.14-9.37-14-20.27a50.5,50.5,0,0,0,14,98.72v16.66a67.19,67.19,0,0,1-22.5-130.12c-10-18.58-19.34-41.84-19.34-63.72C89.51,22.34,108.17.23,131.35,0Z"/><polygon class="cls-4" points="266.15 581.28 131.68 245.31 0 581.28 0.39 582.28 45.79 669.43 220.47 669.43 265.77 582.28 266.15 581.28"/><polygon class="cls-5" points="266.01 581.53 0 581.28 45.79 669.43 220.47 669.43 266.01 581.53"/><polygon class="cls-5" points="45.79 669.43 220.47 669.43 131.68 245.31 45.79 669.43"/><polygon class="cls-6" points="0 581.28 63.3 581.53 131.68 245.31 0 581.28"/><path class="cls-1" d="M538.68,131.74a67.73,67.73,0,0,0-22.49-3.84h-1a68.26,68.26,0,0,0-22.49,4.22,67.19,67.19,0,0,0,22.49,130.12h1a67.19,67.19,0,0,0,22.49-130.5ZM516.19,245.66a4.22,4.22,0,0,1-1-.08,50.5,50.5,0,0,1-14-98.72,47.1,47.1,0,0,1,14-2.23,4.81,4.81,0,0,1,1-.07,48.78,48.78,0,0,1,13.89,2,50.53,50.53,0,0,1-13.89,99.11Z"/><path class="cls-2" d="M557.79,68.4c0,21.73-9.21,44.83-19.11,63.34-2.92,5.37-5.83,10.36-8.6,14.81a250,250,0,0,1-14.51,21,4.52,4.52,0,0,1-.38-.46c-1.46-1.85-7.14-9.37-14-20.27-2.69-4.37-5.6-9.37-8.52-14.74-10-18.58-19.35-41.84-19.35-63.72C473.35,22.34,492,.23,515.19,0h.38C538.84,0,557.79,22.11,557.79,68.4Z"/><path class="cls-3" d="M515.19,0V167.13c-1.46-1.85-7.14-9.37-14-20.27a50.5,50.5,0,0,0,14,98.72v16.66A67.19,67.19,0,0,1,492.7,132.12c-10-18.58-19.35-41.84-19.35-63.72C473.35,22.34,492,.23,515.19,0Z"/><polygon class="cls-4" points="650 581.28 515.53 245.31 383.84 581.28 384.23 582.28 429.63 669.43 604.31 669.43 649.61 582.28 650 581.28"/><polygon class="cls-5" points="649.85 581.53 383.84 581.28 429.63 669.43 604.31 669.43 649.85 581.53"/><polygon class="cls-5" points="429.63 669.43 604.31 669.43 515.53 245.31 429.63 669.43"/><polygon class="cls-6" points="383.84 581.28 447.13 581.53 515.53 245.31 383.84 581.28"/></svg>