<?xml version="1.0" encoding="utf-8"?>
<!-- Generator: Adobe Illustrator 23.0.1, SVG Export Plug-In . SVG Version: 6.00 Build 0)  -->
<svg version="1.1" id="圖層_1" xmlns="http://www.w3.org/2000/svg" xmlns:xlink="http://www.w3.org/1999/xlink" x="0px" y="0px"
	 viewBox="0 0 471 474" style="enable-background:new 0 0 471 474;" xml:space="preserve">
<style type="text/css">
	.st0{opacity:0.21;fill:#0D0C1A;}
	.st1{fill:url(#SVGID_1_);}
	.st2{fill:url(#SVGID_2_);}
	.st3{fill:url(#SVGID_3_);}
	.st4{fill:url(#SVGID_4_);}
	.st5{fill:url(#SVGID_5_);}
	.st6{fill:url(#SVGID_6_);}
	.st7{fill:url(#SVGID_7_);}
	.st8{fill:url(#SVGID_8_);}
	.st9{fill:url(#SVGID_9_);}
	.st10{fill:url(#SVGID_10_);}
	.st11{fill:url(#SVGID_11_);}
	.st12{fill:url(#SVGID_12_);}
	.st13{fill:url(#SVGID_13_);}
	.st14{fill:url(#SVGID_14_);}
	.st15{fill:url(#SVGID_15_);}
	.st16{fill:url(#SVGID_16_);}
	.st17{fill:url(#SVGID_17_);}
	.st18{fill:url(#SVGID_18_);}
	.st19{fill:url(#SVGID_19_);}
	.st20{fill:url(#SVGID_20_);}
	.st21{fill:url(#SVGID_21_);}
	.st22{fill:url(#SVGID_22_);}
	.st23{fill:url(#SVGID_23_);}
	.st24{fill:url(#SVGID_24_);}
	.st25{fill:url(#SVGID_25_);}
	.st26{fill:url(#SVGID_26_);}
	.st27{fill:url(#SVGID_27_);}
	.st28{fill:url(#SVGID_28_);}
	.st29{fill:url(#SVGID_29_);}
	.st30{fill:url(#SVGID_30_);}
	.st31{fill:url(#SVGID_31_);}
	.st32{fill:url(#SVGID_32_);}
	.st33{fill:url(#SVGID_33_);}
	.st34{fill:url(#SVGID_34_);}
	.st35{fill:url(#SVGID_35_);}
	.st36{fill:url(#SVGID_36_);}
	.st37{fill:url(#SVGID_37_);}
	.st38{fill:url(#SVGID_38_);}
	.st39{fill:url(#SVGID_39_);}
	.st40{fill:url(#SVGID_40_);}
	.st41{fill:url(#SVGID_41_);}
	.st42{fill:url(#SVGID_42_);}
	.st43{fill:url(#SVGID_43_);}
	.st44{fill:url(#SVGID_44_);}
	.st45{fill:url(#SVGID_45_);}
	.st46{fill:url(#SVGID_46_);}
	.st47{fill:url(#SVGID_47_);}
	.st48{fill:url(#SVGID_48_);}
	.st49{fill:url(#SVGID_49_);}
	.st50{fill:url(#SVGID_50_);}
	.st51{fill:url(#SVGID_51_);}
	.st52{fill:url(#SVGID_52_);}
	.st53{fill:url(#SVGID_53_);}
	.st54{fill:url(#SVGID_54_);}
	.st55{fill:url(#SVGID_55_);}
	.st56{fill:url(#SVGID_56_);}
	.st57{fill:url(#SVGID_57_);}
	.st58{fill:url(#SVGID_58_);}
	.st59{fill:url(#SVGID_59_);}
	.st60{fill:url(#SVGID_60_);}
	.st61{fill:url(#SVGID_61_);}
	.st62{fill:url(#SVGID_62_);}
	.st63{fill:url(#SVGID_63_);}
	.st64{fill:url(#SVGID_64_);}
	.st65{fill:url(#SVGID_65_);}
	.st66{fill:url(#SVGID_66_);}
	.st67{fill:url(#SVGID_67_);}
	.st68{fill:#175150;}
	.st69{opacity:0.22;fill:#175150;}
	.st70{fill:#1A5A59;}
	.st71{fill:#EAB36C;}
	.st72{fill:#F8D68B;}
	.st73{opacity:0.29;fill:#1A5A59;}
</style>
<path class="st0" d="M331.6,57.1v10.1c-0.1-0.1-0.4-0.6-0.8-1.2c-1.2,0.4-2.1,1.5-2.1,2.9c0,1.7,1.3,3,3,3v1c-2.2,0-4-1.8-4-4.1
	c0-1.7,1.1-3.2,2.6-3.8c-0.6-1.1-1.2-2.5-1.2-3.8C329.1,58.5,330.2,57.1,331.6,57.1z"/>
<linearGradient id="SVGID_1_" gradientUnits="userSpaceOnUse" x1="207.4402" y1="2298.3662" x2="8.3018" y2="2249.4072" gradientTransform="matrix(1 0 0 1 0 -1908.8511)">
	<stop  offset="0" style="stop-color:#E56452"/>
	<stop  offset="0.2401" style="stop-color:#E56452"/>
	<stop  offset="0.4159" style="stop-color:#E56452"/>
	<stop  offset="0.5711" style="stop-color:#E56452"/>
	<stop  offset="0.7146" style="stop-color:#9E633B"/>
	<stop  offset="0.8498" style="stop-color:#9E633B"/>
	<stop  offset="0.9774" style="stop-color:#755133"/>
	<stop  offset="1" style="stop-color:#755133"/>
</linearGradient>
<path class="st1" d="M154.9,330.1c-2.3,29.4-16.1,47.9-36.9,48.4c-42.7,0.9-93.3-47.4-105-65c-9.2-14-17.6,3.7-10.2,20.9
	c7.4,17.2,42.4,64.4,98.5,76.2c40.8,8.6,76.6-3.9,94.7-9.6C214.1,395.2,155.5,322.2,154.9,330.1z"/>
<linearGradient id="SVGID_2_" gradientUnits="userSpaceOnUse" x1="356.1966" y1="2122.4082" x2="336.4186" y2="2154.9182" gradientTransform="matrix(1 0 0 1 0 -1908.8511)">
	<stop  offset="0" style="stop-color:#F8BF84"/>
	<stop  offset="1" style="stop-color:#E56452"/>
</linearGradient>
<path class="st2" d="M307.5,217.7c-6.1,25.8,9.2,31.7,31.5,40.5c10,3.9,30.7,14.9,33.3,5.8c2.6-9.2-12-21.9-28.5-33
	C322.7,216.7,310.8,203.7,307.5,217.7z"/>
<linearGradient id="SVGID_3_" gradientUnits="userSpaceOnUse" x1="401.7571" y1="2149.6387" x2="382.0491" y2="2182.0327" gradientTransform="matrix(1 0 0 1 0 -1908.8511)">
	<stop  offset="0" style="stop-color:#F8BF84"/>
	<stop  offset="1" style="stop-color:#E56452"/>
</linearGradient>
<path class="st3" d="M427.2,248.5c-10.2,3.2-53.6,19.4-60.2,19.1c-3.1-0.2-3.2-7.5-3.7-14.4c-0.5-6.6,7-4.9,19.9-7.4
	c11.9-2.3,35.3-5.9,44.2-5.8C432.3,240.1,433.2,246.6,427.2,248.5z"/>
<linearGradient id="SVGID_4_" gradientUnits="userSpaceOnUse" x1="433.5952" y1="2147.5022" x2="436.0451" y2="2135.9412" gradientTransform="matrix(1 0 0 1 0 -1908.8511)">
	<stop  offset="0" style="stop-color:#E56452"/>
	<stop  offset="0.3805" style="stop-color:#9E633B"/>
	<stop  offset="1" style="stop-color:#755133"/>
</linearGradient>
<path class="st4" d="M425.4,239.8c0.8-3.2,5.3-7,7.2-8.6c1.4-1.3,9.5-6.2,11.2-5.5c2.1,0.8-5.5,7.3-7.8,9.3c-2.8,2.4-5.2,5.9-6,6.5
	C428.7,242.4,424.9,242.3,425.4,239.8z"/>
<linearGradient id="SVGID_5_" gradientUnits="userSpaceOnUse" x1="452.0618" y1="2138.3613" x2="456.1198" y2="2144.2563" gradientTransform="matrix(1 0 0 1 0 -1908.8511)">
	<stop  offset="0" style="stop-color:#E56452"/>
	<stop  offset="0.3805" style="stop-color:#9E633B"/>
	<stop  offset="1" style="stop-color:#755133"/>
</linearGradient>
<path class="st5" d="M446.7,237.3c2.1-0.3,7.4,0.5,10.5-0.7c1.6-0.6,6.6-5.4,6.6-6.9c0-1.7-5.6,1.4-8.1,2c-3.3,0.8-9,0.9-9.7,1.4
	C444.6,233.9,444.4,237.6,446.7,237.3z"/>
<linearGradient id="SVGID_6_" gradientUnits="userSpaceOnUse" x1="455.5331" y1="2141.675" x2="458.5961" y2="2147.3411" gradientTransform="matrix(1 0 0 1 0 -1908.8511)">
	<stop  offset="0" style="stop-color:#E56452"/>
	<stop  offset="0.3805" style="stop-color:#9E633B"/>
	<stop  offset="1" style="stop-color:#755133"/>
</linearGradient>
<path class="st6" d="M445.8,240.6c2.5,0.6,5.8,2,10,1.5c3.1-0.4,14.3-5.9,15.1-8.1c0.9-2.6-12.6,1.8-16.2,1.9
	c-3.9,0.1-8.5-0.8-9.6-0.5C443.2,235.9,443,239.9,445.8,240.6z"/>
<linearGradient id="SVGID_7_" gradientUnits="userSpaceOnUse" x1="456.4159" y1="2145.5691" x2="458.5599" y2="2149.7041" gradientTransform="matrix(1 0 0 1 0 -1908.8511)">
	<stop  offset="0" style="stop-color:#E56452"/>
	<stop  offset="0.3805" style="stop-color:#9E633B"/>
	<stop  offset="1" style="stop-color:#755133"/>
</linearGradient>
<path class="st7" d="M446.5,243c2.6,0.8,7.4,1.9,10.2,1.3c2.6-0.5,13.1-4.7,13.8-6.9c0.8-2.6-10.7,1.2-13.3,1.7
	c-3.9,0.8-8.4-0.4-10.7-0.7C444.7,238.2,443.9,242.2,446.5,243z"/>
<linearGradient id="SVGID_8_" gradientUnits="userSpaceOnUse" x1="455.2386" y1="2149.1018" x2="458.5226" y2="2154.626" gradientTransform="matrix(1 0 0 1 0 -1908.8511)">
	<stop  offset="0" style="stop-color:#E56452"/>
	<stop  offset="0.3805" style="stop-color:#9E633B"/>
	<stop  offset="1" style="stop-color:#755133"/>
</linearGradient>
<path class="st8" d="M447.7,247c2.1,0.6,6.2,0.1,9.7,0.1c1.8,0,10.4-2.8,11.1-4.6c0.8-2-9.4-0.3-12.3,0.1c-3.5,0.4-7-0.1-8,0.1
	C446.7,243,445.3,246.3,447.7,247z"/>
<linearGradient id="SVGID_9_" gradientUnits="userSpaceOnUse" x1="418.5926" y1="2157.2434" x2="451.7746" y2="2146.9456" gradientTransform="matrix(1 0 0 1 0 -1908.8511)">
	<stop  offset="0.1489" style="stop-color:#F8BF84"/>
	<stop  offset="0.2819" style="stop-color:#F8BF84"/>
	<stop  offset="0.4692" style="stop-color:#F8BF84"/>
	<stop  offset="0.6886" style="stop-color:#F2997A"/>
	<stop  offset="0.9306" style="stop-color:#E56452"/>
	<stop  offset="1" style="stop-color:#E56452"/>
</linearGradient>
<path class="st9" d="M424.7,240.3c6.4-6.6,17-6.6,22.7-7.4c2.6-0.4,4.7,13.9,2.4,14.4c-5.2,1.1-18.1,0.4-22.8,1
	C424.7,248.6,423.1,242,424.7,240.3z"/>
<linearGradient id="SVGID_10_" gradientUnits="userSpaceOnUse" x1="304.5227" y1="2343.3042" x2="281.0187" y2="2286.5313" gradientTransform="matrix(1 0 0 1 0 -1908.8511)">
	<stop  offset="0" style="stop-color:#F8BF84"/>
	<stop  offset="1" style="stop-color:#E56452"/>
</linearGradient>
<path class="st10" d="M325.2,361.1c-4.1,6.3-48.1,82.5-41.8,86.7c5.6,3.8-19.1,6-24.4,3c-5.6-3.2,28.2-38.8,0.4-52.2
	C249.8,394,334.5,346.9,325.2,361.1z"/>
<linearGradient id="SVGID_11_" gradientUnits="userSpaceOnUse" x1="318.3544" y1="2347.1245" x2="292.0754" y2="2283.6504" gradientTransform="matrix(1 0 0 1 0 -1908.8511)">
	<stop  offset="0" style="stop-color:#F8BF84"/>
	<stop  offset="1" style="stop-color:#E56452"/>
</linearGradient>
<path class="st11" d="M337.7,329.5c0.5,20.3-20.6,48.6-54.8,64.5c-22.1,10.3-41.7,3.7-55-16.4c-13.3-20-2.9-38.6,26.2-57.9
	C283.2,300.5,336.9,297.7,337.7,329.5z"/>
<linearGradient id="SVGID_12_" gradientUnits="userSpaceOnUse" x1="301.5688" y1="2347.6038" x2="283.3368" y2="2303.5667" gradientTransform="matrix(1 0 0 1 0 -1908.8511)">
	<stop  offset="0" style="stop-color:#F8BF84"/>
	<stop  offset="1" style="stop-color:#E56452"/>
</linearGradient>
<path class="st12" d="M336.4,451.7c-11.3,0.3-71.6,0-76.5,0s23.7-18.9,27.2-19.7c1.8-0.4,22.1,4.6,46.4,1.9
	C357.9,431,350.3,451.4,336.4,451.7z"/>
<linearGradient id="SVGID_13_" gradientUnits="userSpaceOnUse" x1="362.3259" y1="2330.2554" x2="352.9339" y2="2348.3293" gradientTransform="matrix(1 0 0 1 0 -1908.8511)">
	<stop  offset="0" style="stop-color:#F2997A"/>
	<stop  offset="1" style="stop-color:#755133"/>
</linearGradient>
<path class="st13" d="M367.5,452.3H325c-4.3,0-9.8-6.4-9.7-9.3c0.1-5.8,22.3-10.6,31.8-10.9c14.3-0.4,35.4,12,35.4,19.9
	C382.5,453.1,372.2,452.3,367.5,452.3z"/>
<linearGradient id="SVGID_14_" gradientUnits="userSpaceOnUse" x1="305.5179" y1="2360.4604" x2="343.1959" y2="2351.8535" gradientTransform="matrix(1 0 0 1 0 -1908.8511)">
	<stop  offset="0" style="stop-color:#F2997A"/>
	<stop  offset="0.2442" style="stop-color:#E56452"/>
	<stop  offset="0.5895" style="stop-color:#9E633B"/>
	<stop  offset="0.8524" style="stop-color:#755133"/>
	<stop  offset="1" style="stop-color:#755133"/>
</linearGradient>
<path class="st14" d="M348.3,452.3H316c-3.2,0-12.8,0.9-12.8-0.2c0-9.3,20.2-16.5,29.1-17.1c9.1-0.6,23,6.8,23.4,13.8
	C355.9,451,351.9,452.3,348.3,452.3z"/>
<linearGradient id="SVGID_15_" gradientUnits="userSpaceOnUse" x1="344.966" y1="2238.9434" x2="330.128" y2="2247.9114" gradientTransform="matrix(1 0 0 1 0 -1908.8511)">
	<stop  offset="0" style="stop-color:#9B7656"/>
	<stop  offset="1" style="stop-color:#4E3819"/>
</linearGradient>
<path class="st15" d="M335.9,325c4.2,1.9,5,4.9,5.5,6.5c0.9,3.3-2.3,12.6-9.4,17c-7.2,4.4-14.4,3.7-12.1,0.9
	C322.2,346.6,335.9,325,335.9,325z"/>
<linearGradient id="SVGID_16_" gradientUnits="userSpaceOnUse" x1="148.4365" y1="2008.4442" x2="253.1895" y2="2215.8962" gradientTransform="matrix(1 0 0 1 0 -1908.8511)">
	<stop  offset="0" style="stop-color:#FCE0BF"/>
	<stop  offset="2.790000e-02" style="stop-color:#F8BF84"/>
	<stop  offset="9.640000e-02" style="stop-color:#F8BF84"/>
	<stop  offset="0.1729" style="stop-color:#F2997A"/>
	<stop  offset="0.2581" style="stop-color:#F2997A"/>
	<stop  offset="0.3557" style="stop-color:#E56452"/>
	<stop  offset="0.4731" style="stop-color:#E56452"/>
	<stop  offset="0.631" style="stop-color:#E56452"/>
	<stop  offset="1" style="stop-color:#E56452"/>
</linearGradient>
<path class="st16" d="M272.2,152.1c1.8,11-3.4,53.5-8.9,70.7c-9.2,28.4-70.9,37-95.1,74.2c-28.9,44.4-15.3,101.7,35.3,106.3
	c50.6,4.6,123.6-32.7,135.6-84.5c9.8-42.3-6.5-82.2-14.4-98.9s-5.8-20.8-4.3-30.6C321.9,179.5,270.7,142.7,272.2,152.1z"/>
<linearGradient id="SVGID_17_" gradientUnits="userSpaceOnUse" x1="227.4736" y1="2179.1538" x2="305.2526" y2="2244.8257" gradientTransform="matrix(1 0 0 1 0 -1908.8511)">
	<stop  offset="0.1168" style="stop-color:#F2997A"/>
	<stop  offset="0.1409" style="stop-color:#F2997A"/>
	<stop  offset="0.4007" style="stop-color:#F8BF84"/>
	<stop  offset="0.6392" style="stop-color:#F8BF84"/>
	<stop  offset="0.8467" style="stop-color:#FCE0BF"/>
	<stop  offset="1" style="stop-color:#FCE0BF"/>
</linearGradient>
<path class="st17" d="M339.1,318.9c-12,51.8-85,89.2-135.6,84.5c-8.6-0.8-16.1-3.1-22.5-6.6c74.4-1.7,131.5-85.1,132.5-131.8
	c0.5-22.3-16.7-52.5-13.5-81.3l5.8-13c6.1,5.5,15,15.5,14.5,18.6c-1.5,9.8-3.6,13.9,4.3,30.6C332.6,236.7,348.8,276.6,339.1,318.9z"
	/>
<linearGradient id="SVGID_18_" gradientUnits="userSpaceOnUse" x1="382.8525" y1="2318.1807" x2="255.3025" y2="2269.3416" gradientTransform="matrix(1 0 0 1 0 -1908.8511)">
	<stop  offset="0" style="stop-color:#F8BF84"/>
	<stop  offset="1" style="stop-color:#E56452"/>
</linearGradient>
<path class="st18" d="M338.7,326.7c6.7,3.5,7.2,11.3,5.5,15.8c-2.5,6.7-13.6,9.7-19.2,15.8c-21.8,24.4-88.1,70.3-143.8,38.5
	c9.8-3.7,91.5-65.5,97-70.1c18.6,24.1,58.9,24.5,62.4,7.2C341.1,331.8,339.6,327.9,338.7,326.7z"/>
<linearGradient id="SVGID_19_" gradientUnits="userSpaceOnUse" x1="286.9019" y1="2161.7302" x2="225.8448" y2="2273.3352" gradientTransform="matrix(1 0 0 1 0 -1908.8511)">
	<stop  offset="0" style="stop-color:#FCE0BF"/>
	<stop  offset="8.330000e-02" style="stop-color:#F8BF84"/>
	<stop  offset="0.1952" style="stop-color:#F2997A"/>
	<stop  offset="0.3153" style="stop-color:#F2997A"/>
	<stop  offset="0.4445" style="stop-color:#F2997A"/>
	<stop  offset="0.5871" style="stop-color:#E56452"/>
	<stop  offset="0.7533" style="stop-color:#E56452"/>
	<stop  offset="1" style="stop-color:#E56452"/>
</linearGradient>
<path class="st19" d="M291.5,337.6c1.2,24.5-7.3,42.1-36.1,61.3c-28.9,19.2-68.6,8.1-85.8-11c-16.1-17.9,8.2-55.8,37.1-75
	C235.5,293.7,290,305.8,291.5,337.6z"/>
<linearGradient id="SVGID_20_" gradientUnits="userSpaceOnUse" x1="256.1428" y1="2348.5432" x2="240.1867" y2="2297.1853" gradientTransform="matrix(1 0 0 1 0 -1908.8511)">
	<stop  offset="0" style="stop-color:#F8BF84"/>
	<stop  offset="1" style="stop-color:#E56452"/>
</linearGradient>
<path class="st20" d="M288.9,356.2c-1.5,7.4-64.5,79.2-68.7,85.4c-5.3,7.8-16.1,4.4-21.4,1.4c-5.6-3.2,24-28.4-5.3-39.6
	C172.9,395.4,290.3,349.2,288.9,356.2z"/>
<linearGradient id="SVGID_21_" gradientUnits="userSpaceOnUse" x1="213.6879" y1="2328.4561" x2="238.7359" y2="2378.052" gradientTransform="matrix(1 0 0 1 0 -1908.8511)">
	<stop  offset="0" style="stop-color:#F8BF84"/>
	<stop  offset="1" style="stop-color:#E56452"/>
</linearGradient>
<path class="st21" d="M216.5,470c-4.6-6-8.8-12.1-18.1-27.4c-2.5-4.2,18.7-2.7,21.8-0.9c4.2,2.3,22.3,8.4,39.9,17.6
	C268.9,463.9,221.7,476.7,216.5,470z"/>
<linearGradient id="SVGID_22_" gradientUnits="userSpaceOnUse" x1="268.7289" y1="2358.5974" x2="257.1979" y2="2374.4185" gradientTransform="matrix(1 0 0 1 0 -1908.8511)">
	<stop  offset="0" style="stop-color:#F2997A"/>
	<stop  offset="0.2442" style="stop-color:#E56452"/>
	<stop  offset="0.5895" style="stop-color:#9E633B"/>
	<stop  offset="0.8524" style="stop-color:#755133"/>
	<stop  offset="1" style="stop-color:#755133"/>
</linearGradient>
<path class="st22" d="M257.3,448.6c19-0.5,13.9,21.8,13.9,23.2c0,1.4-32.9,0.3-32.9-1.5C238.3,468.4,246.1,448.9,257.3,448.6z"/>
<linearGradient id="SVGID_23_" gradientUnits="userSpaceOnUse" x1="260.2259" y1="2362.1025" x2="239.3949" y2="2374.8984" gradientTransform="matrix(1 0 0 1 0 -1908.8511)">
	<stop  offset="0" style="stop-color:#F2997A"/>
	<stop  offset="0.2442" style="stop-color:#E56452"/>
	<stop  offset="0.5895" style="stop-color:#9E633B"/>
	<stop  offset="0.8524" style="stop-color:#755133"/>
	<stop  offset="1" style="stop-color:#755133"/>
</linearGradient>
<path class="st23" d="M242.5,449.1c19-0.5,13.9,21.8,13.9,23.2c0,1.4-33.4,0.7-33.4-1.2C222.9,469.2,231.3,449.3,242.5,449.1z"/>
<linearGradient id="SVGID_24_" gradientUnits="userSpaceOnUse" x1="247.6757" y1="2354.9211" x2="216.8517" y2="2378.4932" gradientTransform="matrix(1 0 0 1 0 -1908.8511)">
	<stop  offset="0" style="stop-color:#F2997A"/>
	<stop  offset="0.2442" style="stop-color:#E56452"/>
	<stop  offset="0.5895" style="stop-color:#9E633B"/>
	<stop  offset="0.8524" style="stop-color:#755133"/>
	<stop  offset="1" style="stop-color:#755133"/>
</linearGradient>
<path class="st24" d="M226,449.2c19-0.5,14.4,22,14.4,23.4s-21.9-0.7-23.4-1.7c-2.7-1.7-8.1-9-9.3-13.4
	C206.6,453.6,218.6,449.4,226,449.2z"/>
<linearGradient id="SVGID_25_" gradientUnits="userSpaceOnUse" x1="226.1906" y1="2209.5862" x2="294.8146" y2="2136.073" gradientTransform="matrix(1 0 0 1 0 -1908.8511)">
	<stop  offset="0" style="stop-color:#F8BF84"/>
	<stop  offset="1" style="stop-color:#E56452"/>
</linearGradient>
<path class="st25" d="M294.7,211.9c16.9,23.5,0.4,39.4-14.4,56.8c-10.8,12.7-25.8,20.5-31.4,12.8s5.6-23.4,16.1-38.5
	C278.4,223.7,286.3,200.3,294.7,211.9z"/>
<linearGradient id="SVGID_26_" gradientUnits="userSpaceOnUse" x1="291.5462" y1="2162.2695" x2="263.8652" y2="2241.2466" gradientTransform="matrix(1 0 0 1 0 -1908.8511)">
	<stop  offset="0" style="stop-color:#F8BF84"/>
	<stop  offset="1" style="stop-color:#E56452"/>
</linearGradient>
<path class="st26" d="M296.7,321.6c-9.4-5.2-45.5-34.7-48.3-40.7c-2.9-6,1.6-9.3,8.4-8.1c6.8,1.2,11.9,0.1,18.5,10.3
	c6.6,10.1,26.9,29.7,28.7,34.2S299.8,323.3,296.7,321.6z"/>
<linearGradient id="SVGID_27_" gradientUnits="userSpaceOnUse" x1="306.9312" y1="2236.5806" x2="321.4142" y2="2235.3596" gradientTransform="matrix(1 0 0 1 0 -1908.8511)">
	<stop  offset="0" style="stop-color:#E56452"/>
	<stop  offset="0.3805" style="stop-color:#9E633B"/>
	<stop  offset="1" style="stop-color:#755133"/>
</linearGradient>
<path class="st27" d="M309.8,318.5c2,0.8,5.1,3.7,8,6c1.5,1.1,6.9,8.8,6.4,10.6c-0.6,2.1-7.6-4.8-9.7-6.8c-2.6-2.6-6.2-4.6-6.9-5.3
	C306.6,321.6,307.5,317.6,309.8,318.5z"/>
<linearGradient id="SVGID_28_" gradientUnits="userSpaceOnUse" x1="330.9174" y1="2237.2908" x2="317.6574" y2="2247.0488" gradientTransform="matrix(1 0 0 1 0 -1908.8511)">
	<stop  offset="0" style="stop-color:#E56452"/>
	<stop  offset="0.3805" style="stop-color:#9E633B"/>
	<stop  offset="1" style="stop-color:#755133"/>
</linearGradient>
<path class="st28" d="M316.4,327.6c1.4,1.7,3.2,5,4.7,8.3c0.8,1.7,1.4,11.8,0.1,13.1c-1.5,1.6-4.4-7.8-5.3-10.7
	c-1.1-3.5-3.3-7-3.5-8C312.1,328.9,314.8,325.7,316.4,327.6z"/>
<linearGradient id="SVGID_29_" gradientUnits="userSpaceOnUse" x1="316.5683" y1="2237.8472" x2="312.1483" y2="2248.6892" gradientTransform="matrix(1 0 0 1 0 -1908.8511)">
	<stop  offset="0" style="stop-color:#E56452"/>
	<stop  offset="0.3805" style="stop-color:#9E633B"/>
	<stop  offset="1" style="stop-color:#755133"/>
</linearGradient>
<path class="st29" d="M312,328.2c1.6,2.2,5.3,6.2,5.8,9c0.5,2.6-0.5,13.9-2.3,15.4c-2,1.7-2.7-10.4-3.2-13c-0.7-3.9-3.9-6.4-5-8.5
	C306.6,329.5,310.5,326.1,312,328.2z"/>
<linearGradient id="SVGID_30_" gradientUnits="userSpaceOnUse" x1="314.2972" y1="2241.437" x2="305.7072" y2="2251.1111" gradientTransform="matrix(1 0 0 1 0 -1908.8511)">
	<stop  offset="0" style="stop-color:#E56452"/>
	<stop  offset="0.3805" style="stop-color:#9E633B"/>
	<stop  offset="1" style="stop-color:#755133"/>
</linearGradient>
<path class="st30" d="M307.7,330.2c1.2,2.3,4.2,5.1,4.7,9.3c0.4,3.1-1.3,12-3.1,13.3c-2.2,1.5-2.2-8.2-2.9-11.7
	c-0.8-3.9-2.7-9.3-2.7-10.5C303.7,328.7,306.4,327.7,307.7,330.2z"/>
<linearGradient id="SVGID_31_" gradientUnits="userSpaceOnUse" x1="310.0561" y1="2242.3813" x2="300.7151" y2="2250.6384" gradientTransform="matrix(1 0 0 1 0 -1908.8511)">
	<stop  offset="0" style="stop-color:#E56452"/>
	<stop  offset="0.3805" style="stop-color:#9E633B"/>
	<stop  offset="1" style="stop-color:#755133"/>
</linearGradient>
<path class="st31" d="M305,332c0.2,2.1,2.1,7,1.8,10.4c-0.2,1.7-3.6,7.7-5,8c-1.6,0.4,0-5.8,0-8.4c0-3.4-1.1-8.9-0.9-9.8
	C301.2,330.8,304.7,329.7,305,332z"/>
<linearGradient id="SVGID_32_" gradientUnits="userSpaceOnUse" x1="323.9896" y1="2195.5588" x2="294.2486" y2="2250.4387" gradientTransform="matrix(1 0 0 1 0 -1908.8511)">
	<stop  offset="0" style="stop-color:#F8BF84"/>
	<stop  offset="1" style="stop-color:#E56452"/>
</linearGradient>
<path class="st32" d="M295.1,313.6c2.5-1.9,5.4-1.6,8.3-0.3c5.6,2.7,10.6,10.7,12.3,13.2c2.6,3.7-11.4,13.8-13.9,11.3
	C293.8,329.7,291.6,316.2,295.1,313.6z"/>
<linearGradient id="SVGID_33_" gradientUnits="userSpaceOnUse" x1="272.3087" y1="1884.8643" x2="331.5157" y2="1975.903" gradientTransform="matrix(1 0 0 1 0 -1908.8511)">
	<stop  offset="0" style="stop-color:#F8BF84"/>
	<stop  offset="0.1608" style="stop-color:#F8BF84"/>
	<stop  offset="0.3694" style="stop-color:#F8BF84"/>
	<stop  offset="0.6043" style="stop-color:#F2997A"/>
	<stop  offset="0.8566" style="stop-color:#F2997A"/>
	<stop  offset="1" style="stop-color:#E56452"/>
</linearGradient>
<path class="st33" d="M296.8,98.8c2.2-25.2-8.6-44.9-3.8-65.2C297.9,13.4,336.9,0,342.7,0s-3.7,29.4-4.1,43.5s-18,40.4-17.5,44.3
	C321.5,91.8,296.4,102.8,296.8,98.8z"/>
<linearGradient id="SVGID_34_" gradientUnits="userSpaceOnUse" x1="321.0862" y1="1970.6425" x2="320.3772" y2="2096.8101" gradientTransform="matrix(1 0 0 1 0 -1908.8511)">
	<stop  offset="0" style="stop-color:#F8BF84"/>
	<stop  offset="1" style="stop-color:#E56452"/>
</linearGradient>
<path class="st34" d="M371.6,155.3c-1.3-4.2-4.5-15.5-5.9-22.9c-1.3-5.5-3.4-6-4.1-11.3c-2.2-18.1-36.4-39-58.9-32.4
	c-21.8,6.4-33.1,23.6-33.1,45.4c0,19.3,9.6,36.9,26.5,40.7c12.3,7.9,25.6,8.6,33,7.8C342,181.4,372.9,159.8,371.6,155.3z"/>
<linearGradient id="SVGID_35_" gradientUnits="userSpaceOnUse" x1="353.9225" y1="2033.3491" x2="354.1915" y2="2050.3281" gradientTransform="matrix(1 0 0 1 0 -1908.8511)">
	<stop  offset="0" style="stop-color:#FDE6C6"/>
	<stop  offset="1" style="stop-color:#FFF6EB"/>
</linearGradient>
<path class="st35" d="M354.1,149.2c6.7,0,12.1-6,12.1-13.5c0-7.4-5.4-13.5-12.1-13.5s-12.1,6-12.1,13.5
	C342,143.1,347.4,149.2,354.1,149.2z"/>
<linearGradient id="SVGID_36_" gradientUnits="userSpaceOnUse" x1="352.5712" y1="2035.5044" x2="353.3263" y2="2044.4176" gradientTransform="matrix(1 0 0 1 0 -1908.8511)">
	<stop  offset="0" style="stop-color:#9DCD82"/>
	<stop  offset="1" style="stop-color:#6F5530"/>
</linearGradient>
<path class="st36" d="M353.5,147.6c5.4,0,9.8-4.4,9.8-9.9s-4.4-9.9-9.8-9.9s-9.8,4.4-9.8,9.9C343.8,143.1,348.1,147.6,353.5,147.6z"
	/>
<linearGradient id="SVGID_37_" gradientUnits="userSpaceOnUse" x1="352.6606" y1="2036.5504" x2="353.3446" y2="2044.6144" gradientTransform="matrix(1 0 0 1 0 -1908.8511)">
	<stop  offset="0" style="stop-color:#9DCD82"/>
	<stop  offset="1" style="stop-color:#9B7656"/>
</linearGradient>
<path class="st37" d="M353.5,146.6c4.9,0,8.8-4,8.8-9s-3.9-9-8.8-9s-8.8,4-8.8,9S348.7,146.6,353.5,146.6z"/>
<linearGradient id="SVGID_38_" gradientUnits="userSpaceOnUse" x1="355.2044" y1="2039.6964" x2="350.8224" y2="2050.5745" gradientTransform="matrix(1 0 0 1 0 -1908.8511)">
	<stop  offset="0" style="stop-color:#9E633B"/>
	<stop  offset="1" style="stop-color:#1C120D"/>
</linearGradient>
<path class="st38" d="M352,146c3.6,0,6.5-3.2,6.5-7.2s-2.9-7.2-6.5-7.2s-6.5,3.2-6.5,7.2C345.5,142.7,348.4,146,352,146z"/>
<linearGradient id="SVGID_39_" gradientUnits="userSpaceOnUse" x1="356.5906" y1="2040.2448" x2="356.9157" y2="2045.2228" gradientTransform="matrix(1 0 0 1 0 -1908.8511)">
	<stop  offset="0" style="stop-color:#FDE6C6"/>
	<stop  offset="1" style="stop-color:#FFF6EB"/>
</linearGradient>
<path class="st39" d="M359.1,134.6c0,1.4-1,2.5-2.3,2.5s-2.3-1.1-2.3-2.5s1-2.5,2.3-2.5S359.1,133.2,359.1,134.6z"/>
<linearGradient id="SVGID_40_" gradientUnits="userSpaceOnUse" x1="357.7477" y1="1975.8429" x2="357.0807" y2="2094.553" gradientTransform="matrix(1 0 0 1 0 -1908.8511)">
	<stop  offset="0" style="stop-color:#F8BF84"/>
	<stop  offset="1" style="stop-color:#E56452"/>
</linearGradient>
<path class="st40" d="M347.2,176c6.4,4.6,13.9,2.9,20.8-6.8s8.3-21.7,2.1-26.5c-5.4-4.1-7.8,8.1-24,9.4
	C336.4,153,340.8,171.5,347.2,176z"/>
<linearGradient id="SVGID_41_" gradientUnits="userSpaceOnUse" x1="309.1337" y1="2043.7358" x2="307.2467" y2="2055.8638" gradientTransform="matrix(1 0 0 1 0 -1908.8511)">
	<stop  offset="0" style="stop-color:#FDE6C6"/>
	<stop  offset="1" style="stop-color:#FFF6EB"/>
</linearGradient>
<path class="st41" d="M307.9,157.9c7.6,0,13.8-6.7,13.8-15.1s-6.2-15-13.8-15c-7.6,0-13.8,6.7-13.8,15S300.3,157.9,307.9,157.9z"/>
<linearGradient id="SVGID_42_" gradientUnits="userSpaceOnUse" x1="307.3173" y1="2043.8602" x2="306.8643" y2="2056.5513" gradientTransform="matrix(1 0 0 1 0 -1908.8511)">
	<stop  offset="0" style="stop-color:#9DCD82"/>
	<stop  offset="1" style="stop-color:#6F5530"/>
</linearGradient>
<path class="st42" d="M306.9,157.8c6.1,0,11.1-5,11.1-11.1s-5-11.1-11.1-11.1s-11.1,5-11.1,11.1S300.8,157.8,306.9,157.8z"/>
<linearGradient id="SVGID_43_" gradientUnits="userSpaceOnUse" x1="307.2777" y1="2044.9802" x2="306.8679" y2="2056.4502" gradientTransform="matrix(1 0 0 1 0 -1908.8511)">
	<stop  offset="0" style="stop-color:#9DCD82"/>
	<stop  offset="1" style="stop-color:#9B7656"/>
</linearGradient>
<path class="st43" d="M306.9,156.7c5.5,0,10-4.5,10-10s-4.5-10-10-10s-10,4.5-10,10S301.4,156.7,306.9,156.7z"/>
<linearGradient id="SVGID_44_" gradientUnits="userSpaceOnUse" x1="305.7376" y1="2041.6326" x2="306.6416" y2="2055.5015" gradientTransform="matrix(1 0 0 1 0 -1908.8511)">
	<stop  offset="0" style="stop-color:#9E633B"/>
	<stop  offset="1" style="stop-color:#1C120D"/>
</linearGradient>
<path class="st44" d="M306.6,153.8c4,0,7.2-3.5,7.2-7.9c0-4.3-3.2-7.9-7.2-7.9s-7.2,3.5-7.2,7.9
	C299.3,150.3,302.6,153.8,306.6,153.8z"/>
<linearGradient id="SVGID_45_" gradientUnits="userSpaceOnUse" x1="312.8142" y1="2046.7671" x2="313.1133" y2="2051.3481" gradientTransform="matrix(1 0 0 1 0 -1908.8511)">
	<stop  offset="0" style="stop-color:#FDE6C6"/>
	<stop  offset="1" style="stop-color:#FFF6EB"/>
</linearGradient>
<path class="st45" d="M315.5,142.3c0,1.4-1.1,2.6-2.4,2.6s-2.4-1.2-2.4-2.6c0-1.4,1.1-2.6,2.4-2.6S315.5,140.8,315.5,142.3z"/>
<linearGradient id="SVGID_46_" gradientUnits="userSpaceOnUse" x1="305.0332" y1="1961.1575" x2="304.2882" y2="2093.6973" gradientTransform="matrix(1 0 0 1 0 -1908.8511)">
	<stop  offset="0" style="stop-color:#F8BF84"/>
	<stop  offset="0.2379" style="stop-color:#F8BF84"/>
	<stop  offset="0.729" style="stop-color:#F2997A"/>
	<stop  offset="1" style="stop-color:#E56452"/>
</linearGradient>
<path class="st46" d="M331.2,190.8c-15.6-4.8-26.7-2.9-36.4-5.5c-16.8-4.7-21.5-24.4-22.8-34.1c-1.5-11.1,18.8,7.3,44.5,3.6
	C337.7,151.6,341.9,194,331.2,190.8z"/>
<linearGradient id="SVGID_47_" gradientUnits="userSpaceOnUse" x1="358.1017" y1="2120.0461" x2="341.4368" y2="2091.9692" gradientTransform="matrix(1 0 0 1 0 -1908.8511)">
	<stop  offset="0" style="stop-color:#F8BF84"/>
	<stop  offset="1" style="stop-color:#FCE0BF"/>
</linearGradient>
<path class="st47" d="M357,174.5c5.2,5.6,7.2,15.9,8.1,21.9c0.4,2.6-4.5,8.3-7.7,10.9c-4.7,3.7-11.4,0.5-22.2-6.7
	c-13.5-9.1-13.5-14.3-12.4-31.8C323.8,154.3,346.7,163.4,357,174.5z"/>
<linearGradient id="SVGID_48_" gradientUnits="userSpaceOnUse" x1="350.8175" y1="2123.3098" x2="338.1425" y2="2101.6479" gradientTransform="matrix(1 0 0 1 0 -1908.8511)">
	<stop  offset="0" style="stop-color:#F8BF84"/>
	<stop  offset="1" style="stop-color:#FCE0BF"/>
</linearGradient>
<path class="st48" d="M335,197.2c-7.6-5.8-10.7-11.3-12.7-17.9c0.2,8.4,2.7,14.4,12.8,21.3c10.8,7.2,17.5,10.4,22.2,6.7
	c0.3-0.2,0.5-0.4,0.8-0.6C353.4,208.4,345.7,205.3,335,197.2z"/>
<linearGradient id="SVGID_49_" gradientUnits="userSpaceOnUse" x1="338.5712" y1="2123.5378" x2="345.4432" y2="2092.4929" gradientTransform="matrix(1 0 0 1 0 -1908.8511)">
	<stop  offset="0" style="stop-color:#F8BF84"/>
	<stop  offset="1" style="stop-color:#FCE0BF"/>
</linearGradient>
<path class="st49" d="M356.6,172.8c4.5,6.5,7.7,16.8,8.4,23.7c0.2,1.4-2.8,2.9-4,3.7c-5.4,3.8-16.2-3.9-26.2-12.3
	c-8.5-7.1-11.6-18.7-6.2-22.4C334,161.8,350.8,164.5,356.6,172.8z"/>
<linearGradient id="SVGID_50_" gradientUnits="userSpaceOnUse" x1="342.154" y1="2116.1687" x2="343.769" y2="2091.6748" gradientTransform="matrix(1 0 0 1 0 -1908.8511)">
	<stop  offset="0" style="stop-color:#865A1E"/>
	<stop  offset="0.3353" style="stop-color:#865A1E"/>
	<stop  offset="0.5807" style="stop-color:#755133"/>
	<stop  offset="0.7968" style="stop-color:#4E3819"/>
	<stop  offset="0.996" style="stop-color:#4E3819"/>
	<stop  offset="1" style="stop-color:#4E3819"/>
</linearGradient>
<path class="st50" d="M354.8,172.8c5.5,7.9,9.9,21.8,4.9,25.3s-15.1-7.6-25-15c-8.4-6.4-11.5-13.8-6.4-17.4
	C333.4,162.3,349.3,164.9,354.8,172.8z"/>
<linearGradient id="SVGID_51_" gradientUnits="userSpaceOnUse" x1="337.0175" y1="2117.0769" x2="342.5235" y2="2093.0408" gradientTransform="matrix(1 0 0 1 0 -1908.8511)">
	<stop  offset="0" style="stop-color:#E56452"/>
	<stop  offset="0.2439" style="stop-color:#E56452"/>
	<stop  offset="0.4226" style="stop-color:#E56452"/>
	<stop  offset="0.5804" style="stop-color:#E56452"/>
	<stop  offset="0.7262" style="stop-color:#E56452"/>
	<stop  offset="0.8631" style="stop-color:#9E633B"/>
	<stop  offset="0.9927" style="stop-color:#755133"/>
	<stop  offset="1" style="stop-color:#755133"/>
</linearGradient>
<path class="st51" d="M326,169.2c-0.8,3.9,2,12.3,8.3,17c9.4,7.1,19.4,14.7,24.7,12.3c3.1-6.4-3.5-15.2-7.8-21.4
	C345.7,169.4,331.4,166,326,169.2z"/>
<linearGradient id="SVGID_52_" gradientUnits="userSpaceOnUse" x1="367.7669" y1="2100.0742" x2="346.2119" y2="2102.3113" gradientTransform="matrix(1 0 0 1 0 -1908.8511)">
	<stop  offset="0" style="stop-color:#E56452"/>
	<stop  offset="0.3223" style="stop-color:#9E633B"/>
	<stop  offset="0.6534" style="stop-color:#4E3819"/>
	<stop  offset="0.8873" style="stop-color:#150A07"/>
	<stop  offset="1" style="stop-color:#000000"/>
</linearGradient>
<path class="st52" d="M339.4,188.7c0.4-0.8,6.5-0.3,9,1.3c2.4,1.6,8.2,6.8,7,8.1C354.2,199.5,338.1,191.2,339.4,188.7z"/>
<linearGradient id="SVGID_53_" gradientUnits="userSpaceOnUse" x1="347.9073" y1="2113.1919" x2="357.1512" y2="2098.1899" gradientTransform="matrix(1 0 0 1 0 -1908.8511)">
	<stop  offset="0" style="stop-color:#E56452"/>
	<stop  offset="0.3223" style="stop-color:#9E633B"/>
	<stop  offset="0.6534" style="stop-color:#4E3819"/>
	<stop  offset="0.8873" style="stop-color:#150A07"/>
	<stop  offset="1" style="stop-color:#000000"/>
</linearGradient>
<path class="st53" d="M351.8,188.2c0,2.2,3.4,6.1,5.4,9.2c1.1,1.7,2.9-2.8,0.6-6.7C355.5,186.9,351.8,187.4,351.8,188.2z"/>
<linearGradient id="SVGID_54_" gradientUnits="userSpaceOnUse" x1="366.0255" y1="2090.5129" x2="372.4026" y2="2073.9968" gradientTransform="matrix(1 0 0 1 0 -1908.8511)">
	<stop  offset="0" style="stop-color:#F8BF84"/>
	<stop  offset="1" style="stop-color:#FCE0BF"/>
</linearGradient>
<path class="st54" d="M364.1,167.3c-0.4,3.1-0.7,7.4,0,10.1c0.7,2.7,4,5,7.9,3.1c3.5-1.8,8.3-10.2,0.8-18.1
	C369.7,159.7,364.1,165.1,364.1,167.3z"/>
<linearGradient id="SVGID_55_" gradientUnits="userSpaceOnUse" x1="365.7593" y1="2090.4099" x2="372.1363" y2="2073.8938" gradientTransform="matrix(1 0 0 1 0 -1908.8511)">
	<stop  offset="0" style="stop-color:#F8BF84"/>
	<stop  offset="1" style="stop-color:#FCE0BF"/>
</linearGradient>
<path class="st55" d="M369.1,178.3c-0.5-2.3,1.6-7.5,2.7-9.8c0.8-1.8,1.2-4,2-5c-0.3-0.4-0.6-0.7-0.9-1.1c-3.1-2.6-8.7,2.7-8.7,4.9
	c-0.4,3.1-0.7,7.4,0,10.1s4,5,7.9,3.1c0.6-0.3,1.2-0.8,1.8-1.4C371.6,180.4,369.5,180.2,369.1,178.3z"/>
<linearGradient id="SVGID_56_" gradientUnits="userSpaceOnUse" x1="350.8272" y1="2089.968" x2="341.9642" y2="2069.5042" gradientTransform="matrix(1 0 0 1 0 -1908.8511)">
	<stop  offset="0" style="stop-color:#F8BF84"/>
	<stop  offset="1" style="stop-color:#FCE0BF"/>
</linearGradient>
<path class="st56" d="M367.8,168.9c1.8,8.1-0.5,11.3-4.3,12.7c-3.7,1.4-29-0.6-38.5-9.8c-3.2-3.2-3.3-11.1,6.7-11.1
	S366.4,165.4,367.8,168.9z"/>
<linearGradient id="SVGID_57_" gradientUnits="userSpaceOnUse" x1="351.5393" y1="2089.7725" x2="342.8413" y2="2069.6865" gradientTransform="matrix(1 0 0 1 0 -1908.8511)">
	<stop  offset="0" style="stop-color:#F8BF84"/>
	<stop  offset="1" style="stop-color:#FCE0BF"/>
</linearGradient>
<path class="st57" d="M368,169.5c0-0.2-0.1-0.4-0.1-0.6c0,0,0-0.1-0.1-0.2c0-0.1-0.1-0.1-0.1-0.1l0,0c-0.1-0.1-0.2-0.2-0.3-0.3
	c-3.8-3.4-26.3-7.5-35.6-7.5c-0.5,0-1,0-1.5,0.1c16.3,8.1,31.9,11.6,37,14.7c-0.8,2.3-2.5,3.6-4.6,4.4c-3.4,1.3-24.1-0.1-36-6.6
	c10.5,8,33.4,9.8,36.9,8.4C367.2,180.2,369.5,177.2,368,169.5z"/>
<linearGradient id="SVGID_58_" gradientUnits="userSpaceOnUse" x1="327.2841" y1="2084.2605" x2="325.8611" y2="2080.9744" gradientTransform="matrix(1 0 0 1 0 -1908.8511)">
	<stop  offset="0" style="stop-color:#F8BF84"/>
	<stop  offset="1" style="stop-color:#FCE0BF"/>
</linearGradient>
<path class="st58" d="M328,171.4c-2.6,0.1-3,2.6-2.8,5.2c0.1,2.2-1.6-1.3-0.5-4.2C325.8,169.8,330.3,171.3,328,171.4z"/>
<linearGradient id="SVGID_59_" gradientUnits="userSpaceOnUse" x1="351.7974" y1="2026.1359" x2="353.9073" y2="2044.9579" gradientTransform="matrix(1 0 0 1 0 -1908.8511)">
	<stop  offset="0" style="stop-color:#F8BF84"/>
	<stop  offset="1" style="stop-color:#E56452"/>
</linearGradient>
<path class="st59" d="M342.5,133c4.2-7.4,15.2-7.3,22-4.5c2.5,1.5,5.5-6.5-1.3-10.3s-18.4,0.1-22.5,9.9S340.7,136.1,342.5,133z"/>
<linearGradient id="SVGID_60_" gradientUnits="userSpaceOnUse" x1="324.7068" y1="2026.6058" x2="350.7278" y2="2076.8938" gradientTransform="matrix(1 0 0 1 0 -1908.8511)">
	<stop  offset="0" style="stop-color:#F2997A"/>
	<stop  offset="0.1496" style="stop-color:#F2997A"/>
	<stop  offset="0.3549" style="stop-color:#F2997A"/>
	<stop  offset="0.4625" style="stop-color:#F2997A"/>
	<stop  offset="0.5392" style="stop-color:#E56452"/>
	<stop  offset="0.6446" style="stop-color:#E56452"/>
	<stop  offset="0.7667" style="stop-color:#9E633B"/>
	<stop  offset="0.9002" style="stop-color:#9E633B"/>
	<stop  offset="1" style="stop-color:#755133"/>
</linearGradient>
<path class="st60" d="M372.4,161.2c-4.3-2.7-19.3-5.2-25.3-23.8c-0.3-0.7-2.9-14.1-2.7-18.6c0.1-2.6-38.3,4.7-41,5.6
	c-2.8,1,16.8,10.1,21.1,18.5c4.1,7.9,15.1,19.7,23.2,24.4C355.9,172,374,163,372.4,161.2z"/>
<linearGradient id="SVGID_61_" gradientUnits="userSpaceOnUse" x1="360.3574" y1="2068.0071" x2="360.3574" y2="2082.1191" gradientTransform="matrix(1 0 0 1 0 -1908.8511)">
	<stop  offset="0" style="stop-color:#F2997A"/>
	<stop  offset="1" style="stop-color:#755133"/>
</linearGradient>
<path class="st61" d="M374.2,162.3c-1.1-3.2-4.9,0-7.9,1.8c-4,2.3-19.7-0.8-20.3,2.7c-0.6,3.4,12.3,11,20.7,9.7
	C375.5,175,375.3,165.4,374.2,162.3z"/>
<linearGradient id="SVGID_62_" gradientUnits="userSpaceOnUse" x1="360.2374" y1="2071.3801" x2="360.2374" y2="2081.9221" gradientTransform="matrix(1 0 0 1 0 -1908.8511)">
	<stop  offset="0" style="stop-color:#F2997A"/>
	<stop  offset="1" style="stop-color:#755133"/>
</linearGradient>
<path class="st62" d="M367.4,174.7c-6.4,1-13.4-6-18.4-7.3c-1-0.2-3-1.3-3.1-0.7c-0.6,3.4,13.4,10.1,21.8,8.6
	c7.1-1.2,7.1-7.9,6.8-11.5C374,167.5,372.7,173.9,367.4,174.7z"/>
<linearGradient id="SVGID_63_" gradientUnits="userSpaceOnUse" x1="300.5411" y1="2032.7731" x2="303.6111" y2="2047.6461" gradientTransform="matrix(1 0 0 1 0 -1908.8511)">
	<stop  offset="0" style="stop-color:#F8BF84"/>
	<stop  offset="1" style="stop-color:#E56452"/>
</linearGradient>
<path class="st63" d="M319.7,135.7c-4.4-3-11.7-4.9-19.2-0.6c-7.5,4.3-19.5,9.2-15.4-2.3c4-11,19-11.7,26.9-8.8
	C321.7,127.5,323.9,138.5,319.7,135.7z"/>
<linearGradient id="SVGID_64_" gradientUnits="userSpaceOnUse" x1="302.85" y1="2021.9031" x2="302.85" y2="2027.2661" gradientTransform="matrix(1 0 0 1 0 -1908.8511)">
	<stop  offset="0" style="stop-color:#F2997A"/>
	<stop  offset="1" style="stop-color:#755133"/>
</linearGradient>
<path class="st64" d="M315,118.6c0,2.2-4.8,0.8-9.8,0.8s-14.5,2.3-14.5,0.2c0-2.2,10.3-6.7,15.3-6.7C311,112.8,315,116.4,315,118.6z
	"/>
<linearGradient id="SVGID_65_" gradientUnits="userSpaceOnUse" x1="319.0166" y1="1998.1102" x2="239.1686" y2="1995.4299" gradientTransform="matrix(1 0 0 1 0 -1908.8511)">
	<stop  offset="0" style="stop-color:#F8BF84"/>
	<stop  offset="1" style="stop-color:#E56452"/>
</linearGradient>
<path class="st65" d="M230.4,93.9c7.2,10.3,18,18.9,27.4,21.1s16.1,2.1,19.5,3.7c3.5,1.6,16.8-12.3,14.7-17.8
	c-2.1-5.5-3.9-32.3-24.6-37.7c-30.1-7.9-73-10.4-75.8-7.8C188.7,57.8,223.2,83.6,230.4,93.9z"/>
<linearGradient id="SVGID_66_" gradientUnits="userSpaceOnUse" x1="277.4437" y1="2002.6205" x2="221.4346" y2="1991.4694" gradientTransform="matrix(1 0 0 1 0 -1908.8511)">
	<stop  offset="0" style="stop-color:#F8BF84"/>
	<stop  offset="1" style="stop-color:#FCE0BF"/>
</linearGradient>
<path class="st66" d="M282.6,105.6c-1.2-5.7-8.7-31-24.9-37.4c-17-6.8-55.4-12-63.6-10.6c-4.1,0.7,27.6,24.2,33.8,30.8
	c7.1,7.6,12.3,18,24.4,22.7c8.2,3.3,17.5,4.6,25,3.7C280.8,114.4,282.9,106.9,282.6,105.6z"/>
<linearGradient id="SVGID_67_" gradientUnits="userSpaceOnUse" x1="347.9384" y1="2014.7813" x2="349.8654" y2="2021.2852" gradientTransform="matrix(1 0 0 1 0 -1908.8511)">
	<stop  offset="0" style="stop-color:#F2997A"/>
	<stop  offset="1" style="stop-color:#755133"/>
</linearGradient>
<path class="st67" d="M358.1,110c1.4,3.4-2.6,1.7-6.8,3c-4.2,1.4-8.9,4.3-9.6,2.2c-0.7-2.1,2.7-6.6,6.9-8
	C352.8,105.9,356.6,106.4,358.1,110z"/>
<g>
	<g>
		<g>
			<path class="st68" d="M255.9,289.2c-1.5,1.3-3,2.9-4.7,4.8c-2.2,2.6-4,5.1-5.2,6.9l-1.9-0.9c1.2-1.9,3.1-4.5,5.4-7.2
				c1.7-2,3.4-3.7,4.9-5.1"/>
			<path class="st68" d="M272.9,279.8c2.1,0.2,4.2,0.7,6.2,1.7c3.5,1.7,7.7,4.6,10.4,9.9c1,1.9,3.9,8.2,1.9,19.7
				c-0.7,4.2-1.9,8-2.8,10.5l-1.9-0.9c0.9-2.5,2.1-6.2,2.8-10.5c0.9-5.4,1-12.1-1.9-17.8c-2.4-4.7-6.2-7.3-9.4-8.8
				c-1.1-0.5-2.2-0.9-3.3-1.2"/>
		</g>
	</g>
	<path class="st69" d="M249.5,292.8c-2.3,2.7-4.1,5.3-5.4,7.2l1.9,0.9c1.2-1.9,3-4.3,5.2-6.9C250.6,293.6,249.9,293.1,249.5,292.8z"
		/>
	<path class="st69" d="M291.2,312.6c-0.6-0.2-1.5-0.5-2-0.7c-0.7,3.5-1.7,6.6-2.5,8.8l1.9,0.9C289.4,319.3,290.5,316.2,291.2,312.6z
		"/>
	<g>
		<path class="st68" d="M272.5,361.6c-2.5-1.1-49.1-22.9-50.8-24c-1.1-0.6-1.3-0.6-0.5-2.6c0.3-0.6,8.3-17.3,23.7-34.8l43.1,20.3
			c-3.3,20.4-9.8,36.4-11.4,39.8C275.2,363.1,275.2,362.8,272.5,361.6z"/>
	</g>
	<path class="st69" d="M221.6,337.7c1.7,1,48.3,22.9,50.8,24c2.7,1.2,2.7,1.5,4.1-1.3c1.6-3.4,8-19.3,11.4-39.8l-43.1-20.3
		c-1.8,2-3.5,4.1-5.1,6c0,0,0,0,0,0c-2.6,8.7-3.2,18.2,4.6,23.2c1.7,1.1,7.9,3.9,7.9,3.9l0.7,4c2.3,1.8,5.2,2.1,7-1.5
		c4.8,2.3,16.9,9.6,8.8,11.6c-12.5,3.9-38.6-7.5-45.3-16.8c-1.4,2.5-2.1,4-2.2,4.2C220.3,337,220.6,337.1,221.6,337.7z"/>
	<g>
		<path class="st70" d="M242.5,326c-1.1-1.1-2.4-7.7-2.7-12.4c-0.2-2.5,1.1-6.8,2.3-10.1c0.5-1.3,0.9-2.5,1.3-3.4
			c0.4-0.9,1.4-1.3,2.3-0.9l42.5,20c0.9,0.4,1.2,1.5,0.8,2.4c-0.5,0.9-1.2,2.1-1.9,3.4c-1.8,3-4.1,6.5-6.1,7.9
			c-3.8,2.8-9.7,6-11.3,5.9L242.5,326z"/>
	</g>
	<g>
		<path class="st71" d="M268.7,338.3l-24.8-11.7l1.7-1.9c0,0,0.1-0.1,0.1-0.1c0.3-0.3,0.8-0.3,1.2-0.1l21.5,10.1
			c0.4,0.2,0.7,0.6,0.7,1c0,0.1,0,0.2,0,0.2L268.7,338.3z"/>
	</g>
	<g>
		<path class="st71" d="M253.8,337.9L253.8,337.9c1.7,0.8,3.6,0.1,4.4-1.6l2.2-4.6l-6-2.8l-2.2,4.6
			C251.4,335.1,252.1,337.1,253.8,337.9z"/>
	</g>
	<g>
		<path class="st72" d="M253.9,334.7l2.3,1.1c0.5,0.2,1.1,0,1.3-0.5l0,0c0.2-0.5,0-1.1-0.5-1.3l-2.3-1.1c-0.5-0.2-1.1,0-1.3,0.5l0,0
			C253.2,333.9,253.4,334.5,253.9,334.7z"/>
	</g>
	<g>
		<path class="st72" d="M269.2,335.7l-23.4-11c0.3-0.3,0.8-0.3,1.2-0.1l21.5,10.1C268.9,334.9,269.2,335.3,269.2,335.7z"/>
	</g>
	<path class="st73" d="M287.3,324.7c0.7-1.2,1.3-2.3,1.8-3.1c0.5-0.9,0.1-1.9-0.8-2.4l-42.5-20c-0.9-0.4-2,0-2.3,0.9
		c-0.3,0.8-0.8,1.9-1.2,3.1C250.1,305.8,271.2,313.4,287.3,324.7z"/>
</g>
</svg>
