<?xml version="1.0" encoding="utf-8"?>
<!-- Generator: Adobe Illustrator 23.0.1, SVG Export Plug-In . SVG Version: 6.00 Build 0)  -->
<svg version="1.1" id="圖層_1" xmlns="http://www.w3.org/2000/svg" xmlns:xlink="http://www.w3.org/1999/xlink" x="0px" y="0px"
	 viewBox="0 0 471 474" style="enable-background:new 0 0 471 474;" xml:space="preserve">
<style type="text/css">
	.st0{fill:url(#SVGID_1_);}
	.st1{fill:url(#SVGID_2_);}
	.st2{fill:url(#SVGID_3_);}
	.st3{fill:url(#SVGID_4_);}
	.st4{fill:url(#SVGID_5_);}
	.st5{fill:url(#SVGID_6_);}
	.st6{fill:url(#SVGID_7_);}
	.st7{fill:url(#SVGID_8_);}
	.st8{fill:url(#SVGID_9_);}
	.st9{fill:url(#SVGID_10_);}
	.st10{fill:url(#SVGID_11_);}
	.st11{fill:url(#SVGID_12_);}
	.st12{fill:url(#SVGID_13_);}
	.st13{fill:url(#SVGID_14_);}
	.st14{fill:url(#SVGID_15_);}
	.st15{fill:url(#SVGID_16_);}
	.st16{fill:url(#SVGID_17_);}
	.st17{fill:url(#SVGID_18_);}
	.st18{fill:url(#SVGID_19_);}
	.st19{fill:url(#SVGID_20_);}
	.st20{fill:url(#SVGID_21_);}
	.st21{fill:url(#SVGID_22_);}
	.st22{fill:url(#SVGID_23_);}
	.st23{fill:url(#SVGID_24_);}
	.st24{fill:url(#SVGID_25_);}
	.st25{fill:url(#SVGID_26_);}
	.st26{fill:url(#SVGID_27_);}
	.st27{fill:url(#SVGID_28_);}
	.st28{fill:url(#SVGID_29_);}
	.st29{fill:url(#SVGID_30_);}
	.st30{fill:url(#SVGID_31_);}
	.st31{fill:url(#SVGID_32_);}
	.st32{fill:url(#SVGID_33_);}
	.st33{fill:url(#SVGID_34_);}
	.st34{fill:url(#SVGID_35_);}
	.st35{fill:url(#SVGID_36_);}
	.st36{fill:url(#SVGID_37_);}
	.st37{fill:url(#SVGID_38_);}
	.st38{fill:url(#SVGID_39_);}
	.st39{fill:url(#SVGID_40_);}
	.st40{fill:url(#SVGID_41_);}
	.st41{fill:url(#SVGID_42_);}
	.st42{fill:url(#SVGID_43_);}
	.st43{fill:url(#SVGID_44_);}
	.st44{fill:url(#SVGID_45_);}
	.st45{fill:url(#SVGID_46_);}
	.st46{fill:url(#SVGID_47_);}
	.st47{fill:url(#SVGID_48_);}
	.st48{fill:url(#SVGID_49_);}
	.st49{fill:url(#SVGID_50_);}
	.st50{fill:url(#SVGID_51_);}
	.st51{fill:url(#SVGID_52_);}
	.st52{fill:url(#SVGID_53_);}
	.st53{fill:url(#SVGID_54_);}
	.st54{fill:url(#SVGID_55_);}
	.st55{fill:url(#SVGID_56_);}
	.st56{fill:url(#SVGID_57_);}
	.st57{fill:url(#SVGID_58_);}
	.st58{fill:url(#SVGID_59_);}
	.st59{fill:url(#SVGID_60_);}
	.st60{fill:url(#SVGID_61_);}
	.st61{fill:url(#SVGID_62_);}
	.st62{fill:url(#SVGID_63_);}
	.st63{fill:url(#SVGID_64_);}
	.st64{fill:url(#SVGID_65_);}
	.st65{fill:url(#SVGID_66_);}
	.st66{fill:url(#SVGID_67_);}
	.st67{fill:url(#SVGID_68_);}
	.st68{fill:url(#SVGID_69_);}
	.st69{fill:url(#SVGID_70_);}
	.st70{fill:url(#SVGID_71_);}
	.st71{fill:url(#SVGID_72_);}
	.st72{fill:url(#SVGID_73_);}
	.st73{fill:url(#SVGID_74_);}
	.st74{fill:url(#SVGID_75_);}
	.st75{fill:url(#SVGID_76_);}
	.st76{fill:url(#SVGID_77_);}
	.st77{fill:url(#SVGID_78_);}
	.st78{fill:url(#SVGID_79_);}
	.st79{fill:url(#SVGID_80_);}
	.st80{fill:url(#SVGID_81_);}
	.st81{fill:url(#SVGID_82_);}
	.st82{fill:url(#SVGID_83_);}
	.st83{fill:url(#SVGID_84_);}
	.st84{fill:url(#SVGID_85_);}
	.st85{fill:url(#SVGID_86_);}
	.st86{fill:url(#SVGID_87_);}
	.st87{fill:url(#SVGID_88_);}
	.st88{fill:url(#SVGID_89_);}
	.st89{fill:url(#SVGID_90_);}
	.st90{fill:url(#SVGID_91_);}
	.st91{fill:url(#SVGID_92_);}
	.st92{fill:url(#SVGID_93_);}
	.st93{fill:url(#SVGID_94_);}
	.st94{fill:url(#SVGID_95_);}
	.st95{fill:url(#SVGID_96_);}
	.st96{fill:url(#SVGID_97_);}
	.st97{fill:url(#SVGID_98_);}
	.st98{fill:url(#SVGID_99_);}
	.st99{fill:url(#SVGID_100_);}
	.st100{fill:url(#SVGID_101_);}
	.st101{fill:url(#SVGID_102_);}
	.st102{fill:url(#SVGID_103_);}
	.st103{fill:url(#SVGID_104_);}
	.st104{fill:url(#SVGID_105_);}
	.st105{fill:url(#SVGID_106_);}
	.st106{fill:url(#SVGID_107_);}
	.st107{fill:url(#SVGID_108_);}
	.st108{fill:url(#SVGID_109_);}
	.st109{fill:url(#SVGID_110_);}
	.st110{fill:url(#SVGID_111_);}
	.st111{fill:url(#SVGID_112_);}
	.st112{fill:url(#SVGID_113_);}
	.st113{fill:url(#SVGID_114_);}
	.st114{fill:url(#SVGID_115_);}
	.st115{fill:url(#SVGID_116_);}
	.st116{fill:url(#SVGID_117_);}
	.st117{fill:url(#SVGID_118_);}
	.st118{fill:url(#SVGID_119_);}
	.st119{fill:url(#SVGID_120_);}
	.st120{fill:url(#SVGID_121_);}
	.st121{fill:url(#SVGID_122_);}
	.st122{fill:url(#SVGID_123_);}
	.st123{fill:url(#SVGID_124_);}
	.st124{fill:url(#SVGID_125_);}
	.st125{fill:url(#SVGID_126_);}
	.st126{fill:url(#SVGID_127_);}
	.st127{fill:url(#SVGID_128_);}
	.st128{fill:url(#SVGID_129_);}
	.st129{fill:url(#SVGID_130_);}
	.st130{fill:url(#SVGID_131_);}
	.st131{fill:url(#SVGID_132_);}
	.st132{fill:url(#SVGID_133_);}
	.st133{fill:url(#SVGID_134_);}
	.st134{fill:url(#SVGID_135_);}
	.st135{fill:url(#SVGID_136_);}
	.st136{fill:url(#SVGID_137_);}
	.st137{fill:url(#SVGID_138_);}
	.st138{fill:url(#SVGID_139_);}
	.st139{fill:url(#SVGID_140_);}
	.st140{fill:url(#SVGID_141_);}
	.st141{fill:url(#SVGID_142_);}
	.st142{fill:url(#SVGID_143_);}
	.st143{fill:url(#SVGID_144_);}
	.st144{fill:url(#SVGID_145_);}
	.st145{fill:url(#SVGID_146_);}
	.st146{fill:url(#SVGID_147_);}
	.st147{fill:url(#SVGID_148_);}
	.st148{fill:url(#SVGID_149_);}
	.st149{fill:url(#SVGID_150_);}
	.st150{fill:url(#SVGID_151_);}
	.st151{fill:url(#SVGID_152_);}
	.st152{fill:url(#SVGID_153_);}
	.st153{fill:url(#SVGID_154_);}
	.st154{fill:url(#SVGID_155_);}
	.st155{fill:url(#SVGID_156_);}
	.st156{fill:url(#SVGID_157_);}
	.st157{fill:url(#SVGID_158_);}
	.st158{fill:url(#SVGID_159_);}
	.st159{fill:url(#SVGID_160_);}
	.st160{fill:url(#SVGID_161_);}
	.st161{fill:url(#SVGID_162_);}
	.st162{fill:url(#SVGID_163_);}
	.st163{fill:url(#SVGID_164_);}
	.st164{fill:url(#SVGID_165_);}
	.st165{fill:url(#SVGID_166_);}
	.st166{fill:url(#SVGID_167_);}
	.st167{fill:url(#SVGID_168_);}
	.st168{fill:url(#SVGID_169_);}
	.st169{fill:url(#SVGID_170_);}
	.st170{fill:url(#SVGID_171_);}
	.st171{fill:url(#SVGID_172_);}
	.st172{fill:url(#SVGID_173_);}
	.st173{fill:url(#SVGID_174_);}
	.st174{fill:url(#SVGID_175_);}
	.st175{fill:url(#SVGID_176_);}
	.st176{fill:url(#SVGID_177_);}
	.st177{fill:url(#SVGID_178_);}
	.st178{fill:url(#SVGID_179_);}
	.st179{fill:url(#SVGID_180_);}
	.st180{fill:url(#SVGID_181_);}
	.st181{fill:url(#SVGID_182_);}
	.st182{fill:url(#SVGID_183_);}
	.st183{fill:url(#SVGID_184_);}
	.st184{fill:url(#SVGID_185_);}
	.st185{fill:url(#SVGID_186_);}
	.st186{fill:url(#SVGID_187_);}
	.st187{fill:url(#SVGID_188_);}
	.st188{fill:url(#SVGID_189_);}
	.st189{fill:url(#SVGID_190_);}
	.st190{fill:url(#SVGID_191_);}
	.st191{fill:url(#SVGID_192_);}
	.st192{fill:url(#SVGID_193_);}
	.st193{fill:url(#SVGID_194_);}
	.st194{fill:url(#SVGID_195_);}
	.st195{fill:url(#SVGID_196_);}
	.st196{fill:url(#SVGID_197_);}
	.st197{fill:url(#SVGID_198_);}
	.st198{fill:url(#SVGID_199_);}
	.st199{fill:url(#SVGID_200_);}
	.st200{fill:url(#SVGID_201_);}
	.st201{fill:url(#SVGID_202_);}
	.st202{fill:url(#SVGID_203_);}
	.st203{fill:url(#SVGID_204_);}
	.st204{fill:url(#SVGID_205_);}
	.st205{fill:url(#SVGID_206_);}
	.st206{fill:url(#SVGID_207_);}
	.st207{fill:url(#SVGID_208_);}
	.st208{fill:url(#SVGID_209_);}
	.st209{fill:url(#SVGID_210_);}
	.st210{fill:url(#SVGID_211_);}
	.st211{fill:url(#SVGID_212_);}
	.st212{fill:url(#SVGID_213_);}
	.st213{fill:url(#SVGID_214_);}
	.st214{fill:url(#SVGID_215_);}
	.st215{fill:url(#SVGID_216_);}
	.st216{fill:url(#SVGID_217_);}
	.st217{fill:url(#SVGID_218_);}
	.st218{fill:url(#SVGID_219_);}
	.st219{fill:url(#SVGID_220_);}
	.st220{fill:url(#SVGID_221_);}
	.st221{fill:url(#SVGID_222_);}
	.st222{fill:url(#SVGID_223_);}
	.st223{fill:url(#SVGID_224_);}
	.st224{fill:url(#SVGID_225_);}
	.st225{fill:url(#SVGID_226_);}
	.st226{fill:url(#SVGID_227_);}
	.st227{fill:url(#SVGID_228_);}
	.st228{fill:url(#SVGID_229_);}
	.st229{fill:url(#SVGID_230_);}
	.st230{fill:url(#SVGID_231_);}
	.st231{fill:url(#SVGID_232_);}
	.st232{fill:url(#SVGID_233_);}
	.st233{fill:url(#SVGID_234_);}
	.st234{fill:url(#SVGID_235_);}
	.st235{fill:url(#SVGID_236_);}
	.st236{fill:url(#SVGID_237_);}
	.st237{fill:url(#SVGID_238_);}
	.st238{fill:url(#SVGID_239_);}
	.st239{fill:url(#SVGID_240_);}
	.st240{fill:url(#SVGID_241_);}
	.st241{fill:url(#SVGID_242_);}
	.st242{fill:url(#SVGID_243_);}
	.st243{fill:url(#SVGID_244_);}
	.st244{fill:url(#SVGID_245_);}
	.st245{fill:url(#SVGID_246_);}
	.st246{fill:url(#SVGID_247_);}
	.st247{fill:url(#SVGID_248_);}
	.st248{fill:url(#SVGID_249_);}
	.st249{fill:url(#SVGID_250_);}
	.st250{fill:url(#SVGID_251_);}
	.st251{fill:url(#SVGID_252_);}
	.st252{fill:url(#SVGID_253_);}
	.st253{fill:url(#SVGID_254_);}
	.st254{fill:url(#SVGID_255_);}
	.st255{fill:url(#SVGID_256_);}
	.st256{fill:url(#SVGID_257_);}
	.st257{fill:url(#SVGID_258_);}
	.st258{fill:url(#SVGID_259_);}
	.st259{fill:url(#SVGID_260_);}
	.st260{fill:url(#SVGID_261_);}
	.st261{fill:url(#SVGID_262_);}
	.st262{fill:url(#SVGID_263_);}
	.st263{fill:url(#SVGID_264_);}
	.st264{fill:url(#SVGID_265_);}
	.st265{fill:url(#SVGID_266_);}
	.st266{fill:url(#SVGID_267_);}
	.st267{fill:url(#SVGID_268_);}
</style>
<linearGradient id="SVGID_1_" gradientUnits="userSpaceOnUse" x1="207.4471" y1="-1107.7867" x2="8.3087" y2="-1058.8278" gradientTransform="matrix(1 0 0 -1 0 -718.2999)">
	<stop  offset="0" style="stop-color:#A88C55"/>
	<stop  offset="0.2401" style="stop-color:#A88C55"/>
	<stop  offset="0.4159" style="stop-color:#A88C55"/>
	<stop  offset="0.5711" style="stop-color:#8D6B27"/>
	<stop  offset="0.7146" style="stop-color:#8D6B27"/>
	<stop  offset="0.8498" style="stop-color:#8D6B27"/>
	<stop  offset="0.9774" style="stop-color:#7C5D2B"/>
	<stop  offset="1" style="stop-color:#5B4135"/>
</linearGradient>
<path class="st0" d="M154.9,330.1c-2.3,29.4-16.1,47.9-36.9,48.4c-42.7,0.9-93.3-47.4-105-65c-9.2-14-17.6,3.7-10.2,20.9
	c7.4,17.2,42.4,64.4,98.5,76.2c40.8,8.6,76.6-3.9,94.7-9.6C214.1,395.2,155.5,322.2,154.9,330.1z"/>
<linearGradient id="SVGID_2_" gradientUnits="userSpaceOnUse" x1="356.1919" y1="-931.8542" x2="336.4139" y2="-964.3642" gradientTransform="matrix(1 0 0 -1 0 -718.2999)">
	<stop  offset="0" style="stop-color:#E5C9B5"/>
	<stop  offset="1" style="stop-color:#A88C55"/>
</linearGradient>
<path class="st1" d="M307.5,217.7c-6.1,25.8,9.2,31.7,31.5,40.5c10,3.9,30.7,14.9,33.3,5.8c2.6-9.2-12-21.9-28.5-33
	C322.7,216.7,310.8,203.7,307.5,217.7z"/>
<linearGradient id="SVGID_3_" gradientUnits="userSpaceOnUse" x1="401.7586" y1="-959.0884" x2="382.0506" y2="-991.4824" gradientTransform="matrix(1 0 0 -1 0 -718.2999)">
	<stop  offset="0" style="stop-color:#E5C9B5"/>
	<stop  offset="1" style="stop-color:#A88C55"/>
</linearGradient>
<path class="st2" d="M427.2,248.5c-10.2,3.2-53.6,19.4-60.2,19.1c-3.1-0.2-3.2-7.5-3.7-14.4c-0.5-6.6,7-4.9,19.9-7.4
	c11.9-2.3,35.3-5.9,44.2-5.8C432.3,240.1,433.2,246.6,427.2,248.5z"/>
<linearGradient id="SVGID_4_" gradientUnits="userSpaceOnUse" x1="433.6347" y1="-956.9595" x2="436.0847" y2="-945.3984" gradientTransform="matrix(1 0 0 -1 0 -718.2999)">
	<stop  offset="0" style="stop-color:#A88C55"/>
	<stop  offset="0.3805" style="stop-color:#8D6B27"/>
	<stop  offset="1" style="stop-color:#5B4135"/>
</linearGradient>
<path class="st3" d="M425.4,239.8c0.8-3.2,5.3-7,7.2-8.6c1.4-1.3,9.5-6.2,11.2-5.5c2.1,0.8-5.5,7.3-7.8,9.3c-2.8,2.4-5.2,5.9-6,6.5
	C428.7,242.4,424.9,242.3,425.4,239.8z"/>
<linearGradient id="SVGID_5_" gradientUnits="userSpaceOnUse" x1="452.0099" y1="-947.8459" x2="456.0679" y2="-953.7409" gradientTransform="matrix(1 0 0 -1 0 -718.2999)">
	<stop  offset="0" style="stop-color:#A88C55"/>
	<stop  offset="0.3805" style="stop-color:#8D6B27"/>
	<stop  offset="1" style="stop-color:#5B4135"/>
</linearGradient>
<path class="st4" d="M446.7,237.3c2.1-0.3,7.4,0.5,10.5-0.7c1.6-0.6,6.6-5.4,6.6-6.9c0-1.7-5.6,1.4-8.1,2c-3.3,0.8-9,0.9-9.7,1.4
	C444.6,233.9,444.4,237.6,446.7,237.3z"/>
<linearGradient id="SVGID_6_" gradientUnits="userSpaceOnUse" x1="455.5261" y1="-951.1277" x2="458.5891" y2="-956.7937" gradientTransform="matrix(1 0 0 -1 0 -718.2999)">
	<stop  offset="0" style="stop-color:#A88C55"/>
	<stop  offset="0.3805" style="stop-color:#8D6B27"/>
	<stop  offset="1" style="stop-color:#5B4135"/>
</linearGradient>
<path class="st5" d="M445.8,240.6c2.5,0.6,5.8,2,10,1.5c3.1-0.4,14.3-5.9,15.1-8.1c0.9-2.6-12.6,1.8-16.2,1.9
	c-3.9,0.1-8.5-0.8-9.6-0.5C443.2,235.9,443,239.9,445.8,240.6z"/>
<linearGradient id="SVGID_7_" gradientUnits="userSpaceOnUse" x1="456.4422" y1="-955.0043" x2="458.5862" y2="-959.1393" gradientTransform="matrix(1 0 0 -1 0 -718.2999)">
	<stop  offset="0" style="stop-color:#A88C55"/>
	<stop  offset="0.3805" style="stop-color:#8D6B27"/>
	<stop  offset="1" style="stop-color:#5B4135"/>
</linearGradient>
<path class="st6" d="M446.5,243c2.6,0.8,7.4,1.9,10.2,1.3c2.6-0.5,13.1-4.7,13.8-6.9c0.8-2.6-10.7,1.2-13.3,1.7
	c-3.9,0.8-8.4-0.4-10.7-0.7C444.7,238.2,443.9,242.2,446.5,243z"/>
<linearGradient id="SVGID_8_" gradientUnits="userSpaceOnUse" x1="455.2453" y1="-958.5466" x2="458.5293" y2="-964.0707" gradientTransform="matrix(1 0 0 -1 0 -718.2999)">
	<stop  offset="0" style="stop-color:#A88C55"/>
	<stop  offset="0.3805" style="stop-color:#8D6B27"/>
	<stop  offset="1" style="stop-color:#5B4135"/>
</linearGradient>
<path class="st7" d="M447.7,247c2.1,0.6,6.2,0.1,9.7,0.1c1.8,0,10.4-2.8,11.1-4.6c0.8-2-9.4-0.3-12.3,0.1c-3.5,0.4-7-0.1-8,0.1
	C446.7,243,445.3,246.3,447.7,247z"/>
<linearGradient id="SVGID_9_" gradientUnits="userSpaceOnUse" x1="418.5746" y1="-966.6343" x2="451.7566" y2="-956.3363" gradientTransform="matrix(1 0 0 -1 0 -718.2999)">
	<stop  offset="0.1489" style="stop-color:#E5C9B5"/>
	<stop  offset="0.2819" style="stop-color:#E5C9B5"/>
	<stop  offset="0.4692" style="stop-color:#D7AB7C"/>
	<stop  offset="0.6886" style="stop-color:#D7AB7C"/>
	<stop  offset="0.9306" style="stop-color:#A88C55"/>
	<stop  offset="1" style="stop-color:#A88C55"/>
</linearGradient>
<path class="st8" d="M424.7,240.3c6.4-6.6,17-6.6,22.7-7.4c2.6-0.4,4.7,13.9,2.4,14.4c-5.2,1.1-18.1,0.4-22.8,1
	C424.7,248.6,423.1,242,424.7,240.3z"/>
<linearGradient id="SVGID_10_" gradientUnits="userSpaceOnUse" x1="304.5043" y1="-1152.7607" x2="281.0003" y2="-1095.9878" gradientTransform="matrix(1 0 0 -1 0 -718.2999)">
	<stop  offset="0" style="stop-color:#E5C9B5"/>
	<stop  offset="1" style="stop-color:#A88C55"/>
</linearGradient>
<path class="st9" d="M325.2,361.1c-4.1,6.3-48.1,82.5-41.8,86.7c5.6,3.8-19.1,6-24.4,3c-5.6-3.2,28.2-38.8,0.4-52.2
	C249.8,394,334.5,346.9,325.2,361.1z"/>
<linearGradient id="SVGID_11_" gradientUnits="userSpaceOnUse" x1="318.3349" y1="-1156.5813" x2="292.0559" y2="-1093.1073" gradientTransform="matrix(1 0 0 -1 0 -718.2999)">
	<stop  offset="0" style="stop-color:#E5C9B5"/>
	<stop  offset="1" style="stop-color:#A88C55"/>
</linearGradient>
<path class="st10" d="M337.7,329.5c0.5,20.3-20.6,48.6-54.8,64.5c-22.1,10.3-41.7,3.7-55-16.4c-13.3-20-2.9-38.6,26.2-57.9
	C283.2,300.5,336.9,297.7,337.7,329.5z"/>
<linearGradient id="SVGID_12_" gradientUnits="userSpaceOnUse" x1="301.5678" y1="-1157.053" x2="283.3358" y2="-1113.016" gradientTransform="matrix(1 0 0 -1 0 -718.2999)">
	<stop  offset="0" style="stop-color:#E5C9B5"/>
	<stop  offset="1" style="stop-color:#A88C55"/>
</linearGradient>
<path class="st11" d="M336.4,451.7c-11.3,0.3-71.6,0-76.5,0c-4.9,0,23.7-18.9,27.2-19.7c1.8-0.4,22.1,4.6,46.4,1.9
	C357.9,431,350.3,451.4,336.4,451.7z"/>
<linearGradient id="SVGID_13_" gradientUnits="userSpaceOnUse" x1="362.3328" y1="-1139.7078" x2="352.9408" y2="-1157.7817" gradientTransform="matrix(1 0 0 -1 0 -718.2999)">
	<stop  offset="0" style="stop-color:#D7AB7C"/>
	<stop  offset="1" style="stop-color:#5B4135"/>
</linearGradient>
<path class="st12" d="M367.5,452.3H325c-4.3,0-9.8-6.4-9.7-9.3c0.1-5.8,22.3-10.6,31.8-10.9c14.3-0.4,35.4,12,35.4,19.9
	C382.5,453.1,372.2,452.3,367.5,452.3z"/>
<linearGradient id="SVGID_14_" gradientUnits="userSpaceOnUse" x1="305.5056" y1="-1169.8552" x2="343.1836" y2="-1161.2483" gradientTransform="matrix(1 0 0 -1 0 -718.2999)">
	<stop  offset="0" style="stop-color:#D7AB7C"/>
	<stop  offset="0.2442" style="stop-color:#A88C55"/>
	<stop  offset="0.5895" style="stop-color:#8D6B27"/>
	<stop  offset="0.8524" style="stop-color:#7C5D2B"/>
	<stop  offset="1" style="stop-color:#5B4135"/>
</linearGradient>
<path class="st13" d="M348.3,452.3H316c-3.2,0-12.8,0.9-12.8-0.2c0-9.3,20.2-16.5,29.1-17.1c9.1-0.6,23,6.8,23.4,13.8
	C355.9,451,351.9,452.3,348.3,452.3z"/>
<linearGradient id="SVGID_15_" gradientUnits="userSpaceOnUse" x1="344.9283" y1="-1048.3297" x2="330.0903" y2="-1057.2977" gradientTransform="matrix(1 0 0 -1 0 -718.2999)">
	<stop  offset="0" style="stop-color:#9B7760"/>
	<stop  offset="1" style="stop-color:#5B4135"/>
</linearGradient>
<path class="st14" d="M335.9,325c4.2,1.9,5,4.9,5.5,6.5c0.9,3.3-2.3,12.6-9.4,17c-7.2,4.4-14.4,3.7-12.1,0.9
	C322.2,346.6,335.9,325,335.9,325z"/>
<linearGradient id="SVGID_16_" gradientUnits="userSpaceOnUse" x1="148.4055" y1="-817.9086" x2="253.1585" y2="-1025.3606" gradientTransform="matrix(1 0 0 -1 0 -718.2999)">
	<stop  offset="0" style="stop-color:#E5C9B5"/>
	<stop  offset="2.790000e-02" style="stop-color:#E5C9B5"/>
	<stop  offset="9.640000e-02" style="stop-color:#D7AB7C"/>
	<stop  offset="0.1729" style="stop-color:#D7AB7C"/>
	<stop  offset="0.2581" style="stop-color:#D7AB7C"/>
	<stop  offset="0.3557" style="stop-color:#A88C55"/>
	<stop  offset="0.4731" style="stop-color:#A88C55"/>
	<stop  offset="0.631" style="stop-color:#A88C55"/>
	<stop  offset="1" style="stop-color:#A88C55"/>
</linearGradient>
<path class="st15" d="M272.2,152.1c1.8,11-3.4,53.5-8.9,70.7c-9.2,28.4-70.9,37-95.1,74.2c-28.9,44.4-15.3,101.7,35.3,106.3
	c50.6,4.6,123.6-32.7,135.6-84.5c9.8-42.3-6.5-82.2-14.4-98.9c-7.9-16.7-5.8-20.8-4.3-30.6C321.9,179.5,270.7,142.7,272.2,152.1z"/>
<linearGradient id="SVGID_17_" gradientUnits="userSpaceOnUse" x1="227.4672" y1="-988.6102" x2="305.2462" y2="-1054.2822" gradientTransform="matrix(1 0 0 -1 0 -718.2999)">
	<stop  offset="0.1168" style="stop-color:#D7AB7C"/>
	<stop  offset="0.1409" style="stop-color:#D7AB7C"/>
	<stop  offset="0.4007" style="stop-color:#D7AB7C"/>
	<stop  offset="0.6392" style="stop-color:#E5C9B5"/>
	<stop  offset="0.8467" style="stop-color:#E5C9B5"/>
	<stop  offset="1" style="stop-color:#E5C9B5"/>
</linearGradient>
<path class="st16" d="M339.1,318.9c-12,51.8-85,89.2-135.6,84.5c-8.6-0.8-16.1-3.1-22.5-6.6c74.4-1.7,131.5-85.1,132.5-131.8
	c0.5-22.3-16.7-52.5-13.5-81.3l5.8-13c6.1,5.5,15,15.5,14.5,18.6c-1.5,9.8-3.6,13.9,4.3,30.6C332.6,236.7,348.8,276.6,339.1,318.9z"
	/>
<linearGradient id="SVGID_18_" gradientUnits="userSpaceOnUse" x1="382.8355" y1="-1127.6738" x2="255.2855" y2="-1078.8348" gradientTransform="matrix(1 0 0 -1 0 -718.2999)">
	<stop  offset="0" style="stop-color:#E5C9B5"/>
	<stop  offset="1" style="stop-color:#A88C55"/>
</linearGradient>
<path class="st17" d="M338.7,326.7c6.7,3.5,7.2,11.3,5.5,15.8c-2.5,6.7-13.6,9.7-19.2,15.8c-21.8,24.4-88.1,70.3-143.8,38.5
	c9.8-3.7,91.5-65.5,97-70.1c18.6,24.1,58.9,24.5,62.4,7.2C341.1,331.8,339.6,327.9,338.7,326.7z"/>
<linearGradient id="SVGID_19_" gradientUnits="userSpaceOnUse" x1="286.8742" y1="-971.1639" x2="225.8172" y2="-1082.7689" gradientTransform="matrix(1 0 0 -1 0 -718.2999)">
	<stop  offset="0" style="stop-color:#E5C9B5"/>
	<stop  offset="8.330000e-02" style="stop-color:#E5C9B5"/>
	<stop  offset="0.1952" style="stop-color:#D7AB7C"/>
	<stop  offset="0.3153" style="stop-color:#D7AB7C"/>
	<stop  offset="0.4445" style="stop-color:#A88C55"/>
	<stop  offset="0.5871" style="stop-color:#A88C55"/>
	<stop  offset="0.7533" style="stop-color:#A88C55"/>
	<stop  offset="1" style="stop-color:#A88C55"/>
</linearGradient>
<path class="st18" d="M291.5,337.6c1.2,24.5-7.3,42.1-36.1,61.3c-28.9,19.2-68.6,8.1-85.8-11c-16.1-17.9,8.2-55.8,37.1-75
	C235.5,293.7,290,305.8,291.5,337.6z"/>
<linearGradient id="SVGID_20_" gradientUnits="userSpaceOnUse" x1="256.1566" y1="-1157.9878" x2="240.2005" y2="-1106.6298" gradientTransform="matrix(1 0 0 -1 0 -718.2999)">
	<stop  offset="0" style="stop-color:#E5C9B5"/>
	<stop  offset="1" style="stop-color:#A88C55"/>
</linearGradient>
<path class="st19" d="M288.9,356.2c-1.5,7.4-64.5,79.2-68.7,85.4c-5.3,7.8-16.1,4.4-21.4,1.4c-5.6-3.2,24-28.4-5.3-39.6
	C172.9,395.4,290.3,349.2,288.9,356.2z"/>
<linearGradient id="SVGID_21_" gradientUnits="userSpaceOnUse" x1="213.6948" y1="-1137.9015" x2="238.7428" y2="-1187.4974" gradientTransform="matrix(1 0 0 -1 0 -718.2999)">
	<stop  offset="0" style="stop-color:#E5C9B5"/>
	<stop  offset="1" style="stop-color:#A88C55"/>
</linearGradient>
<path class="st20" d="M216.5,470c-4.6-6-8.8-12.1-18.1-27.4c-2.5-4.2,18.7-2.7,21.8-0.9c4.2,2.3,22.3,8.4,39.9,17.6
	C268.9,463.9,221.7,476.7,216.5,470z"/>
<linearGradient id="SVGID_22_" gradientUnits="userSpaceOnUse" x1="268.754" y1="-1168.0645" x2="257.223" y2="-1183.8855" gradientTransform="matrix(1 0 0 -1 0 -718.2999)">
	<stop  offset="0" style="stop-color:#D7AB7C"/>
	<stop  offset="0.2442" style="stop-color:#A88C55"/>
	<stop  offset="0.5895" style="stop-color:#8D6B27"/>
	<stop  offset="0.8524" style="stop-color:#7C5D2B"/>
	<stop  offset="1" style="stop-color:#5B4135"/>
</linearGradient>
<path class="st21" d="M257.3,448.6c19-0.5,13.9,21.8,13.9,23.2c0,1.4-32.9,0.3-32.9-1.5C238.3,468.4,246.1,448.9,257.3,448.6z"/>
<linearGradient id="SVGID_23_" gradientUnits="userSpaceOnUse" x1="260.211" y1="-1171.527" x2="239.38" y2="-1184.323" gradientTransform="matrix(1 0 0 -1 0 -718.2999)">
	<stop  offset="0" style="stop-color:#D7AB7C"/>
	<stop  offset="0.2442" style="stop-color:#A88C55"/>
	<stop  offset="0.5895" style="stop-color:#8D6B27"/>
	<stop  offset="0.8524" style="stop-color:#7C5D2B"/>
	<stop  offset="1" style="stop-color:#5B4135"/>
</linearGradient>
<path class="st22" d="M242.5,449.1c19-0.5,13.9,21.8,13.9,23.2c0,1.4-33.4,0.7-33.4-1.2C222.9,469.2,231.3,449.3,242.5,449.1z"/>
<linearGradient id="SVGID_24_" gradientUnits="userSpaceOnUse" x1="247.6681" y1="-1164.36" x2="216.8441" y2="-1187.932" gradientTransform="matrix(1 0 0 -1 0 -718.2999)">
	<stop  offset="0" style="stop-color:#D7AB7C"/>
	<stop  offset="0.2442" style="stop-color:#A88C55"/>
	<stop  offset="0.5895" style="stop-color:#8D6B27"/>
	<stop  offset="0.8524" style="stop-color:#7C5D2B"/>
	<stop  offset="1" style="stop-color:#5B4135"/>
</linearGradient>
<path class="st23" d="M226,449.2c19-0.5,14.4,22,14.4,23.4c0,1.4-21.9-0.7-23.4-1.7c-2.7-1.7-8.1-9-9.3-13.4
	C206.6,453.6,218.6,449.4,226,449.2z"/>
<linearGradient id="SVGID_25_" gradientUnits="userSpaceOnUse" x1="226.1982" y1="-1019.042" x2="294.8222" y2="-945.529" gradientTransform="matrix(1 0 0 -1 0 -718.2999)">
	<stop  offset="0" style="stop-color:#E5C9B5"/>
	<stop  offset="1" style="stop-color:#A88C55"/>
</linearGradient>
<path class="st24" d="M294.7,211.9c16.9,23.5,0.4,39.4-14.4,56.8c-10.8,12.7-25.8,20.5-31.4,12.8s5.6-23.4,16.1-38.5
	C278.4,223.7,286.3,200.3,294.7,211.9z"/>
<linearGradient id="SVGID_26_" gradientUnits="userSpaceOnUse" x1="291.4447" y1="-971.6827" x2="263.7637" y2="-1050.6598" gradientTransform="matrix(1 0 0 -1 0 -718.2999)">
	<stop  offset="0" style="stop-color:#E5C9B5"/>
	<stop  offset="1" style="stop-color:#A88C55"/>
</linearGradient>
<path class="st25" d="M296.7,321.6c-9.4-5.2-45.5-34.7-48.3-40.7c-2.9-6,1.6-9.3,8.4-8.1c6.8,1.2,11.9,0.1,18.5,10.3
	c6.6,10.1,26.9,29.7,28.7,34.2S299.8,323.3,296.7,321.6z"/>
<linearGradient id="SVGID_27_" gradientUnits="userSpaceOnUse" x1="306.9292" y1="-1046.0063" x2="321.4122" y2="-1044.7854" gradientTransform="matrix(1 0 0 -1 0 -718.2999)">
	<stop  offset="0" style="stop-color:#A88C55"/>
	<stop  offset="0.3805" style="stop-color:#8D6B27"/>
	<stop  offset="1" style="stop-color:#5B4135"/>
</linearGradient>
<path class="st26" d="M309.8,318.5c2,0.8,5.1,3.7,8,6c1.5,1.1,6.9,8.8,6.4,10.6c-0.6,2.1-7.6-4.8-9.7-6.8c-2.6-2.6-6.2-4.6-6.9-5.3
	C306.6,321.6,307.5,317.6,309.8,318.5z"/>
<linearGradient id="SVGID_28_" gradientUnits="userSpaceOnUse" x1="330.9413" y1="-1046.772" x2="317.6813" y2="-1056.53" gradientTransform="matrix(1 0 0 -1 0 -718.2999)">
	<stop  offset="0" style="stop-color:#A88C55"/>
	<stop  offset="0.3805" style="stop-color:#8D6B27"/>
	<stop  offset="1" style="stop-color:#5B4135"/>
</linearGradient>
<path class="st27" d="M316.4,327.6c1.4,1.7,3.2,5,4.7,8.3c0.8,1.7,1.4,11.8,0.1,13.1c-1.5,1.6-4.4-7.8-5.3-10.7
	c-1.1-3.5-3.3-7-3.5-8C312.1,328.9,314.8,325.7,316.4,327.6z"/>
<linearGradient id="SVGID_29_" gradientUnits="userSpaceOnUse" x1="316.6375" y1="-1047.3242" x2="312.2175" y2="-1058.1663" gradientTransform="matrix(1 0 0 -1 0 -718.2999)">
	<stop  offset="0" style="stop-color:#A88C55"/>
	<stop  offset="0.3805" style="stop-color:#8D6B27"/>
	<stop  offset="1" style="stop-color:#5B4135"/>
</linearGradient>
<path class="st28" d="M312,328.2c1.6,2.2,5.3,6.2,5.8,9c0.5,2.6-0.5,13.9-2.3,15.4c-2,1.7-2.7-10.4-3.2-13c-0.7-3.9-3.9-6.4-5-8.5
	C306.6,329.5,310.5,326.1,312,328.2z"/>
<linearGradient id="SVGID_30_" gradientUnits="userSpaceOnUse" x1="314.3212" y1="-1050.9072" x2="305.7312" y2="-1060.5812" gradientTransform="matrix(1 0 0 -1 0 -718.2999)">
	<stop  offset="0" style="stop-color:#A88C55"/>
	<stop  offset="0.3805" style="stop-color:#8D6B27"/>
	<stop  offset="1" style="stop-color:#5B4135"/>
</linearGradient>
<path class="st29" d="M307.7,330.2c1.2,2.3,4.2,5.1,4.7,9.3c0.4,3.1-1.3,12-3.1,13.3c-2.2,1.5-2.2-8.2-2.9-11.7
	c-0.8-3.9-2.7-9.3-2.7-10.5C303.7,328.7,306.4,327.7,307.7,330.2z"/>
<linearGradient id="SVGID_31_" gradientUnits="userSpaceOnUse" x1="309.9962" y1="-1051.7623" x2="300.6552" y2="-1060.0194" gradientTransform="matrix(1 0 0 -1 0 -718.2999)">
	<stop  offset="0" style="stop-color:#A88C55"/>
	<stop  offset="0.3805" style="stop-color:#8D6B27"/>
	<stop  offset="1" style="stop-color:#5B4135"/>
</linearGradient>
<path class="st30" d="M305,332c0.2,2.1,2.1,7,1.8,10.4c-0.2,1.7-3.6,7.7-5,8c-1.6,0.4,0-5.8,0-8.4c0-3.4-1.1-8.9-0.9-9.8
	C301.2,330.8,304.7,329.7,305,332z"/>
<linearGradient id="SVGID_32_" gradientUnits="userSpaceOnUse" x1="323.9418" y1="-1004.9817" x2="294.2008" y2="-1059.8617" gradientTransform="matrix(1 0 0 -1 0 -718.2999)">
	<stop  offset="0" style="stop-color:#E5C9B5"/>
	<stop  offset="1" style="stop-color:#A88C55"/>
</linearGradient>
<path class="st31" d="M295.1,313.6c2.5-1.9,5.4-1.6,8.3-0.3c5.6,2.7,10.6,10.7,12.3,13.2c2.6,3.7-11.4,13.8-13.9,11.3
	C293.8,329.7,291.6,316.2,295.1,313.6z"/>
<linearGradient id="SVGID_33_" gradientUnits="userSpaceOnUse" x1="272.2691" y1="-694.3388" x2="331.4761" y2="-785.3775" gradientTransform="matrix(1 0 0 -1 0 -718.2999)">
	<stop  offset="0" style="stop-color:#E5C9B5"/>
	<stop  offset="0.1608" style="stop-color:#E5C9B5"/>
	<stop  offset="0.3694" style="stop-color:#D7AB7C"/>
	<stop  offset="0.6043" style="stop-color:#D7AB7C"/>
	<stop  offset="0.8566" style="stop-color:#A88C55"/>
	<stop  offset="1" style="stop-color:#A88C55"/>
</linearGradient>
<path class="st32" d="M296.8,98.8c2.2-25.2-8.6-44.9-3.8-65.2C297.9,13.4,336.9,0,342.7,0s-3.7,29.4-4.1,43.5s-18,40.4-17.5,44.3
	C321.5,91.8,296.4,102.8,296.8,98.8z"/>
<linearGradient id="SVGID_34_" gradientUnits="userSpaceOnUse" x1="321.097" y1="-780.0914" x2="320.388" y2="-906.2589" gradientTransform="matrix(1 0 0 -1 0 -718.2999)">
	<stop  offset="0" style="stop-color:#E5C9B5"/>
	<stop  offset="1" style="stop-color:#A88C55"/>
</linearGradient>
<path class="st33" d="M371.6,155.3c-1.3-4.2-4.5-15.5-5.9-22.9c-1.3-5.5-3.4-6-4.1-11.3c-2.2-18.1-36.4-39-58.9-32.4
	c-21.8,6.4-33.1,23.6-33.1,45.4c0,19.3,9.6,36.9,26.5,40.7c12.3,7.9,25.6,8.6,33,7.8C342,181.4,372.9,159.8,371.6,155.3z"/>
<linearGradient id="SVGID_35_" gradientUnits="userSpaceOnUse" x1="353.9274" y1="-842.7979" x2="354.1964" y2="-859.7769" gradientTransform="matrix(1 0 0 -1 0 -718.2999)">
	<stop  offset="0" style="stop-color:#FAEBD9"/>
	<stop  offset="1" style="stop-color:#FAEBD9"/>
</linearGradient>
<path class="st34" d="M354.1,149.2c6.7,0,12.1-6,12.1-13.5c0-7.4-5.4-13.5-12.1-13.5c-6.7,0-12.1,6-12.1,13.5
	C342,143.1,347.4,149.2,354.1,149.2z"/>
<linearGradient id="SVGID_36_" gradientUnits="userSpaceOnUse" x1="352.6049" y1="-844.9504" x2="353.36" y2="-853.8635" gradientTransform="matrix(1 0 0 -1 0 -718.2999)">
	<stop  offset="0" style="stop-color:#92AAB7"/>
	<stop  offset="1" style="stop-color:#7C6769"/>
</linearGradient>
<path class="st35" d="M353.5,147.6c5.4,0,9.8-4.4,9.8-9.9c0-5.5-4.4-9.9-9.8-9.9s-9.8,4.4-9.8,9.9
	C343.8,143.1,348.1,147.6,353.5,147.6z"/>
<linearGradient id="SVGID_37_" gradientUnits="userSpaceOnUse" x1="352.6924" y1="-845.9965" x2="353.3764" y2="-854.0605" gradientTransform="matrix(1 0 0 -1 0 -718.2999)">
	<stop  offset="0" style="stop-color:#92AAB7"/>
	<stop  offset="1" style="stop-color:#828282"/>
</linearGradient>
<path class="st36" d="M353.5,146.6c4.9,0,8.8-4,8.8-9c0-5-3.9-9-8.8-9s-8.8,4-8.8,9C344.7,142.6,348.7,146.6,353.5,146.6z"/>
<linearGradient id="SVGID_38_" gradientUnits="userSpaceOnUse" x1="355.1553" y1="-849.1254" x2="350.7733" y2="-860.0034" gradientTransform="matrix(1 0 0 -1 0 -718.2999)">
	<stop  offset="0" style="stop-color:#8D6B27"/>
	<stop  offset="1" style="stop-color:#1C120D"/>
</linearGradient>
<path class="st37" d="M352,146c3.6,0,6.5-3.2,6.5-7.2c0-4-2.9-7.2-6.5-7.2c-3.6,0-6.5,3.2-6.5,7.2C345.5,142.7,348.4,146,352,146z"
	/>
<linearGradient id="SVGID_39_" gradientUnits="userSpaceOnUse" x1="356.5956" y1="-849.6933" x2="356.9207" y2="-854.6713" gradientTransform="matrix(1 0 0 -1 0 -718.2999)">
	<stop  offset="0" style="stop-color:#FAEBD9"/>
	<stop  offset="1" style="stop-color:#FAEBD9"/>
</linearGradient>
<path class="st38" d="M359.1,134.6c0,1.4-1,2.5-2.3,2.5c-1.3,0-2.3-1.1-2.3-2.5c0-1.4,1-2.5,2.3-2.5
	C358.1,132.1,359.1,133.2,359.1,134.6z"/>
<linearGradient id="SVGID_40_" gradientUnits="userSpaceOnUse" x1="357.7471" y1="-785.2917" x2="357.0801" y2="-904.0019" gradientTransform="matrix(1 0 0 -1 0 -718.2999)">
	<stop  offset="0" style="stop-color:#E5C9B5"/>
	<stop  offset="1" style="stop-color:#A88C55"/>
</linearGradient>
<path class="st39" d="M347.2,176c6.4,4.6,13.9,2.9,20.8-6.8c6.9-9.7,8.3-21.7,2.1-26.5c-5.4-4.1-7.8,8.1-24,9.4
	C336.4,153,340.8,171.5,347.2,176z"/>
<linearGradient id="SVGID_41_" gradientUnits="userSpaceOnUse" x1="309.1425" y1="-853.186" x2="307.2555" y2="-865.314" gradientTransform="matrix(1 0 0 -1 0 -718.2999)">
	<stop  offset="0" style="stop-color:#FAEBD9"/>
	<stop  offset="1" style="stop-color:#FAEBD9"/>
</linearGradient>
<path class="st40" d="M307.9,157.9c7.6,0,13.8-6.7,13.8-15.1s-6.2-15-13.8-15c-7.6,0-13.8,6.7-13.8,15S300.3,157.9,307.9,157.9z"/>
<linearGradient id="SVGID_42_" gradientUnits="userSpaceOnUse" x1="307.3405" y1="-853.3099" x2="306.8875" y2="-866.0009" gradientTransform="matrix(1 0 0 -1 0 -718.2999)">
	<stop  offset="0" style="stop-color:#92AAB7"/>
	<stop  offset="1" style="stop-color:#7C6769"/>
</linearGradient>
<path class="st41" d="M306.9,157.8c6.1,0,11.1-5,11.1-11.1c0-6.1-5-11.1-11.1-11.1s-11.1,5-11.1,11.1
	C295.8,152.8,300.8,157.8,306.9,157.8z"/>
<linearGradient id="SVGID_43_" gradientUnits="userSpaceOnUse" x1="307.301" y1="-854.4299" x2="306.8911" y2="-865.8999" gradientTransform="matrix(1 0 0 -1 0 -718.2999)">
	<stop  offset="0" style="stop-color:#92AAB7"/>
	<stop  offset="1" style="stop-color:#828282"/>
</linearGradient>
<path class="st42" d="M306.9,156.7c5.5,0,10-4.5,10-10c0-5.5-4.5-10-10-10c-5.5,0-10,4.5-10,10C296.9,152.2,301.4,156.7,306.9,156.7
	z"/>
<linearGradient id="SVGID_44_" gradientUnits="userSpaceOnUse" x1="305.7187" y1="-851.0826" x2="306.6227" y2="-864.9516" gradientTransform="matrix(1 0 0 -1 0 -718.2999)">
	<stop  offset="0" style="stop-color:#8D6B27"/>
	<stop  offset="1" style="stop-color:#1C120D"/>
</linearGradient>
<path class="st43" d="M306.6,153.8c4,0,7.2-3.5,7.2-7.9c0-4.3-3.2-7.9-7.2-7.9c-4,0-7.2,3.5-7.2,7.9
	C299.3,150.3,302.6,153.8,306.6,153.8z"/>
<linearGradient id="SVGID_45_" gradientUnits="userSpaceOnUse" x1="312.7816" y1="-856.218" x2="313.0806" y2="-860.799" gradientTransform="matrix(1 0 0 -1 0 -718.2999)">
	<stop  offset="0" style="stop-color:#FAEBD9"/>
	<stop  offset="1" style="stop-color:#FAEBD9"/>
</linearGradient>
<path class="st44" d="M315.5,142.3c0,1.4-1.1,2.6-2.4,2.6s-2.4-1.2-2.4-2.6c0-1.4,1.1-2.6,2.4-2.6S315.5,140.8,315.5,142.3z"/>
<linearGradient id="SVGID_46_" gradientUnits="userSpaceOnUse" x1="304.9939" y1="-770.606" x2="304.2489" y2="-903.1459" gradientTransform="matrix(1 0 0 -1 0 -718.2999)">
	<stop  offset="0" style="stop-color:#E5C9B5"/>
	<stop  offset="0.2379" style="stop-color:#D7AB7C"/>
	<stop  offset="0.729" style="stop-color:#D7AB7C"/>
	<stop  offset="1" style="stop-color:#A88C55"/>
</linearGradient>
<path class="st45" d="M331.2,190.8c-15.6-4.8-26.7-2.9-36.4-5.5c-16.8-4.7-21.5-24.4-22.8-34.1c-1.5-11.1,18.8,7.3,44.5,3.6
	C337.7,151.6,341.9,194,331.2,190.8z"/>
<linearGradient id="SVGID_47_" gradientUnits="userSpaceOnUse" x1="358.0886" y1="-929.5028" x2="341.4236" y2="-901.4258" gradientTransform="matrix(1 0 0 -1 0 -718.2999)">
	<stop  offset="0" style="stop-color:#E5C9B5"/>
	<stop  offset="1" style="stop-color:#E5C9B5"/>
</linearGradient>
<path class="st46" d="M357,174.5c5.2,5.6,7.2,15.9,8.1,21.9c0.4,2.6-4.5,8.3-7.7,10.9c-4.7,3.7-11.4,0.5-22.2-6.7
	c-13.5-9.1-13.5-14.3-12.4-31.8C323.8,154.3,346.7,163.4,357,174.5z"/>
<linearGradient id="SVGID_48_" gradientUnits="userSpaceOnUse" x1="350.8595" y1="-932.7342" x2="338.1845" y2="-911.0722" gradientTransform="matrix(1 0 0 -1 0 -718.2999)">
	<stop  offset="0" style="stop-color:#E5C9B5"/>
	<stop  offset="1" style="stop-color:#E5C9B5"/>
</linearGradient>
<path class="st47" d="M335,197.2c-7.6-5.8-10.7-11.3-12.7-17.9c0.2,8.4,2.7,14.4,12.8,21.3c10.8,7.2,17.5,10.4,22.2,6.7
	c0.3-0.2,0.5-0.4,0.8-0.6C353.4,208.4,345.7,205.3,335,197.2z"/>
<linearGradient id="SVGID_49_" gradientUnits="userSpaceOnUse" x1="338.6051" y1="-932.9941" x2="345.4771" y2="-901.9492" gradientTransform="matrix(1 0 0 -1 0 -718.2999)">
	<stop  offset="0" style="stop-color:#E5C9B5"/>
	<stop  offset="1" style="stop-color:#E5C9B5"/>
</linearGradient>
<path class="st48" d="M356.6,172.8c4.5,6.5,7.7,16.8,8.4,23.7c0.2,1.4-2.8,2.9-4,3.7c-5.4,3.8-16.2-3.9-26.2-12.3
	c-8.5-7.1-11.6-18.7-6.2-22.4C334,161.8,350.8,164.5,356.6,172.8z"/>
<linearGradient id="SVGID_50_" gradientUnits="userSpaceOnUse" x1="342.1619" y1="-925.618" x2="343.7769" y2="-901.1241" gradientTransform="matrix(1 0 0 -1 0 -718.2999)">
	<stop  offset="0" style="stop-color:#7C5D2B"/>
	<stop  offset="0.3353" style="stop-color:#7C5D2B"/>
	<stop  offset="0.5807" style="stop-color:#7C5D2B"/>
	<stop  offset="0.7968" style="stop-color:#5B4135"/>
	<stop  offset="0.996" style="stop-color:#4D3212"/>
	<stop  offset="1" style="stop-color:#4D3212"/>
</linearGradient>
<path class="st49" d="M354.8,172.8c5.5,7.9,9.9,21.8,4.9,25.3s-15.1-7.6-25-15c-8.4-6.4-11.5-13.8-6.4-17.4
	C333.4,162.3,349.3,164.9,354.8,172.8z"/>
<linearGradient id="SVGID_51_" gradientUnits="userSpaceOnUse" x1="336.9771" y1="-926.5164" x2="342.4831" y2="-902.4803" gradientTransform="matrix(1 0 0 -1 0 -718.2999)">
	<stop  offset="0" style="stop-color:#BD957C"/>
	<stop  offset="0.2439" style="stop-color:#BD957C"/>
	<stop  offset="0.4226" style="stop-color:#BD957C"/>
	<stop  offset="0.5804" style="stop-color:#A68369"/>
	<stop  offset="0.7262" style="stop-color:#8D6B27"/>
	<stop  offset="0.8631" style="stop-color:#7C5D2B"/>
	<stop  offset="0.9927" style="stop-color:#5B4135"/>
	<stop  offset="1" style="stop-color:#5B4135"/>
</linearGradient>
<path class="st50" d="M326,169.2c-0.8,3.9,2,12.3,8.3,17c9.4,7.1,19.4,14.7,24.7,12.3c3.1-6.4-3.5-15.2-7.8-21.4
	C345.7,169.4,331.4,166,326,169.2z"/>
<linearGradient id="SVGID_52_" gradientUnits="userSpaceOnUse" x1="367.7668" y1="-909.5222" x2="346.2118" y2="-911.7592" gradientTransform="matrix(1 0 0 -1 0 -718.2999)">
	<stop  offset="0" style="stop-color:#BD957C"/>
	<stop  offset="0.3223" style="stop-color:#7C5D2B"/>
	<stop  offset="0.6534" style="stop-color:#4D3212"/>
	<stop  offset="0.8873" style="stop-color:#150A07"/>
	<stop  offset="1" style="stop-color:#000000"/>
</linearGradient>
<path class="st51" d="M339.4,188.7c0.4-0.8,6.5-0.3,9,1.3c2.4,1.6,8.2,6.8,7,8.1C354.2,199.5,338.1,191.2,339.4,188.7z"/>
<linearGradient id="SVGID_53_" gradientUnits="userSpaceOnUse" x1="347.9416" y1="-922.6619" x2="357.1855" y2="-907.6599" gradientTransform="matrix(1 0 0 -1 0 -718.2999)">
	<stop  offset="0" style="stop-color:#BD957C"/>
	<stop  offset="0.3223" style="stop-color:#7C5D2B"/>
	<stop  offset="0.6534" style="stop-color:#4D3212"/>
	<stop  offset="0.8873" style="stop-color:#150A07"/>
	<stop  offset="1" style="stop-color:#000000"/>
</linearGradient>
<path class="st52" d="M351.8,188.2c0,2.2,3.4,6.1,5.4,9.2c1.1,1.7,2.9-2.8,0.6-6.7C355.5,186.9,351.8,187.4,351.8,188.2z"/>
<linearGradient id="SVGID_54_" gradientUnits="userSpaceOnUse" x1="366.0062" y1="-899.9542" x2="372.3832" y2="-883.4381" gradientTransform="matrix(1 0 0 -1 0 -718.2999)">
	<stop  offset="0" style="stop-color:#E5C9B5"/>
	<stop  offset="1" style="stop-color:#E5C9B5"/>
</linearGradient>
<path class="st53" d="M364.1,167.3c-0.4,3.1-0.7,7.4,0,10.1c0.7,2.7,4,5,7.9,3.1c3.5-1.8,8.3-10.2,0.8-18.1
	C369.7,159.7,364.1,165.1,364.1,167.3z"/>
<linearGradient id="SVGID_55_" gradientUnits="userSpaceOnUse" x1="365.6485" y1="-899.8159" x2="372.0255" y2="-883.2998" gradientTransform="matrix(1 0 0 -1 0 -718.2999)">
	<stop  offset="0" style="stop-color:#E5C9B5"/>
	<stop  offset="1" style="stop-color:#E5C9B5"/>
</linearGradient>
<path class="st54" d="M369.1,178.3c-0.5-2.3,1.6-7.5,2.7-9.8c0.8-1.8,1.2-4,2-5c-0.3-0.4-0.6-0.7-0.9-1.1c-3.1-2.6-8.7,2.7-8.7,4.9
	c-0.4,3.1-0.7,7.4,0,10.1s4,5,7.9,3.1c0.6-0.3,1.2-0.8,1.8-1.4C371.6,180.4,369.5,180.2,369.1,178.3z"/>
<linearGradient id="SVGID_56_" gradientUnits="userSpaceOnUse" x1="350.852" y1="-899.4062" x2="341.989" y2="-878.9422" gradientTransform="matrix(1 0 0 -1 0 -718.2999)">
	<stop  offset="0" style="stop-color:#E5C9B5"/>
	<stop  offset="1" style="stop-color:#E5C9B5"/>
</linearGradient>
<path class="st55" d="M367.8,168.9c1.8,8.1-0.5,11.3-4.3,12.7c-3.7,1.4-29-0.6-38.5-9.8c-3.2-3.2-3.3-11.1,6.7-11.1
	S366.4,165.4,367.8,168.9z"/>
<linearGradient id="SVGID_57_" gradientUnits="userSpaceOnUse" x1="351.5181" y1="-899.2306" x2="342.8201" y2="-879.1446" gradientTransform="matrix(1 0 0 -1 0 -718.2999)">
	<stop  offset="0" style="stop-color:#E5C9B5"/>
	<stop  offset="1" style="stop-color:#E5C9B5"/>
</linearGradient>
<path class="st56" d="M368,169.5c0-0.2-0.1-0.4-0.1-0.6c0,0,0-0.1-0.1-0.2c0-0.1-0.1-0.1-0.1-0.1c0,0,0,0,0,0
	c-0.1-0.1-0.2-0.2-0.3-0.3c-3.8-3.4-26.3-7.5-35.6-7.5c-0.5,0-1,0-1.5,0.1c16.3,8.1,31.9,11.6,37,14.7c-0.8,2.3-2.5,3.6-4.6,4.4
	c-3.4,1.3-24.1-0.1-36-6.6c10.5,8,33.4,9.8,36.9,8.4C367.2,180.2,369.5,177.2,368,169.5z"/>
<linearGradient id="SVGID_58_" gradientUnits="userSpaceOnUse" x1="327.2817" y1="-893.7103" x2="325.8587" y2="-890.4243" gradientTransform="matrix(1 0 0 -1 0 -718.2999)">
	<stop  offset="0" style="stop-color:#E5C9B5"/>
	<stop  offset="1" style="stop-color:#E5C9B5"/>
</linearGradient>
<path class="st57" d="M328,171.4c-2.6,0.1-3,2.6-2.8,5.2c0.1,2.2-1.6-1.3-0.5-4.2C325.8,169.8,330.3,171.3,328,171.4z"/>
<linearGradient id="SVGID_59_" gradientUnits="userSpaceOnUse" x1="351.8547" y1="-835.5688" x2="353.9647" y2="-854.3908" gradientTransform="matrix(1 0 0 -1 0 -718.2999)">
	<stop  offset="0" style="stop-color:#E5C9B5"/>
	<stop  offset="1" style="stop-color:#A88C55"/>
</linearGradient>
<path class="st58" d="M342.5,133c4.2-7.4,15.2-7.3,22-4.5c2.5,1.5,5.5-6.5-1.3-10.3c-6.8-3.8-18.4,0.1-22.5,9.9
	S340.7,136.1,342.5,133z"/>
<linearGradient id="SVGID_60_" gradientUnits="userSpaceOnUse" x1="324.6911" y1="-836.0628" x2="350.7121" y2="-886.3508" gradientTransform="matrix(1 0 0 -1 0 -718.2999)">
	<stop  offset="0" style="stop-color:#D7AB7C"/>
	<stop  offset="0.1496" style="stop-color:#D7AB7C"/>
	<stop  offset="0.3549" style="stop-color:#D7AB7C"/>
	<stop  offset="0.4625" style="stop-color:#A88C55"/>
	<stop  offset="0.5392" style="stop-color:#A88C55"/>
	<stop  offset="0.6446" style="stop-color:#A88C55"/>
	<stop  offset="0.7667" style="stop-color:#9B7760"/>
	<stop  offset="0.9002" style="stop-color:#7C5D2B"/>
	<stop  offset="1" style="stop-color:#5B4135"/>
</linearGradient>
<path class="st59" d="M372.4,161.2c-4.3-2.7-19.3-5.2-25.3-23.8c-0.3-0.7-2.9-14.1-2.7-18.6c0.1-2.6-38.3,4.7-41,5.6
	c-2.8,1,16.8,10.1,21.1,18.5c4.1,7.9,15.1,19.7,23.2,24.4C355.9,172,374,163,372.4,161.2z"/>
<linearGradient id="SVGID_61_" gradientUnits="userSpaceOnUse" x1="360.3375" y1="-877.4559" x2="360.3375" y2="-891.5679" gradientTransform="matrix(1 0 0 -1 0 -718.2999)">
	<stop  offset="0" style="stop-color:#BD957C"/>
	<stop  offset="1" style="stop-color:#5B4135"/>
</linearGradient>
<path class="st60" d="M374.2,162.3c-1.1-3.2-4.9,0-7.9,1.8c-4,2.3-19.7-0.8-20.3,2.7c-0.6,3.4,12.3,11,20.7,9.7
	C375.5,175,375.3,165.4,374.2,162.3z"/>
<linearGradient id="SVGID_62_" gradientUnits="userSpaceOnUse" x1="360.2864" y1="-880.8289" x2="360.2864" y2="-891.3709" gradientTransform="matrix(1 0 0 -1 0 -718.2999)">
	<stop  offset="0" style="stop-color:#BD957C"/>
	<stop  offset="1" style="stop-color:#5B4135"/>
</linearGradient>
<path class="st61" d="M367.4,174.7c-6.4,1-13.4-6-18.4-7.3c-1-0.2-3-1.3-3.1-0.7c-0.6,3.4,13.4,10.1,21.8,8.6
	c7.1-1.2,7.1-7.9,6.8-11.5C374,167.5,372.7,173.9,367.4,174.7z"/>
<linearGradient id="SVGID_63_" gradientUnits="userSpaceOnUse" x1="300.5219" y1="-842.2259" x2="303.5919" y2="-857.0989" gradientTransform="matrix(1 0 0 -1 0 -718.2999)">
	<stop  offset="0" style="stop-color:#E5C9B5"/>
	<stop  offset="1" style="stop-color:#A88C55"/>
</linearGradient>
<path class="st62" d="M319.7,135.7c-4.4-3-11.7-4.9-19.2-0.6c-7.5,4.3-19.5,9.2-15.4-2.3c4-11,19-11.7,26.9-8.8
	C321.7,127.5,323.9,138.5,319.7,135.7z"/>
<linearGradient id="SVGID_64_" gradientUnits="userSpaceOnUse" x1="302.84" y1="-831.3519" x2="302.84" y2="-836.7149" gradientTransform="matrix(1 0 0 -1 0 -718.2999)">
	<stop  offset="0" style="stop-color:#BD957C"/>
	<stop  offset="1" style="stop-color:#5B4135"/>
</linearGradient>
<path class="st63" d="M315,118.6c0,2.2-4.8,0.8-9.8,0.8s-14.5,2.3-14.5,0.2c0-2.2,10.3-6.7,15.3-6.7C311,112.8,315,116.4,315,118.6z
	"/>
<linearGradient id="SVGID_65_" gradientUnits="userSpaceOnUse" x1="319.0192" y1="-807.4819" x2="239.1712" y2="-804.8015" gradientTransform="matrix(1 0 0 -1 0 -718.2999)">
	<stop  offset="0" style="stop-color:#E5C9B5"/>
	<stop  offset="1" style="stop-color:#A88C55"/>
</linearGradient>
<path class="st64" d="M230.4,93.9c7.2,10.3,18,18.9,27.4,21.1c9.4,2.2,16.1,2.1,19.5,3.7c3.5,1.6,16.8-12.3,14.7-17.8
	c-2.1-5.5-3.9-32.3-24.6-37.7c-30.1-7.9-73-10.4-75.8-7.8C188.7,57.8,223.2,83.6,230.4,93.9z"/>
<linearGradient id="SVGID_66_" gradientUnits="userSpaceOnUse" x1="277.4603" y1="-811.9857" x2="221.4512" y2="-800.8346" gradientTransform="matrix(1 0 0 -1 0 -718.2999)">
	<stop  offset="0" style="stop-color:#E5C9B5"/>
	<stop  offset="1" style="stop-color:#E5C9B5"/>
</linearGradient>
<path class="st65" d="M282.6,105.6c-1.2-5.7-8.7-31-24.9-37.4c-17-6.8-55.4-12-63.6-10.6c-4.1,0.7,27.6,24.2,33.8,30.8
	c7.1,7.6,12.3,18,24.4,22.7c8.2,3.3,17.5,4.6,25,3.7C280.8,114.4,282.9,106.9,282.6,105.6z"/>
<linearGradient id="SVGID_67_" gradientUnits="userSpaceOnUse" x1="347.9157" y1="-824.2368" x2="349.8427" y2="-830.7407" gradientTransform="matrix(1 0 0 -1 0 -718.2999)">
	<stop  offset="0" style="stop-color:#BD957C"/>
	<stop  offset="1" style="stop-color:#5B4135"/>
</linearGradient>
<path class="st66" d="M358.1,110c1.4,3.4-2.6,1.7-6.8,3c-4.2,1.4-8.9,4.3-9.6,2.2c-0.7-2.1,2.7-6.6,6.9-8
	C352.8,105.9,356.6,106.4,358.1,110z"/>
</svg>
