<?xml version="1.0" encoding="utf-8"?>
<!-- Generator: Adobe Illustrator 23.0.1, SVG Export Plug-In . SVG Version: 6.00 Build 0)  -->
<svg version="1.1" id="圖層_1" xmlns="http://www.w3.org/2000/svg" xmlns:xlink="http://www.w3.org/1999/xlink" x="0px" y="0px"
	 viewBox="0 0 471 474" style="enable-background:new 0 0 471 474;" xml:space="preserve">
<style type="text/css">
	.st0{fill:#51B9C8;}
	.st1{opacity:0.34;fill:#FFFFFF;}
	.st2{fill:#34A7AD;}
	.st3{fill:url(#SVGID_1_);}
	.st4{fill:url(#SVGID_2_);}
	.st5{fill:url(#SVGID_3_);}
	.st6{fill:url(#SVGID_4_);}
	.st7{fill:url(#SVGID_5_);}
	.st8{fill:url(#SVGID_6_);}
	.st9{fill:url(#SVGID_7_);}
	.st10{fill:url(#SVGID_8_);}
	.st11{fill:url(#SVGID_9_);}
	.st12{fill:url(#SVGID_10_);}
	.st13{fill:url(#SVGID_11_);}
	.st14{fill:url(#SVGID_12_);}
	.st15{fill:url(#SVGID_13_);}
	.st16{fill:url(#SVGID_14_);}
	.st17{fill:url(#SVGID_15_);}
	.st18{fill:url(#SVGID_16_);}
	.st19{fill:url(#SVGID_17_);}
	.st20{fill:url(#SVGID_18_);}
	.st21{fill:url(#SVGID_19_);}
	.st22{fill:url(#SVGID_20_);}
	.st23{fill:url(#SVGID_21_);}
	.st24{fill:url(#SVGID_22_);}
	.st25{fill:url(#SVGID_23_);}
	.st26{fill:url(#SVGID_24_);}
	.st27{fill:url(#SVGID_25_);}
	.st28{fill:url(#SVGID_26_);}
	.st29{fill:url(#SVGID_27_);}
	.st30{fill:url(#SVGID_28_);}
	.st31{fill:url(#SVGID_29_);}
	.st32{fill:url(#SVGID_30_);}
	.st33{fill:url(#SVGID_31_);}
	.st34{fill:url(#SVGID_32_);}
	.st35{fill:url(#SVGID_33_);}
	.st36{fill:url(#SVGID_34_);}
	.st37{fill:url(#SVGID_35_);}
	.st38{fill:url(#SVGID_36_);}
	.st39{fill:url(#SVGID_37_);}
	.st40{fill:url(#SVGID_38_);}
	.st41{fill:url(#SVGID_39_);}
	.st42{fill:url(#SVGID_40_);}
	.st43{fill:url(#SVGID_41_);}
	.st44{fill:url(#SVGID_42_);}
	.st45{fill:url(#SVGID_43_);}
	.st46{fill:url(#SVGID_44_);}
	.st47{fill:url(#SVGID_45_);}
	.st48{fill:url(#SVGID_46_);}
	.st49{fill:url(#SVGID_47_);}
	.st50{fill:url(#SVGID_48_);}
	.st51{fill:url(#SVGID_49_);}
	.st52{fill:url(#SVGID_50_);}
	.st53{fill:url(#SVGID_51_);}
	.st54{fill:url(#SVGID_52_);}
	.st55{fill:url(#SVGID_53_);}
	.st56{fill:url(#SVGID_54_);}
	.st57{fill:url(#SVGID_55_);}
	.st58{fill:url(#SVGID_56_);}
	.st59{fill:url(#SVGID_57_);}
	.st60{fill:url(#SVGID_58_);}
	.st61{fill:url(#SVGID_59_);}
	.st62{fill:url(#SVGID_60_);}
	.st63{fill:url(#SVGID_61_);}
	.st64{fill:url(#SVGID_62_);}
	.st65{fill:url(#SVGID_63_);}
	.st66{fill:url(#SVGID_64_);}
	.st67{fill:url(#SVGID_65_);}
	.st68{fill:url(#SVGID_66_);}
	.st69{fill:url(#SVGID_67_);}
	.st70{fill:#EFA622;}
	.st71{fill:#F2D447;}
	.st72{opacity:0.21;fill:#0D0C1A;}
</style>
<g>
	<polygon class="st0" points="343.4,89.3 334,65.9 324.9,89.3 324.9,89.4 328.1,95.4 340.2,95.4 343.3,89.4 	"/>
	<g>
		<polygon class="st1" points="343.4,89.3 324.9,89.3 328.1,95.4 340.2,95.4 		"/>
		<polygon class="st1" points="328.1,95.4 340.2,95.4 334,65.9 		"/>
		<polygon class="st2" points="324.9,89.3 329.3,89.3 334,65.9 		"/>
	</g>
</g>
<linearGradient id="SVGID_1_" gradientUnits="userSpaceOnUse" x1="207.4402" y1="1105.515" x2="8.3018" y2="1056.556" gradientTransform="matrix(1 0 0 1 0 -715.9999)">
	<stop  offset="0" style="stop-color:#E77A21"/>
	<stop  offset="0.2401" style="stop-color:#E47922"/>
	<stop  offset="0.4159" style="stop-color:#DB7523"/>
	<stop  offset="0.5711" style="stop-color:#CB6F26"/>
	<stop  offset="0.7146" style="stop-color:#B4662B"/>
	<stop  offset="0.8498" style="stop-color:#975B30"/>
	<stop  offset="0.9774" style="stop-color:#744D37"/>
	<stop  offset="1" style="stop-color:#6D4A38"/>
</linearGradient>
<path class="st3" d="M154.9,330.1c-2.3,29.4-16.1,47.9-36.9,48.4c-42.7,0.9-93.3-47.4-105-65c-9.2-14-17.6,3.7-10.2,20.9
	c7.4,17.2,42.4,64.4,98.5,76.2c40.8,8.6,76.6-3.9,94.7-9.6C214.1,395.2,155.5,322.2,154.9,330.1z"/>
<linearGradient id="SVGID_2_" gradientUnits="userSpaceOnUse" x1="356.1965" y1="929.5571" x2="336.4185" y2="962.0672" gradientTransform="matrix(1 0 0 1 0 -715.9999)">
	<stop  offset="0" style="stop-color:#FFC78F"/>
	<stop  offset="1" style="stop-color:#E77A21"/>
</linearGradient>
<path class="st4" d="M307.5,217.7c-6.1,25.8,9.2,31.7,31.5,40.5c10,3.9,30.7,14.9,33.3,5.8c2.6-9.2-12-21.9-28.5-33
	C322.7,216.7,310.8,203.7,307.5,217.7z"/>
<linearGradient id="SVGID_3_" gradientUnits="userSpaceOnUse" x1="401.757" y1="956.7877" x2="382.049" y2="989.1816" gradientTransform="matrix(1 0 0 1 0 -715.9999)">
	<stop  offset="0" style="stop-color:#FFC78F"/>
	<stop  offset="1" style="stop-color:#E77A21"/>
</linearGradient>
<path class="st5" d="M427.2,248.5c-10.2,3.2-53.6,19.4-60.2,19.1c-3.1-0.2-3.2-7.5-3.7-14.4c-0.5-6.6,7-4.9,19.9-7.4
	c11.9-2.3,35.3-5.9,44.2-5.8C432.3,240.1,433.2,246.6,427.2,248.5z"/>
<linearGradient id="SVGID_4_" gradientUnits="userSpaceOnUse" x1="433.5952" y1="954.6512" x2="436.0451" y2="943.0902" gradientTransform="matrix(1 0 0 1 0 -715.9999)">
	<stop  offset="0" style="stop-color:#E77A21"/>
	<stop  offset="0.3805" style="stop-color:#BB6929"/>
	<stop  offset="1" style="stop-color:#6D4A38"/>
</linearGradient>
<path class="st6" d="M425.4,239.8c0.8-3.2,5.3-7,7.2-8.6c1.4-1.3,9.5-6.2,11.2-5.5c2.1,0.8-5.5,7.3-7.8,9.3c-2.8,2.4-5.2,5.9-6,6.5
	C428.7,242.4,424.9,242.3,425.4,239.8z"/>
<linearGradient id="SVGID_5_" gradientUnits="userSpaceOnUse" x1="452.0618" y1="945.5102" x2="456.1198" y2="951.4052" gradientTransform="matrix(1 0 0 1 0 -715.9999)">
	<stop  offset="0" style="stop-color:#E77A21"/>
	<stop  offset="0.3805" style="stop-color:#BB6929"/>
	<stop  offset="1" style="stop-color:#6D4A38"/>
</linearGradient>
<path class="st7" d="M446.7,237.3c2.1-0.3,7.4,0.5,10.5-0.7c1.6-0.6,6.6-5.4,6.6-6.9c0-1.7-5.6,1.4-8.1,2c-3.3,0.8-9,0.9-9.7,1.4
	C444.6,233.9,444.4,237.6,446.7,237.3z"/>
<linearGradient id="SVGID_6_" gradientUnits="userSpaceOnUse" x1="455.5331" y1="948.824" x2="458.5961" y2="954.49" gradientTransform="matrix(1 0 0 1 0 -715.9999)">
	<stop  offset="0" style="stop-color:#E77A21"/>
	<stop  offset="0.3805" style="stop-color:#BB6929"/>
	<stop  offset="1" style="stop-color:#6D4A38"/>
</linearGradient>
<path class="st8" d="M445.8,240.6c2.5,0.6,5.8,2,10,1.5c3.1-0.4,14.3-5.9,15.1-8.1c0.9-2.6-12.6,1.8-16.2,1.9
	c-3.9,0.1-8.5-0.8-9.6-0.5C443.2,235.9,443,239.9,445.8,240.6z"/>
<linearGradient id="SVGID_7_" gradientUnits="userSpaceOnUse" x1="456.416" y1="952.718" x2="458.56" y2="956.853" gradientTransform="matrix(1 0 0 1 0 -715.9999)">
	<stop  offset="0" style="stop-color:#E77A21"/>
	<stop  offset="0.3805" style="stop-color:#BB6929"/>
	<stop  offset="1" style="stop-color:#6D4A38"/>
</linearGradient>
<path class="st9" d="M446.5,243c2.6,0.8,7.4,1.9,10.2,1.3c2.6-0.5,13.1-4.7,13.8-6.9c0.8-2.6-10.7,1.2-13.3,1.7
	c-3.9,0.8-8.4-0.4-10.7-0.7C444.7,238.2,443.9,242.2,446.5,243z"/>
<linearGradient id="SVGID_8_" gradientUnits="userSpaceOnUse" x1="455.2386" y1="956.2508" x2="458.5226" y2="961.7748" gradientTransform="matrix(1 0 0 1 0 -715.9999)">
	<stop  offset="0" style="stop-color:#E77A21"/>
	<stop  offset="0.3805" style="stop-color:#BB6929"/>
	<stop  offset="1" style="stop-color:#6D4A38"/>
</linearGradient>
<path class="st10" d="M447.7,247c2.1,0.6,6.2,0.1,9.7,0.1c1.8,0,10.4-2.8,11.1-4.6c0.8-2-9.4-0.3-12.3,0.1c-3.5,0.4-7-0.1-8,0.1
	C446.7,243,445.3,246.3,447.7,247z"/>
<linearGradient id="SVGID_9_" gradientUnits="userSpaceOnUse" x1="418.5925" y1="964.3923" x2="451.7745" y2="954.0943" gradientTransform="matrix(1 0 0 1 0 -715.9999)">
	<stop  offset="0.1489" style="stop-color:#FFC78F"/>
	<stop  offset="0.2819" style="stop-color:#FEC288"/>
	<stop  offset="0.4692" style="stop-color:#FAB676"/>
	<stop  offset="0.6886" style="stop-color:#F3A058"/>
	<stop  offset="0.9306" style="stop-color:#EA832E"/>
	<stop  offset="1" style="stop-color:#E77A21"/>
</linearGradient>
<path class="st11" d="M424.7,240.3c6.4-6.6,17-6.6,22.7-7.4c2.6-0.4,4.7,13.9,2.4,14.4c-5.2,1.1-18.1,0.4-22.8,1
	C424.7,248.6,423.1,242,424.7,240.3z"/>
<linearGradient id="SVGID_10_" gradientUnits="userSpaceOnUse" x1="304.5228" y1="1150.4532" x2="281.0188" y2="1093.6803" gradientTransform="matrix(1 0 0 1 0 -715.9999)">
	<stop  offset="0" style="stop-color:#FFC78F"/>
	<stop  offset="1" style="stop-color:#E77A21"/>
</linearGradient>
<path class="st12" d="M325.2,361.1c-4.1,6.3-48.1,82.5-41.8,86.7c5.6,3.8-19.1,6-24.4,3c-5.6-3.2,28.2-38.8,0.4-52.2
	C249.8,394,334.5,346.9,325.2,361.1z"/>
<linearGradient id="SVGID_11_" gradientUnits="userSpaceOnUse" x1="318.3544" y1="1154.2733" x2="292.0754" y2="1090.7993" gradientTransform="matrix(1 0 0 1 0 -715.9999)">
	<stop  offset="0" style="stop-color:#FFC78F"/>
	<stop  offset="1" style="stop-color:#E77A21"/>
</linearGradient>
<path class="st13" d="M337.7,329.5c0.5,20.3-20.6,48.6-54.8,64.5c-22.1,10.3-41.7,3.7-55-16.4c-13.3-20-2.9-38.6,26.2-57.9
	C283.2,300.5,336.9,297.7,337.7,329.5z"/>
<linearGradient id="SVGID_12_" gradientUnits="userSpaceOnUse" x1="301.5688" y1="1154.7527" x2="283.3368" y2="1110.7157" gradientTransform="matrix(1 0 0 1 0 -715.9999)">
	<stop  offset="0" style="stop-color:#FFC78F"/>
	<stop  offset="1" style="stop-color:#E77A21"/>
</linearGradient>
<path class="st14" d="M336.4,451.7c-11.3,0.3-71.6,0-76.5,0s23.7-18.9,27.2-19.7c1.8-0.4,22.1,4.6,46.4,1.9
	C357.9,431,350.3,451.4,336.4,451.7z"/>
<linearGradient id="SVGID_13_" gradientUnits="userSpaceOnUse" x1="362.3259" y1="1137.4043" x2="352.9339" y2="1155.4783" gradientTransform="matrix(1 0 0 1 0 -715.9999)">
	<stop  offset="0" style="stop-color:#EF9244"/>
	<stop  offset="1" style="stop-color:#6D4A38"/>
</linearGradient>
<path class="st15" d="M367.5,452.3H325c-4.3,0-9.8-6.4-9.7-9.3c0.1-5.8,22.3-10.6,31.8-10.9c14.3-0.4,35.4,12,35.4,19.9
	C382.5,453.1,372.2,452.3,367.5,452.3z"/>
<linearGradient id="SVGID_14_" gradientUnits="userSpaceOnUse" x1="305.5179" y1="1167.6094" x2="343.1959" y2="1159.0023" gradientTransform="matrix(1 0 0 1 0 -715.9999)">
	<stop  offset="0" style="stop-color:#EF9244"/>
	<stop  offset="0.2442" style="stop-color:#C87C40"/>
	<stop  offset="0.5895" style="stop-color:#97613C"/>
	<stop  offset="0.8524" style="stop-color:#785039"/>
	<stop  offset="1" style="stop-color:#6D4A38"/>
</linearGradient>
<path class="st16" d="M348.3,452.3H316c-3.2,0-12.8,0.9-12.8-0.2c0-9.3,20.2-16.5,29.1-17.1c9.1-0.6,23,6.8,23.4,13.8
	C355.9,451,351.9,452.3,348.3,452.3z"/>
<linearGradient id="SVGID_15_" gradientUnits="userSpaceOnUse" x1="344.966" y1="1046.0922" x2="330.128" y2="1055.0602" gradientTransform="matrix(1 0 0 1 0 -715.9999)">
	<stop  offset="0" style="stop-color:#BD724A"/>
	<stop  offset="1" style="stop-color:#633F2C"/>
</linearGradient>
<path class="st17" d="M335.9,325c4.2,1.9,5,4.9,5.5,6.5c0.9,3.3-2.3,12.6-9.4,17c-7.2,4.4-14.4,3.7-12.1,0.9
	C322.2,346.6,335.9,325,335.9,325z"/>
<linearGradient id="SVGID_16_" gradientUnits="userSpaceOnUse" x1="148.4365" y1="815.593" x2="253.1895" y2="1023.0451" gradientTransform="matrix(1 0 0 1 0 -715.9999)">
	<stop  offset="0" style="stop-color:#FFD6AD"/>
	<stop  offset="2.790000e-02" style="stop-color:#FCCC9D"/>
	<stop  offset="9.640000e-02" style="stop-color:#F7B67C"/>
	<stop  offset="0.1729" style="stop-color:#F2A360"/>
	<stop  offset="0.2581" style="stop-color:#EE9448"/>
	<stop  offset="0.3557" style="stop-color:#EB8837"/>
	<stop  offset="0.4731" style="stop-color:#E9802A"/>
	<stop  offset="0.631" style="stop-color:#E77B23"/>
	<stop  offset="1" style="stop-color:#E77A21"/>
</linearGradient>
<path class="st18" d="M272.2,152.1c1.8,11-3.4,53.5-8.9,70.7c-9.2,28.4-70.9,37-95.1,74.2c-28.9,44.4-15.3,101.7,35.3,106.3
	c50.6,4.6,123.6-32.7,135.6-84.5c9.8-42.3-6.5-82.2-14.4-98.9s-5.8-20.8-4.3-30.6C321.9,179.5,270.7,142.7,272.2,152.1z"/>
<linearGradient id="SVGID_17_" gradientUnits="userSpaceOnUse" x1="227.4737" y1="986.3027" x2="305.2527" y2="1051.9747" gradientTransform="matrix(1 0 0 1 0 -715.9999)">
	<stop  offset="0.1168" style="stop-color:#EF984E"/>
	<stop  offset="0.1409" style="stop-color:#F09B52"/>
	<stop  offset="0.4007" style="stop-color:#F6B479"/>
	<stop  offset="0.6392" style="stop-color:#FBC796"/>
	<stop  offset="0.8467" style="stop-color:#FED2A7"/>
	<stop  offset="1" style="stop-color:#FFD6AD"/>
</linearGradient>
<path class="st19" d="M339.1,318.9c-12,51.8-85,89.2-135.6,84.5c-8.6-0.8-16.1-3.1-22.5-6.6c74.4-1.7,131.5-85.1,132.5-131.8
	c0.5-22.3-16.7-52.5-13.5-81.3l5.8-13c6.1,5.5,15,15.5,14.5,18.6c-1.5,9.8-3.6,13.9,4.3,30.6C332.6,236.7,348.8,276.6,339.1,318.9z"
	/>
<linearGradient id="SVGID_18_" gradientUnits="userSpaceOnUse" x1="382.8525" y1="1125.3295" x2="255.3025" y2="1076.4905" gradientTransform="matrix(1 0 0 1 0 -715.9999)">
	<stop  offset="0" style="stop-color:#FFC78F"/>
	<stop  offset="1" style="stop-color:#E77A21"/>
</linearGradient>
<path class="st20" d="M338.7,326.7c6.7,3.5,7.2,11.3,5.5,15.8c-2.5,6.7-13.6,9.7-19.2,15.8c-21.8,24.4-88.1,70.3-143.8,38.5
	c9.8-3.7,91.5-65.5,97-70.1c18.6,24.1,58.9,24.5,62.4,7.2C341.1,331.8,339.6,327.9,338.7,326.7z"/>
<linearGradient id="SVGID_19_" gradientUnits="userSpaceOnUse" x1="286.9019" y1="968.8791" x2="225.8448" y2="1080.4841" gradientTransform="matrix(1 0 0 1 0 -715.9999)">
	<stop  offset="0" style="stop-color:#FFD6AD"/>
	<stop  offset="8.330000e-02" style="stop-color:#FAC28F"/>
	<stop  offset="0.1952" style="stop-color:#F4AC6D"/>
	<stop  offset="0.3153" style="stop-color:#EF9A51"/>
	<stop  offset="0.4445" style="stop-color:#EC8C3C"/>
	<stop  offset="0.5871" style="stop-color:#E9822D"/>
	<stop  offset="0.7533" style="stop-color:#E77C24"/>
	<stop  offset="1" style="stop-color:#E77A21"/>
</linearGradient>
<path class="st21" d="M291.5,337.6c1.2,24.5-7.3,42.1-36.1,61.3c-28.9,19.2-68.6,8.1-85.8-11c-16.1-17.9,8.2-55.8,37.1-75
	C235.5,293.7,290,305.8,291.5,337.6z"/>
<linearGradient id="SVGID_20_" gradientUnits="userSpaceOnUse" x1="256.1428" y1="1155.6921" x2="240.1867" y2="1104.3342" gradientTransform="matrix(1 0 0 1 0 -715.9999)">
	<stop  offset="0" style="stop-color:#FFC78F"/>
	<stop  offset="1" style="stop-color:#E77A21"/>
</linearGradient>
<path class="st22" d="M288.9,356.2c-1.5,7.4-64.5,79.2-68.7,85.4c-5.3,7.8-16.1,4.4-21.4,1.4c-5.6-3.2,24-28.4-5.3-39.6
	C172.9,395.4,290.3,349.2,288.9,356.2z"/>
<linearGradient id="SVGID_21_" gradientUnits="userSpaceOnUse" x1="213.688" y1="1135.605" x2="238.736" y2="1185.201" gradientTransform="matrix(1 0 0 1 0 -715.9999)">
	<stop  offset="0" style="stop-color:#FFC78F"/>
	<stop  offset="1" style="stop-color:#E77A21"/>
</linearGradient>
<path class="st23" d="M216.5,470c-4.6-6-8.8-12.1-18.1-27.4c-2.5-4.2,18.7-2.7,21.8-0.9c4.2,2.3,22.3,8.4,39.9,17.6
	C268.9,463.9,221.7,476.7,216.5,470z"/>
<linearGradient id="SVGID_22_" gradientUnits="userSpaceOnUse" x1="268.7289" y1="1165.7463" x2="257.1979" y2="1181.5673" gradientTransform="matrix(1 0 0 1 0 -715.9999)">
	<stop  offset="0" style="stop-color:#EF9244"/>
	<stop  offset="0.2442" style="stop-color:#C87C40"/>
	<stop  offset="0.5895" style="stop-color:#97613C"/>
	<stop  offset="0.8524" style="stop-color:#785039"/>
	<stop  offset="1" style="stop-color:#6D4A38"/>
</linearGradient>
<path class="st24" d="M257.3,448.6c19-0.5,13.9,21.8,13.9,23.2c0,1.4-32.9,0.3-32.9-1.5C238.3,468.4,246.1,448.9,257.3,448.6z"/>
<linearGradient id="SVGID_23_" gradientUnits="userSpaceOnUse" x1="260.2259" y1="1169.2513" x2="239.3949" y2="1182.0474" gradientTransform="matrix(1 0 0 1 0 -715.9999)">
	<stop  offset="0" style="stop-color:#EF9244"/>
	<stop  offset="0.2442" style="stop-color:#C87C40"/>
	<stop  offset="0.5895" style="stop-color:#97613C"/>
	<stop  offset="0.8524" style="stop-color:#785039"/>
	<stop  offset="1" style="stop-color:#6D4A38"/>
</linearGradient>
<path class="st25" d="M242.5,449.1c19-0.5,13.9,21.8,13.9,23.2c0,1.4-33.4,0.7-33.4-1.2C222.9,469.2,231.3,449.3,242.5,449.1z"/>
<linearGradient id="SVGID_24_" gradientUnits="userSpaceOnUse" x1="247.6756" y1="1162.0701" x2="216.8516" y2="1185.642" gradientTransform="matrix(1 0 0 1 0 -715.9999)">
	<stop  offset="0" style="stop-color:#EF9244"/>
	<stop  offset="0.2442" style="stop-color:#C87C40"/>
	<stop  offset="0.5895" style="stop-color:#97613C"/>
	<stop  offset="0.8524" style="stop-color:#785039"/>
	<stop  offset="1" style="stop-color:#6D4A38"/>
</linearGradient>
<path class="st26" d="M226,449.2c19-0.5,14.4,22,14.4,23.4s-21.9-0.7-23.4-1.7c-2.7-1.7-8.1-9-9.3-13.4
	C206.6,453.6,218.6,449.4,226,449.2z"/>
<linearGradient id="SVGID_25_" gradientUnits="userSpaceOnUse" x1="226.1906" y1="1016.735" x2="294.8146" y2="943.222" gradientTransform="matrix(1 0 0 1 0 -715.9999)">
	<stop  offset="0" style="stop-color:#FFC78F"/>
	<stop  offset="1" style="stop-color:#E77A21"/>
</linearGradient>
<path class="st27" d="M294.7,211.9c16.9,23.5,0.4,39.4-14.4,56.8c-10.8,12.7-25.8,20.5-31.4,12.8s5.6-23.4,16.1-38.5
	C278.4,223.7,286.3,200.3,294.7,211.9z"/>
<linearGradient id="SVGID_26_" gradientUnits="userSpaceOnUse" x1="291.5462" y1="969.4185" x2="263.8652" y2="1048.3955" gradientTransform="matrix(1 0 0 1 0 -715.9999)">
	<stop  offset="0" style="stop-color:#FFC78F"/>
	<stop  offset="1" style="stop-color:#E77A21"/>
</linearGradient>
<path class="st28" d="M296.7,321.6c-9.4-5.2-45.5-34.7-48.3-40.7c-2.9-6,1.6-9.3,8.4-8.1c6.8,1.2,11.9,0.1,18.5,10.3
	c6.6,10.1,26.9,29.7,28.7,34.2S299.8,323.3,296.7,321.6z"/>
<linearGradient id="SVGID_27_" gradientUnits="userSpaceOnUse" x1="306.9312" y1="1043.7296" x2="321.4142" y2="1042.5085" gradientTransform="matrix(1 0 0 1 0 -715.9999)">
	<stop  offset="0" style="stop-color:#E77A21"/>
	<stop  offset="0.3805" style="stop-color:#BB6929"/>
	<stop  offset="1" style="stop-color:#6D4A38"/>
</linearGradient>
<path class="st29" d="M309.8,318.5c2,0.8,5.1,3.7,8,6c1.5,1.1,6.9,8.8,6.4,10.6c-0.6,2.1-7.6-4.8-9.7-6.8c-2.6-2.6-6.2-4.6-6.9-5.3
	C306.6,321.6,307.5,317.6,309.8,318.5z"/>
<linearGradient id="SVGID_28_" gradientUnits="userSpaceOnUse" x1="330.9174" y1="1044.4397" x2="317.6574" y2="1054.1976" gradientTransform="matrix(1 0 0 1 0 -715.9999)">
	<stop  offset="0" style="stop-color:#E77A21"/>
	<stop  offset="0.3805" style="stop-color:#BB6929"/>
	<stop  offset="1" style="stop-color:#6D4A38"/>
</linearGradient>
<path class="st30" d="M316.4,327.6c1.4,1.7,3.2,5,4.7,8.3c0.8,1.7,1.4,11.8,0.1,13.1c-1.5,1.6-4.4-7.8-5.3-10.7
	c-1.1-3.5-3.3-7-3.5-8C312.1,328.9,314.8,325.7,316.4,327.6z"/>
<linearGradient id="SVGID_29_" gradientUnits="userSpaceOnUse" x1="316.5683" y1="1044.9962" x2="312.1483" y2="1055.8381" gradientTransform="matrix(1 0 0 1 0 -715.9999)">
	<stop  offset="0" style="stop-color:#E77A21"/>
	<stop  offset="0.3805" style="stop-color:#BB6929"/>
	<stop  offset="1" style="stop-color:#6D4A38"/>
</linearGradient>
<path class="st31" d="M312,328.2c1.6,2.2,5.3,6.2,5.8,9c0.5,2.6-0.5,13.9-2.3,15.4c-2,1.7-2.7-10.4-3.2-13c-0.7-3.9-3.9-6.4-5-8.5
	C306.6,329.5,310.5,326.1,312,328.2z"/>
<linearGradient id="SVGID_30_" gradientUnits="userSpaceOnUse" x1="314.2972" y1="1048.5859" x2="305.7072" y2="1058.26" gradientTransform="matrix(1 0 0 1 0 -715.9999)">
	<stop  offset="0" style="stop-color:#E77A21"/>
	<stop  offset="0.3805" style="stop-color:#BB6929"/>
	<stop  offset="1" style="stop-color:#6D4A38"/>
</linearGradient>
<path class="st32" d="M307.7,330.2c1.2,2.3,4.2,5.1,4.7,9.3c0.4,3.1-1.3,12-3.1,13.3c-2.2,1.5-2.2-8.2-2.9-11.7
	c-0.8-3.9-2.7-9.3-2.7-10.5C303.7,328.7,306.4,327.7,307.7,330.2z"/>
<linearGradient id="SVGID_31_" gradientUnits="userSpaceOnUse" x1="310.0561" y1="1049.5303" x2="300.7151" y2="1057.7872" gradientTransform="matrix(1 0 0 1 0 -715.9999)">
	<stop  offset="0" style="stop-color:#E77A21"/>
	<stop  offset="0.3805" style="stop-color:#BB6929"/>
	<stop  offset="1" style="stop-color:#6D4A38"/>
</linearGradient>
<path class="st33" d="M305,332c0.2,2.1,2.1,7,1.8,10.4c-0.2,1.7-3.6,7.7-5,8c-1.6,0.4,0-5.8,0-8.4c0-3.4-1.1-8.9-0.9-9.8
	C301.2,330.8,304.7,329.7,305,332z"/>
<linearGradient id="SVGID_32_" gradientUnits="userSpaceOnUse" x1="323.9895" y1="1002.7076" x2="294.2485" y2="1057.5876" gradientTransform="matrix(1 0 0 1 0 -715.9999)">
	<stop  offset="0" style="stop-color:#FFC78F"/>
	<stop  offset="1" style="stop-color:#E77A21"/>
</linearGradient>
<path class="st34" d="M295.1,313.6c2.5-1.9,5.4-1.6,8.3-0.3c5.6,2.7,10.6,10.7,12.3,13.2c2.6,3.7-11.4,13.8-13.9,11.3
	C293.8,329.7,291.6,316.2,295.1,313.6z"/>
<linearGradient id="SVGID_33_" gradientUnits="userSpaceOnUse" x1="272.3087" y1="692.0132" x2="331.5157" y2="783.0518" gradientTransform="matrix(1 0 0 1 0 -715.9999)">
	<stop  offset="0" style="stop-color:#FFC78F"/>
	<stop  offset="0.1608" style="stop-color:#FEC389"/>
	<stop  offset="0.3694" style="stop-color:#FAB879"/>
	<stop  offset="0.6043" style="stop-color:#F4A55E"/>
	<stop  offset="0.8566" style="stop-color:#EC8B39"/>
	<stop  offset="1" style="stop-color:#E77A21"/>
</linearGradient>
<path class="st35" d="M296.8,98.8c2.2-25.2-8.6-44.9-3.8-65.2C297.9,13.4,336.9,0,342.7,0s-3.7,29.4-4.1,43.5s-18,40.4-17.5,44.3
	C321.5,91.8,296.4,102.8,296.8,98.8z"/>
<linearGradient id="SVGID_34_" gradientUnits="userSpaceOnUse" x1="321.0862" y1="777.7915" x2="320.3772" y2="903.9589" gradientTransform="matrix(1 0 0 1 0 -715.9999)">
	<stop  offset="0" style="stop-color:#FFC78F"/>
	<stop  offset="1" style="stop-color:#E77A21"/>
</linearGradient>
<path class="st36" d="M371.6,155.3c-1.3-4.2-4.5-15.5-5.9-22.9c-1.3-5.5-3.4-6-4.1-11.3c-2.2-18.1-36.4-39-58.9-32.4
	c-21.8,6.4-33.1,23.6-33.1,45.4c0,19.3,9.6,36.9,26.5,40.7c12.3,7.9,25.6,8.6,33,7.8C342,181.4,372.9,159.8,371.6,155.3z"/>
<linearGradient id="SVGID_35_" gradientUnits="userSpaceOnUse" x1="353.9225" y1="840.498" x2="354.1915" y2="857.4771" gradientTransform="matrix(1 0 0 1 0 -715.9999)">
	<stop  offset="0" style="stop-color:#FFE6CD"/>
	<stop  offset="1" style="stop-color:#FFF5EB"/>
</linearGradient>
<path class="st37" d="M354.1,149.2c6.7,0,12.1-6,12.1-13.5c0-7.4-5.4-13.5-12.1-13.5s-12.1,6-12.1,13.5
	C342,143.1,347.4,149.2,354.1,149.2z"/>
<linearGradient id="SVGID_36_" gradientUnits="userSpaceOnUse" x1="352.5712" y1="842.6534" x2="353.3263" y2="851.5664" gradientTransform="matrix(1 0 0 1 0 -715.9999)">
	<stop  offset="0" style="stop-color:#45B1BD"/>
	<stop  offset="1" style="stop-color:#3B737B"/>
</linearGradient>
<path class="st38" d="M353.5,147.6c5.4,0,9.8-4.4,9.8-9.9s-4.4-9.9-9.8-9.9s-9.8,4.4-9.8,9.9C343.8,143.1,348.1,147.6,353.5,147.6z"
	/>
<linearGradient id="SVGID_37_" gradientUnits="userSpaceOnUse" x1="352.6606" y1="843.6993" x2="353.3446" y2="851.7633" gradientTransform="matrix(1 0 0 1 0 -715.9999)">
	<stop  offset="0" style="stop-color:#51D0DE"/>
	<stop  offset="1" style="stop-color:#4B939C"/>
</linearGradient>
<path class="st39" d="M353.5,146.6c4.9,0,8.8-4,8.8-9s-3.9-9-8.8-9s-8.8,4-8.8,9S348.7,146.6,353.5,146.6z"/>
<linearGradient id="SVGID_38_" gradientUnits="userSpaceOnUse" x1="355.2044" y1="846.8454" x2="350.8224" y2="857.7233" gradientTransform="matrix(1 0 0 1 0 -715.9999)">
	<stop  offset="0" style="stop-color:#945F43"/>
	<stop  offset="1" style="stop-color:#1C120D"/>
</linearGradient>
<path class="st40" d="M352,146c3.6,0,6.5-3.2,6.5-7.2s-2.9-7.2-6.5-7.2s-6.5,3.2-6.5,7.2C345.5,142.7,348.4,146,352,146z"/>
<linearGradient id="SVGID_39_" gradientUnits="userSpaceOnUse" x1="356.5906" y1="847.3937" x2="356.9157" y2="852.3717" gradientTransform="matrix(1 0 0 1 0 -715.9999)">
	<stop  offset="0" style="stop-color:#FFE6CD"/>
	<stop  offset="1" style="stop-color:#FFF5EB"/>
</linearGradient>
<path class="st41" d="M359.1,134.6c0,1.4-1,2.5-2.3,2.5s-2.3-1.1-2.3-2.5s1-2.5,2.3-2.5S359.1,133.2,359.1,134.6z"/>
<linearGradient id="SVGID_40_" gradientUnits="userSpaceOnUse" x1="357.7477" y1="782.9918" x2="357.0807" y2="901.702" gradientTransform="matrix(1 0 0 1 0 -715.9999)">
	<stop  offset="0" style="stop-color:#FFC78F"/>
	<stop  offset="1" style="stop-color:#E77A21"/>
</linearGradient>
<path class="st42" d="M347.2,176c6.4,4.6,13.9,2.9,20.8-6.8s8.3-21.7,2.1-26.5c-5.4-4.1-7.8,8.1-24,9.4
	C336.4,153,340.8,171.5,347.2,176z"/>
<linearGradient id="SVGID_41_" gradientUnits="userSpaceOnUse" x1="309.1337" y1="850.8847" x2="307.2467" y2="863.0127" gradientTransform="matrix(1 0 0 1 0 -715.9999)">
	<stop  offset="0" style="stop-color:#FFE6CD"/>
	<stop  offset="1" style="stop-color:#FFF5EB"/>
</linearGradient>
<path class="st43" d="M307.9,157.9c7.6,0,13.8-6.7,13.8-15.1s-6.2-15-13.8-15c-7.6,0-13.8,6.7-13.8,15S300.3,157.9,307.9,157.9z"/>
<linearGradient id="SVGID_42_" gradientUnits="userSpaceOnUse" x1="307.3173" y1="851.0092" x2="306.8643" y2="863.7003" gradientTransform="matrix(1 0 0 1 0 -715.9999)">
	<stop  offset="0" style="stop-color:#45B1BD"/>
	<stop  offset="1" style="stop-color:#3B737B"/>
</linearGradient>
<path class="st44" d="M306.9,157.8c6.1,0,11.1-5,11.1-11.1s-5-11.1-11.1-11.1s-11.1,5-11.1,11.1S300.8,157.8,306.9,157.8z"/>
<linearGradient id="SVGID_43_" gradientUnits="userSpaceOnUse" x1="307.2777" y1="852.1292" x2="306.8679" y2="863.5992" gradientTransform="matrix(1 0 0 1 0 -715.9999)">
	<stop  offset="0" style="stop-color:#51D0DE"/>
	<stop  offset="1" style="stop-color:#4B939C"/>
</linearGradient>
<path class="st45" d="M306.9,156.7c5.5,0,10-4.5,10-10s-4.5-10-10-10s-10,4.5-10,10S301.4,156.7,306.9,156.7z"/>
<linearGradient id="SVGID_44_" gradientUnits="userSpaceOnUse" x1="305.7376" y1="848.7814" x2="306.6416" y2="862.6505" gradientTransform="matrix(1 0 0 1 0 -715.9999)">
	<stop  offset="0" style="stop-color:#945F43"/>
	<stop  offset="1" style="stop-color:#1C120D"/>
</linearGradient>
<path class="st46" d="M306.6,153.8c4,0,7.2-3.5,7.2-7.9c0-4.3-3.2-7.9-7.2-7.9s-7.2,3.5-7.2,7.9
	C299.3,150.3,302.6,153.8,306.6,153.8z"/>
<linearGradient id="SVGID_45_" gradientUnits="userSpaceOnUse" x1="312.8142" y1="853.916" x2="313.1133" y2="858.4969" gradientTransform="matrix(1 0 0 1 0 -715.9999)">
	<stop  offset="0" style="stop-color:#FFE6CD"/>
	<stop  offset="1" style="stop-color:#FFF5EB"/>
</linearGradient>
<path class="st47" d="M315.5,142.3c0,1.4-1.1,2.6-2.4,2.6s-2.4-1.2-2.4-2.6c0-1.4,1.1-2.6,2.4-2.6S315.5,140.8,315.5,142.3z"/>
<linearGradient id="SVGID_46_" gradientUnits="userSpaceOnUse" x1="305.0332" y1="768.3063" x2="304.2882" y2="900.8462" gradientTransform="matrix(1 0 0 1 0 -715.9999)">
	<stop  offset="0" style="stop-color:#FFC78F"/>
	<stop  offset="0.2379" style="stop-color:#FAB879"/>
	<stop  offset="0.729" style="stop-color:#EE9142"/>
	<stop  offset="1" style="stop-color:#E77A21"/>
</linearGradient>
<path class="st48" d="M331.2,190.8c-15.6-4.8-26.7-2.9-36.4-5.5c-16.8-4.7-21.5-24.4-22.8-34.1c-1.5-11.1,18.8,7.3,44.5,3.6
	C337.7,151.6,341.9,194,331.2,190.8z"/>
<linearGradient id="SVGID_47_" gradientUnits="userSpaceOnUse" x1="358.1017" y1="927.1951" x2="341.4368" y2="899.1181" gradientTransform="matrix(1 0 0 1 0 -715.9999)">
	<stop  offset="0" style="stop-color:#FFC78F"/>
	<stop  offset="1" style="stop-color:#FFD6AD"/>
</linearGradient>
<path class="st49" d="M357,174.5c5.2,5.6,7.2,15.9,8.1,21.9c0.4,2.6-4.5,8.3-7.7,10.9c-4.7,3.7-11.4,0.5-22.2-6.7
	c-13.5-9.1-13.5-14.3-12.4-31.8C323.8,154.3,346.7,163.4,357,174.5z"/>
<linearGradient id="SVGID_48_" gradientUnits="userSpaceOnUse" x1="350.8175" y1="930.4588" x2="338.1425" y2="908.7968" gradientTransform="matrix(1 0 0 1 0 -715.9999)">
	<stop  offset="0" style="stop-color:#FFC78F"/>
	<stop  offset="1" style="stop-color:#FFD6AD"/>
</linearGradient>
<path class="st50" d="M335,197.2c-7.6-5.8-10.7-11.3-12.7-17.9c0.2,8.4,2.7,14.4,12.8,21.3c10.8,7.2,17.5,10.4,22.2,6.7
	c0.3-0.2,0.5-0.4,0.8-0.6C353.4,208.4,345.7,205.3,335,197.2z"/>
<linearGradient id="SVGID_49_" gradientUnits="userSpaceOnUse" x1="338.5712" y1="930.6868" x2="345.4432" y2="899.6418" gradientTransform="matrix(1 0 0 1 0 -715.9999)">
	<stop  offset="0" style="stop-color:#FFC78F"/>
	<stop  offset="1" style="stop-color:#FFD6AD"/>
</linearGradient>
<path class="st51" d="M356.6,172.8c4.5,6.5,7.7,16.8,8.4,23.7c0.2,1.4-2.8,2.9-4,3.7c-5.4,3.8-16.2-3.9-26.2-12.3
	c-8.5-7.1-11.6-18.7-6.2-22.4C334,161.8,350.8,164.5,356.6,172.8z"/>
<linearGradient id="SVGID_50_" gradientUnits="userSpaceOnUse" x1="342.154" y1="923.3176" x2="343.769" y2="898.8237" gradientTransform="matrix(1 0 0 1 0 -715.9999)">
	<stop  offset="0" style="stop-color:#8A4913"/>
	<stop  offset="0.3353" style="stop-color:#874713"/>
	<stop  offset="0.5807" style="stop-color:#7E4214"/>
	<stop  offset="0.7968" style="stop-color:#6E3A16"/>
	<stop  offset="0.996" style="stop-color:#582E18"/>
	<stop  offset="1" style="stop-color:#572E18"/>
</linearGradient>
<path class="st52" d="M354.8,172.8c5.5,7.9,9.9,21.8,4.9,25.3s-15.1-7.6-25-15c-8.4-6.4-11.5-13.8-6.4-17.4
	C333.4,162.3,349.3,164.9,354.8,172.8z"/>
<linearGradient id="SVGID_51_" gradientUnits="userSpaceOnUse" x1="337.0175" y1="924.2258" x2="342.5235" y2="900.1898" gradientTransform="matrix(1 0 0 1 0 -715.9999)">
	<stop  offset="0" style="stop-color:#FF7A52"/>
	<stop  offset="0.2439" style="stop-color:#FC7851"/>
	<stop  offset="0.4226" style="stop-color:#F3724D"/>
	<stop  offset="0.5804" style="stop-color:#E36847"/>
	<stop  offset="0.7262" style="stop-color:#CC5A3E"/>
	<stop  offset="0.8631" style="stop-color:#AF4833"/>
	<stop  offset="0.9927" style="stop-color:#8C3226"/>
	<stop  offset="1" style="stop-color:#8A3125"/>
</linearGradient>
<path class="st53" d="M326,169.2c-0.8,3.9,2,12.3,8.3,17c9.4,7.1,19.4,14.7,24.7,12.3c3.1-6.4-3.5-15.2-7.8-21.4
	C345.7,169.4,331.4,166,326,169.2z"/>
<linearGradient id="SVGID_52_" gradientUnits="userSpaceOnUse" x1="367.7669" y1="907.2231" x2="346.2119" y2="909.4601" gradientTransform="matrix(1 0 0 1 0 -715.9999)">
	<stop  offset="0" style="stop-color:#FF7A52"/>
	<stop  offset="0.3223" style="stop-color:#A44E35"/>
	<stop  offset="0.6534" style="stop-color:#4C2519"/>
	<stop  offset="0.8873" style="stop-color:#150A07"/>
	<stop  offset="1" style="stop-color:#000000"/>
</linearGradient>
<path class="st54" d="M339.4,188.7c0.4-0.8,6.5-0.3,9,1.3c2.4,1.6,8.2,6.8,7,8.1C354.2,199.5,338.1,191.2,339.4,188.7z"/>
<linearGradient id="SVGID_53_" gradientUnits="userSpaceOnUse" x1="347.9073" y1="920.3409" x2="357.1512" y2="905.3389" gradientTransform="matrix(1 0 0 1 0 -715.9999)">
	<stop  offset="0" style="stop-color:#FF7A52"/>
	<stop  offset="0.3223" style="stop-color:#A44E35"/>
	<stop  offset="0.6534" style="stop-color:#4C2519"/>
	<stop  offset="0.8873" style="stop-color:#150A07"/>
	<stop  offset="1" style="stop-color:#000000"/>
</linearGradient>
<path class="st55" d="M351.8,188.2c0,2.2,3.4,6.1,5.4,9.2c1.1,1.7,2.9-2.8,0.6-6.7C355.5,186.9,351.8,187.4,351.8,188.2z"/>
<linearGradient id="SVGID_54_" gradientUnits="userSpaceOnUse" x1="366.0255" y1="897.6617" x2="372.4025" y2="881.1458" gradientTransform="matrix(1 0 0 1 0 -715.9999)">
	<stop  offset="0" style="stop-color:#FFC78F"/>
	<stop  offset="1" style="stop-color:#FFD6AD"/>
</linearGradient>
<path class="st56" d="M364.1,167.3c-0.4,3.1-0.7,7.4,0,10.1c0.7,2.7,4,5,7.9,3.1c3.5-1.8,8.3-10.2,0.8-18.1
	C369.7,159.7,364.1,165.1,364.1,167.3z"/>
<linearGradient id="SVGID_55_" gradientUnits="userSpaceOnUse" x1="365.7593" y1="897.5588" x2="372.1363" y2="881.0427" gradientTransform="matrix(1 0 0 1 0 -715.9999)">
	<stop  offset="0" style="stop-color:#FFC78F"/>
	<stop  offset="1" style="stop-color:#FFD6AD"/>
</linearGradient>
<path class="st57" d="M369.1,178.3c-0.5-2.3,1.6-7.5,2.7-9.8c0.8-1.8,1.2-4,2-5c-0.3-0.4-0.6-0.7-0.9-1.1c-3.1-2.6-8.7,2.7-8.7,4.9
	c-0.4,3.1-0.7,7.4,0,10.1s4,5,7.9,3.1c0.6-0.3,1.2-0.8,1.8-1.4C371.6,180.4,369.5,180.2,369.1,178.3z"/>
<linearGradient id="SVGID_56_" gradientUnits="userSpaceOnUse" x1="350.8272" y1="897.117" x2="341.9642" y2="876.653" gradientTransform="matrix(1 0 0 1 0 -715.9999)">
	<stop  offset="0" style="stop-color:#FFC78F"/>
	<stop  offset="1" style="stop-color:#FFD6AD"/>
</linearGradient>
<path class="st58" d="M367.8,168.9c1.8,8.1-0.5,11.3-4.3,12.7c-3.7,1.4-29-0.6-38.5-9.8c-3.2-3.2-3.3-11.1,6.7-11.1
	S366.4,165.4,367.8,168.9z"/>
<linearGradient id="SVGID_57_" gradientUnits="userSpaceOnUse" x1="351.5393" y1="896.9214" x2="342.8413" y2="876.8354" gradientTransform="matrix(1 0 0 1 0 -715.9999)">
	<stop  offset="0" style="stop-color:#FFC78F"/>
	<stop  offset="1" style="stop-color:#FFD6AD"/>
</linearGradient>
<path class="st59" d="M368,169.5c0-0.2-0.1-0.4-0.1-0.6c0,0,0-0.1-0.1-0.2c0-0.1-0.1-0.1-0.1-0.1l0,0c-0.1-0.1-0.2-0.2-0.3-0.3
	c-3.8-3.4-26.3-7.5-35.6-7.5c-0.5,0-1,0-1.5,0.1c16.3,8.1,31.9,11.6,37,14.7c-0.8,2.3-2.5,3.6-4.6,4.4c-3.4,1.3-24.1-0.1-36-6.6
	c10.5,8,33.4,9.8,36.9,8.4C367.2,180.2,369.5,177.2,368,169.5z"/>
<linearGradient id="SVGID_58_" gradientUnits="userSpaceOnUse" x1="327.2842" y1="891.4093" x2="325.8612" y2="888.1234" gradientTransform="matrix(1 0 0 1 0 -715.9999)">
	<stop  offset="0" style="stop-color:#FFC78F"/>
	<stop  offset="1" style="stop-color:#FFD6AD"/>
</linearGradient>
<path class="st60" d="M328,171.4c-2.6,0.1-3,2.6-2.8,5.2c0.1,2.2-1.6-1.3-0.5-4.2C325.8,169.8,330.3,171.3,328,171.4z"/>
<linearGradient id="SVGID_59_" gradientUnits="userSpaceOnUse" x1="351.7974" y1="833.2847" x2="353.9073" y2="852.1067" gradientTransform="matrix(1 0 0 1 0 -715.9999)">
	<stop  offset="0" style="stop-color:#FFC78F"/>
	<stop  offset="1" style="stop-color:#E77A21"/>
</linearGradient>
<path class="st61" d="M342.5,133c4.2-7.4,15.2-7.3,22-4.5c2.5,1.5,5.5-6.5-1.3-10.3s-18.4,0.1-22.5,9.9S340.7,136.1,342.5,133z"/>
<linearGradient id="SVGID_60_" gradientUnits="userSpaceOnUse" x1="324.7068" y1="833.7548" x2="350.7278" y2="884.0428" gradientTransform="matrix(1 0 0 1 0 -715.9999)">
	<stop  offset="0" style="stop-color:#F4A55E"/>
	<stop  offset="0.1496" style="stop-color:#F3A158"/>
	<stop  offset="0.3549" style="stop-color:#EF9446"/>
	<stop  offset="0.4625" style="stop-color:#ED8C3A"/>
	<stop  offset="0.5392" style="stop-color:#E7893A"/>
	<stop  offset="0.6446" style="stop-color:#D5803A"/>
	<stop  offset="0.7667" style="stop-color:#B87139"/>
	<stop  offset="0.9002" style="stop-color:#905C39"/>
	<stop  offset="1" style="stop-color:#6D4A38"/>
</linearGradient>
<path class="st62" d="M372.4,161.2c-4.3-2.7-19.3-5.2-25.3-23.8c-0.3-0.7-2.9-14.1-2.7-18.6c0.1-2.6-38.3,4.7-41,5.6
	c-2.8,1,16.8,10.1,21.1,18.5c4.1,7.9,15.1,19.7,23.2,24.4C355.9,172,374,163,372.4,161.2z"/>
<linearGradient id="SVGID_61_" gradientUnits="userSpaceOnUse" x1="360.3574" y1="875.156" x2="360.3574" y2="889.268" gradientTransform="matrix(1 0 0 1 0 -715.9999)">
	<stop  offset="0" style="stop-color:#CC8B69"/>
	<stop  offset="1" style="stop-color:#6D4A38"/>
</linearGradient>
<path class="st63" d="M374.2,162.3c-1.1-3.2-4.9,0-7.9,1.8c-4,2.3-19.7-0.8-20.3,2.7c-0.6,3.4,12.3,11,20.7,9.7
	C375.5,175,375.3,165.4,374.2,162.3z"/>
<linearGradient id="SVGID_62_" gradientUnits="userSpaceOnUse" x1="360.2374" y1="878.529" x2="360.2374" y2="889.071" gradientTransform="matrix(1 0 0 1 0 -715.9999)">
	<stop  offset="0" style="stop-color:#CC8B69"/>
	<stop  offset="1" style="stop-color:#6D4A38"/>
</linearGradient>
<path class="st64" d="M367.4,174.7c-6.4,1-13.4-6-18.4-7.3c-1-0.2-3-1.3-3.1-0.7c-0.6,3.4,13.4,10.1,21.8,8.6
	c7.1-1.2,7.1-7.9,6.8-11.5C374,167.5,372.7,173.9,367.4,174.7z"/>
<linearGradient id="SVGID_63_" gradientUnits="userSpaceOnUse" x1="300.5411" y1="839.922" x2="303.6111" y2="854.795" gradientTransform="matrix(1 0 0 1 0 -715.9999)">
	<stop  offset="0" style="stop-color:#FFC78F"/>
	<stop  offset="1" style="stop-color:#E77A21"/>
</linearGradient>
<path class="st65" d="M319.7,135.7c-4.4-3-11.7-4.9-19.2-0.6c-7.5,4.3-19.5,9.2-15.4-2.3c4-11,19-11.7,26.9-8.8
	C321.7,127.5,323.9,138.5,319.7,135.7z"/>
<linearGradient id="SVGID_64_" gradientUnits="userSpaceOnUse" x1="302.85" y1="829.052" x2="302.85" y2="834.415" gradientTransform="matrix(1 0 0 1 0 -715.9999)">
	<stop  offset="0" style="stop-color:#CC8B69"/>
	<stop  offset="1" style="stop-color:#6D4A38"/>
</linearGradient>
<path class="st66" d="M315,118.6c0,2.2-4.8,0.8-9.8,0.8s-14.5,2.3-14.5,0.2c0-2.2,10.3-6.7,15.3-6.7C311,112.8,315,116.4,315,118.6z
	"/>
<linearGradient id="SVGID_65_" gradientUnits="userSpaceOnUse" x1="319.0166" y1="805.2592" x2="239.1686" y2="802.5787" gradientTransform="matrix(1 0 0 1 0 -715.9999)">
	<stop  offset="0" style="stop-color:#FFC78F"/>
	<stop  offset="1" style="stop-color:#E77A21"/>
</linearGradient>
<path class="st67" d="M230.4,93.9c7.2,10.3,18,18.9,27.4,21.1s16.1,2.1,19.5,3.7c3.5,1.6,16.8-12.3,14.7-17.8
	c-2.1-5.5-3.9-32.3-24.6-37.7c-30.1-7.9-73-10.4-75.8-7.8C188.7,57.8,223.2,83.6,230.4,93.9z"/>
<linearGradient id="SVGID_66_" gradientUnits="userSpaceOnUse" x1="277.4437" y1="809.7693" x2="221.4346" y2="798.6183" gradientTransform="matrix(1 0 0 1 0 -715.9999)">
	<stop  offset="0" style="stop-color:#FFC78F"/>
	<stop  offset="1" style="stop-color:#FFD6AD"/>
</linearGradient>
<path class="st68" d="M282.6,105.6c-1.2-5.7-8.7-31-24.9-37.4c-17-6.8-55.4-12-63.6-10.6c-4.1,0.7,27.6,24.2,33.8,30.8
	c7.1,7.6,12.3,18,24.4,22.7c8.2,3.3,17.5,4.6,25,3.7C280.8,114.4,282.9,106.9,282.6,105.6z"/>
<linearGradient id="SVGID_67_" gradientUnits="userSpaceOnUse" x1="347.9384" y1="821.9302" x2="349.8654" y2="828.4341" gradientTransform="matrix(1 0 0 1 0 -715.9999)">
	<stop  offset="0" style="stop-color:#CC8B69"/>
	<stop  offset="1" style="stop-color:#6D4A38"/>
</linearGradient>
<path class="st69" d="M358.1,110c1.4,3.4-2.6,1.7-6.8,3c-4.2,1.4-8.9,4.3-9.6,2.2c-0.7-2.1,2.7-6.6,6.9-8
	C352.8,105.9,356.6,106.4,358.1,110z"/>
<g>
	<g>
		<path class="st70" d="M253,112.1c-0.7-0.2-1.4-0.4-2.2-0.4h-0.1c-0.8,0-1.5,0.2-2.2,0.4c-2.5,0.9-4.2,3.3-4.2,6.1
			c0,3.6,2.9,6.5,6.4,6.5h0.1c3.6,0,6.5-2.9,6.5-6.5C257.3,115.4,255.5,113,253,112.1z M250.8,123.2
			C250.8,123.2,250.8,123.2,250.8,123.2c-2.8-0.1-4.9-2.2-4.9-4.9c0-2.2,1.4-4.1,3.4-4.7c0.4-0.1,0.9-0.2,1.4-0.2c0,0,0.1,0,0.1,0
			c0.5,0,0.9,0.1,1.3,0.2c2.1,0.6,3.5,2.5,3.5,4.7C255.7,121,253.5,123.2,250.8,123.2z"/>
		<path class="st71" d="M254.9,106c0,2.1-0.9,4.3-1.9,6.1c-0.3,0.5-0.6,1-0.8,1.4c-0.8,1.2-1.4,2-1.4,2s0,0,0,0
			c-0.1-0.2-0.7-0.9-1.4-2c-0.3-0.4-0.5-0.9-0.8-1.4c-1-1.8-1.9-4.1-1.9-6.2c0-4.5,1.8-6.6,4.1-6.6h0
			C253,99.4,254.9,101.5,254.9,106z"/>
	</g>
	<path class="st72" d="M250.7,99.4v16.2c-0.1-0.2-0.7-0.9-1.4-2c-2,0.6-3.4,2.5-3.4,4.7c0,2.7,2.1,4.8,4.8,4.9v1.6
		c-3.5-0.1-6.4-2.9-6.4-6.5c0-2.8,1.8-5.2,4.2-6.1c-1-1.8-1.9-4.1-1.9-6.2C246.7,101.5,248.5,99.4,250.7,99.4z"/>
	<g>
		<polygon class="st0" points="263.8,155.7 250.8,123.1 238,155.7 238.1,155.8 242.5,164.2 259.4,164.2 263.8,155.8 		"/>
		<g>
			<polygon class="st1" points="263.8,155.7 238,155.7 242.5,164.2 259.4,164.2 			"/>
			<polygon class="st1" points="242.5,164.2 259.4,164.2 250.8,123.1 			"/>
			<polygon class="st2" points="238,155.7 244.2,155.7 250.8,123.1 			"/>
		</g>
	</g>
</g>
<g>
	<path class="st70" d="M335.6,58c-0.5-0.2-1-0.3-1.6-0.3H334c-0.6,0-1.1,0.1-1.6,0.3c-1.8,0.7-3,2.4-3,4.4c0,2.6,2.1,4.6,4.6,4.7
		h0.1c2.6,0,4.7-2.1,4.7-4.7C338.7,60.4,337.4,58.7,335.6,58z M334.1,66C334,66,334,66,334.1,66c-2,0-3.5-1.6-3.5-3.5
		c0-1.6,1-2.9,2.5-3.4c0.3-0.1,0.6-0.2,1-0.2c0,0,0,0,0.1,0c0.3,0,0.7,0,1,0.1c1.5,0.4,2.5,1.8,2.5,3.4C337.6,64.4,336,66,334.1,66z
		"/>
	<path class="st71" d="M337,53.6c0,1.5-0.6,3.1-1.3,4.4c-0.2,0.4-0.4,0.7-0.6,1c-0.6,0.9-1,1.5-1,1.5s0,0,0,0
		c-0.1-0.1-0.5-0.7-1-1.4c-0.2-0.3-0.4-0.7-0.6-1c-0.7-1.3-1.3-2.9-1.3-4.4c0-3.2,1.3-4.7,2.9-4.8h0C335.6,48.9,337,50.4,337,53.6z"
		/>
</g>
</svg>
