<svg xmlns="http://www.w3.org/2000/svg" viewBox="0 0 476.07 589.29"><defs><style>.cls-1{isolation:isolate;}.cls-2,.cls-3{fill:#195150;}.cls-3{opacity:0.22;mix-blend-mode:multiply;}.cls-4,.cls-7{fill:#1c5b59;}.cls-5{fill:#ebb46c;}.cls-6{fill:#f9d78c;}.cls-7{opacity:0.29;mix-blend-mode:screen;}</style></defs><title>purse</title><g class="cls-1"><g id="圖層_1" data-name="圖層 1"><path class="cls-2" d="M45.45,247.12a564.62,564.62,0,0,1,14.21-68.83C82,97,113.67,59.44,130,43.13,158.69,14.5,193,0,232,0c30.45,0,70,6.89,106,35.27C351.21,45.65,393,80,417.32,167.89a470.8,470.8,0,0,1,14.83,83.4l-16.46.27a445.92,445.92,0,0,0-15.36-83.15C388.38,127.3,366.77,79.34,327.65,49,295,23.62,259.4,17.67,232,17.67q-52.62,0-91.08,38.44C126,71.05,97.06,105.75,76.13,180.85a551.71,551.71,0,0,0-14,66.44Z"/><path class="cls-3" d="M59.59,178.57a565.37,565.37,0,0,0-14.14,68.55l16.66.17A550.7,550.7,0,0,1,76,181.22C70.13,180.48,63.67,179.38,59.59,178.57Z"/><path class="cls-3" d="M420.28,179.22c-5,.68-12,1.43-16.48,2a454,454,0,0,1,11.89,70.36l16.46-.27A477.4,477.4,0,0,0,420.28,179.22Z"/><path class="cls-2" d="M451.55,588.57c-21.57.54-423.45,1.34-439.17-.08C2.86,587.62.81,588.35,0,571.78c-.26-5.39,1-150.22,51.72-324.53L424.21,247c44.46,155.68,52.07,289.78,51.86,318.93C475.89,589.85,474.68,588,451.55,588.57Z"/><path class="cls-3" d="M12.38,588.49c15.72,1.42,417.6.62,439.17.08,23.13-.57,24.34,1.28,24.52-22.66.21-29.15-7.4-163.25-51.86-318.93l-372.47.27c-5.93,20.36-11.16,40.31-15.81,59.68l.21.33c10.4,70.45,38.29,139.58,109.32,148.53,15.92,2.12,68.85,1.39,68.85,1.39l18.17,26.2c21.9,5,43.69-2.16,44.57-33.52,41.71.21,151.27,11.38,100.85,52.63-75.37,68.82-297.81,75.9-376.55,32.14C0,556.93,0,570.22,0,571.78.81,588.35,2.86,587.62,12.38,588.49Z"/><path class="cls-4" d="M120.58,436.4c-11.44-4.16-42.61-46.77-60.28-79C50.74,340,45.74,305.86,43.17,278.23c-1-10.83-1.64-20.67-2-28.11a13.57,13.57,0,0,1,13.34-14.3h367a13.35,13.35,0,0,1,13.34,14c-.43,8-1.13,18.88-2.29,30.75-2.64,27.13-7.62,59.65-16.88,76.53-17.66,32.22-48.84,74.83-60.27,79Z"/><path class="cls-5" d="M347.23,436.38H133.36l6-18.89a7.12,7.12,0,0,1,.51-1.28,9,9,0,0,1,8.09-5.06H333.87a9,9,0,0,1,8.09,5.06,8.63,8.63,0,0,1,.66,1.76Z"/><path class="cls-5" d="M240.29,482.86h0a26,26,0,0,0,26-26v-39.5h-52v39.5A26,26,0,0,0,240.29,482.86Z"/><rect class="cls-6" x="222.43" y="444.41" width="35.34" height="15.59" rx="7.79"/><path class="cls-6" d="M342,416.21h-202a9,9,0,0,1,8.09-5.06H333.87A9,9,0,0,1,342,416.21Z"/><path class="cls-7" d="M432.78,277.86c1-10.79,1.64-20.58,2-28a13.35,13.35,0,0,0-13.34-14h-367a13.57,13.57,0,0,0-13.34,14.3c.38,7,1,16.12,1.87,26.18C107.08,268.64,281.72,252.15,432.78,277.86Z"/></g></g></svg>