<svg id="圖層_1" data-name="圖層 1" xmlns="http://www.w3.org/2000/svg" viewBox="0 0 160.57 348.21"><defs><style>.cls-1{fill:#3a92bf;}.cls-2{fill:#005170;}.cls-3{fill:#eb5c4d;}.cls-4{fill:#f08c76;}.cls-5{fill:#72b0db;}.cls-6{fill:#006f95;}.cls-7{fill:#092641;}.cls-8{fill:#c46554;}.cls-9{fill:#fff;}.cls-10{fill:#bc6051;}.cls-11{fill:#b92f23;}.cls-12{fill:#f6ac56;}.cls-13{fill:#2f2245;}</style></defs><title>human-guide</title><path class="cls-1" d="M26,137.49c-9.1-2.22-15.34,21-6.46,24s33.75-1.24,46.76-1.3l-3.38-20.06S34.52,139.58,26,137.49Z"/><path class="cls-2" d="M23.23,158.31a4.65,4.65,0,0,1-4.4-2.93.1.1,0,0,1,.06-.13.1.1,0,0,1,.12.06,4.5,4.5,0,0,0,4.55,2.8,6.42,6.42,0,0,0,4.72-3,11.5,11.5,0,0,0,1.71-5.5,11.31,11.31,0,0,0-.38-4.48A6.27,6.27,0,0,0,27,141.63a4.35,4.35,0,0,0-4.25-.22,5.79,5.79,0,0,0-2.31,2.73,13.34,13.34,0,0,0-1.3,6c0,1.17.3,3.29,1.81,4.36a3.76,3.76,0,0,0,4.39-.28A4.89,4.89,0,0,0,27,150a.1.1,0,0,1,.09-.1c.05,0,.1,0,.11.09a5.11,5.11,0,0,1-1.72,4.42,4,4,0,0,1-4.63.29c-1.58-1.12-1.86-3.31-1.89-4.52a13.4,13.4,0,0,1,1.32-6.07,5.9,5.9,0,0,1,2.38-2.82,4.6,4.6,0,0,1,4.45.22,6.48,6.48,0,0,1,2.71,3.63,11.65,11.65,0,0,1,.4,4.55,11.8,11.8,0,0,1-1.75,5.59,6.62,6.62,0,0,1-4.87,3.07Z"/><path class="cls-3" d="M41.78,53.36c-14.11,8.34-23,70.55-19.47,80.61S80.06,147,86.72,143s5.88-83.49-.78-87.8S51.46,47.64,41.78,53.36Z"/><path class="cls-4" d="M96.56,164.88,113.27,335.1a6.83,6.83,0,0,1-13.53,1.8L71.28,168.25A12.76,12.76,0,1,1,96.44,164C96.49,164.29,96.53,164.6,96.56,164.88Z"/><path class="cls-5" d="M96.69,348.21H143.8a9.65,9.65,0,0,0-.31-2.79c-.71-2.78-3-6.69-10.18-7a59.67,59.67,0,0,1-19.31-4,61.83,61.83,0,0,1-15.18,0A21.57,21.57,0,0,0,96.69,348.21Z"/><path class="cls-6" d="M124.93,340.25a8.5,8.5,0,0,1,1.75-3.06,1.32,1.32,0,0,1,.71-.43,1.49,1.49,0,0,1,.91.09c.49.26.8.86.42,1.29a8.14,8.14,0,0,0-1.07,1.51,7.47,7.47,0,0,0-.45,1.1,1.25,1.25,0,0,1-1.45.65C125.13,341.24,124.77,340.76,124.93,340.25Z"/><path class="cls-6" d="M120.79,339.56a8.5,8.5,0,0,1,1.75-3.06,1.36,1.36,0,0,1,.71-.43,1.49,1.49,0,0,1,.91.1c.49.25.8.85.42,1.28a8.14,8.14,0,0,0-1.07,1.51,8,8,0,0,0-.45,1.1,1.25,1.25,0,0,1-1.45.66C121,340.56,120.63,340.07,120.79,339.56Z"/><path class="cls-6" d="M116.65,338.87a8.46,8.46,0,0,1,1.75-3.05,1.31,1.31,0,0,1,.71-.44,1.49,1.49,0,0,1,.91.1c.49.25.8.85.42,1.28a8.55,8.55,0,0,0-1.07,1.52,7.83,7.83,0,0,0-.45,1.09,1.25,1.25,0,0,1-1.45.66C116.86,339.87,116.49,339.38,116.65,338.87Z"/><path class="cls-6" d="M143.8,348.21H96.69a17.26,17.26,0,0,1-.31-2.79h47.11A9.65,9.65,0,0,1,143.8,348.21Z"/><path class="cls-4" d="M66.25,166.81,57.67,336.14a7.13,7.13,0,0,1-14.25-.28l-2-169.53A12.41,12.41,0,1,1,66.26,166C66.26,166.28,66.26,166.57,66.25,166.81Z"/><path class="cls-5" d="M40.65,348.21H87.76a9.47,9.47,0,0,0-.32-2.79c-.7-2.78-3-6.69-10.18-7a54,54,0,0,1-18.76-4c-7,1.1-15.72,0-15.72,0A21.57,21.57,0,0,0,40.65,348.21Z"/><path class="cls-6" d="M68.89,340.25a8.5,8.5,0,0,1,1.75-3.06,1.28,1.28,0,0,1,.71-.43,1.46,1.46,0,0,1,.9.09.86.86,0,0,1,.43,1.29,7.69,7.69,0,0,0-1.07,1.51,7.47,7.47,0,0,0-.45,1.1,1.25,1.25,0,0,1-1.45.65C69.09,341.24,68.73,340.76,68.89,340.25Z"/><path class="cls-6" d="M64.75,339.56a8.5,8.5,0,0,1,1.75-3.06,1.32,1.32,0,0,1,.71-.43,1.46,1.46,0,0,1,.9.1c.5.25.81.85.43,1.28A7.69,7.69,0,0,0,67.47,339a8,8,0,0,0-.45,1.1,1.25,1.25,0,0,1-1.45.66C65,340.56,64.59,340.07,64.75,339.56Z"/><path class="cls-6" d="M60.61,338.87a8.46,8.46,0,0,1,1.75-3.05,1.27,1.27,0,0,1,.71-.44,1.46,1.46,0,0,1,.9.1c.5.25.81.85.43,1.28a8.06,8.06,0,0,0-1.07,1.52,7.83,7.83,0,0,0-.45,1.09,1.25,1.25,0,0,1-1.45.66C60.81,339.87,60.45,339.38,60.61,338.87Z"/><path class="cls-6" d="M87.76,348.21H40.65a17.26,17.26,0,0,1-.31-2.79h47.1A9.47,9.47,0,0,1,87.76,348.21Z"/><polygon class="cls-7" points="97.64 149.27 115.51 316.09 92.19 316.09 68.98 168.02 67.12 144.89 97.64 149.27"/><polygon class="cls-2" points="89.9 307.81 91.56 319.84 117.2 319.84 115.51 307.02 89.9 307.81"/><polygon class="cls-7" points="37.39 148.55 39.75 316.09 62.69 316.09 70.85 142.2 37.39 148.55"/><polygon class="cls-2" points="38.83 309.05 38.83 319.43 63.43 319.84 64.04 308.28 38.83 309.05"/><polygon class="cls-2" points="69.63 170.6 69.4 170.59 70.09 147.6 70.32 147.61 69.63 170.6"/><path class="cls-2" d="M69.56,169.08v-.23c1.66,0,3.46-1.06,3.5-2.76l.75-17.7H74l-.75,17.69C73.25,167.94,71.32,169.08,69.56,169.08Z"/><path class="cls-2" d="M39.28,160.43l0-.23c6.56-.77,9.82-4.52,10.27-11.81h.23C49.3,155.82,46,159.64,39.28,160.43Z"/><path class="cls-2" d="M98.08,162.11c-3.5-2.71-6.27-7.62-7.24-12.82l.23,0c.94,5.07,3.75,10,7.15,12.67Z"/><path class="cls-4" d="M10.28,112.67a8.09,8.09,0,0,1-6-13.49L35.48,64.39a8.08,8.08,0,1,1,12,10.8L16.3,110A8.08,8.08,0,0,1,10.28,112.67Z"/><path class="cls-4" d="M106.65,116.06l36.43-35.12A5.22,5.22,0,0,1,150.72,88l-32.2,39a8.1,8.1,0,1,1-11.87-11Z"/><path class="cls-4" d="M111.63,130a8.09,8.09,0,0,1-7.54-5.14L83.67,72.74a8.08,8.08,0,1,1,15-5.9L119.15,119a8.09,8.09,0,0,1-7.52,11Z"/><path class="cls-8" d="M106.87,115.49a.18.18,0,0,1-.12-.32l7.3-6.49a.19.19,0,0,1,.26,0,.18.18,0,0,1,0,.26l-7.3,6.49A.18.18,0,0,1,106.87,115.49Z"/><path class="cls-4" d="M140.64,85.38s2.31-13.16,3.59-15.51,9.09-13.64,10-13.35-4.35,9.66-4.35,9.66,6.33-9.18,7.43-8.77-4.8,9.9-4.8,9.9,5.22-8,6.34-7.46-3.7,8.42-3.7,8.42,4.42-6.28,5.33-5.83-4.68,9.66-4.68,9.66,1.08,10.44-5.43,16S140.64,85.38,140.64,85.38Z"/><path class="cls-8" d="M150.79,81.52h0a.18.18,0,0,1-.14-.21c.37-1.79-.42-6.07-2.74-7.41a.18.18,0,0,1-.09-.2c.83-3,1.91-8,1.29-8.65a.14.14,0,0,0-.15,0c-1.29.35-3.91,6.73-4.81,9.16a.17.17,0,0,1-.23.1.19.19,0,0,1-.11-.23c.34-.91,3.36-8.91,5-9.38a.46.46,0,0,1,.5.12c.94.93-.81,7.6-1.15,8.86,2.41,1.51,3.18,5.82,2.79,7.72A.17.17,0,0,1,150.79,81.52Z"/><path class="cls-6" d="M127.86,93.86l-11.6,9.6L103.63,70.15A22,22,0,0,0,89.88,57.1L92.7,97.36l-1.39.71L93,102.25l.11,1.54.51,0,8.61,20.81A10.47,10.47,0,0,0,120,127.22l17.86-21.68Z"/><polygon class="cls-1" points="127.74 92.29 122.63 97.36 135.77 109.56 139.54 104.52 127.74 92.29"/><path class="cls-6" d="M95.31,87l3,69.05c-16.12,2.57-38,1.66-61.53-.73l2-64.3,8.72-35.79L72,51.48,89.88,57.1Z"/><path class="cls-3" d="M96,109.49S94.28,75.91,86.65,56l-4.23-1.21c11.09,44.88,14.65,72.05,14.65,72.05Z"/><path class="cls-3" d="M55.35,53l-8.28,1.37c6.27,32.53-10.24,66.14-10.24,66.14l.56,4.88C54.61,99.68,58.14,69.3,55.35,53Z"/><path class="cls-9" d="M56.7,100.11c16.37,8.76,38,9,43.18,4.34l-10.37,45.3c-6.4,6.11-31.12.13-33.6-1.91Z"/><path class="cls-4" d="M54.17,128.86S60,125,62.11,125.25s14.67,3.88,14.17,5.5c-.35,1.1-10.68-1.63-10.68-1.63s10.8,3.39,10.74,4.87-11.45-1.82-11.45-1.82,9,4.05,8.38,5.11S62.21,135,62.21,135s8.29,4.57,8.09,5.52-10.52-3.19-10.52-3.19-9.08,4.49-11.83,0C45.47,133.24,54.17,128.86,54.17,128.86Z"/><path class="cls-4" d="M15.43,98.73,55.1,130.14a5.22,5.22,0,0,1-6,8.52L6.13,112A8.1,8.1,0,1,1,14.67,98.2,8,8,0,0,1,15.43,98.73Z"/><path class="cls-6" d="M47.56,70.87V55.19h0a23.24,23.24,0,0,0-12.49,6.66L12.33,86.31l0,0L2.65,96.92a10.11,10.11,0,0,0,2.13,15.41l29,18,8.81-11.91L25,104.17l5.21-3.89h0L44.37,90Z"/><polygon class="cls-1" points="37.82 113.21 43.6 117.93 33.81 131.68 28.74 128.26 37.82 113.21"/><path class="cls-2" d="M95.42,100h-.23c0-.2,1.06-20,.75-32.29h.23C96.48,80.06,95.43,99.82,95.42,100Z"/><path class="cls-2" d="M96.19,84.57,96,84.39c3-2.62,3.72-7.41,3.72-7.46l.23,0S99.23,81.89,96.19,84.57Z"/><path class="cls-2" d="M39.62,92.48l-.2-.11A50,50,0,0,0,45.19,63l.22,0A50.14,50.14,0,0,1,39.62,92.48Z"/><path class="cls-4" d="M62.8,36.23,61.61,53.28s9.72,4.85,16.17,1.07l-.23-12.93Z"/><path class="cls-10" d="M77.7,49.84c-8.55-.72-11.56-5.39-11.56-5.39l11.48.81Z"/><path class="cls-4" d="M59.71,53.34,72,51.48,79.84,54C78.28,62.06,62.47,62.6,59.71,53.34Z"/><path class="cls-7" d="M53.35,21.61c-.18,2.38-.54,5,.43,7.16s3.29,3.94,5,5.61c9.84-3,19.7-6.26,29.4-9.63a12.63,12.63,0,0,0,2.14-5.61,38.54,38.54,0,0,0,.17-6.08A122.88,122.88,0,0,0,76,12.18a52,52,0,0,0-7.49.21,22.53,22.53,0,0,0-8.66,2.81C57.21,16.75,53.58,18.56,53.35,21.61Z"/><path class="cls-4" d="M80.05,7.83c-15.92-2-24.27,5.68-22.93,20.55,1.08,11.83,7.95,19.2,19.14,19.23,10.31,0,12-8.38,12.12-17.2C88.58,17.83,89.5,9,80.05,7.83Z"/><path class="cls-7" d="M88.49,16.92A11.66,11.66,0,0,1,85,12.12a17.39,17.39,0,0,1-13.68,1.75,1.47,1.47,0,0,1-2.34,1,3.71,3.71,0,0,1-1.55,2.66,3.85,3.85,0,0,1-3.09.6,6.69,6.69,0,0,1-4.48,6.43,8.07,8.07,0,0,1-2.15,7.77A14.44,14.44,0,0,1,56.41,19,18,18,0,0,1,66,9.47,24.53,24.53,0,0,1,79.67,8a14.21,14.21,0,0,1,5.67,2C87.6,11.54,89.15,14.28,88.49,16.92Z"/><path class="cls-11" d="M90.63,16.21s-17.67-.87-20-.12a42.37,42.37,0,0,0-8.12,3.81,94.35,94.35,0,0,0-9.35,6.32C50.15,13.11,57,5.88,61.61,3.13a16.1,16.1,0,0,1,3.77-1.47C71.27,0,80.37-.6,82.79.69,87.5,3.21,90,11.73,90.63,16.21Z"/><path class="cls-12" d="M90.63,16.21s-17.67-.87-20-.12a42.37,42.37,0,0,0-8.12,3.81,23,23,0,0,1-.58-11,16.43,16.43,0,0,1,3.48-7.19C71.27,0,80.37-.6,82.79.69,87.5,3.21,90,11.73,90.63,16.21Z"/><path class="cls-3" d="M67.66,17.22c6-8,24.21-12.95,31.09-7.6,5.33,4.14-8.23,7.91-8.23,7.91C80.13,13.56,67.66,17.22,67.66,17.22Z"/><path class="cls-13" d="M88,24.33a24.24,24.24,0,0,0-6.44-.23C82.88,22.24,86.44,23.14,88,24.33Z"/><path class="cls-13" d="M68.69,24.33a24.24,24.24,0,0,1,6.44-.23C73.79,22.24,70.24,23.14,68.69,24.33Z"/><path class="cls-13" d="M82.79,30.2A1.19,1.19,0,1,0,84,28.77,1.32,1.32,0,0,0,82.79,30.2Z"/><path class="cls-9" d="M84,29.68a.41.41,0,0,0,.36.46.42.42,0,0,0,.37-.46.43.43,0,0,0-.37-.46A.42.42,0,0,0,84,29.68Z"/><path class="cls-13" d="M71.56,30.2a1.19,1.19,0,1,0,1.16-1.43A1.32,1.32,0,0,0,71.56,30.2Z"/><path class="cls-9" d="M72.72,29.68a.42.42,0,0,0,.37.46.41.41,0,0,0,.36-.46.42.42,0,0,0-.36-.46A.43.43,0,0,0,72.72,29.68Z"/><path class="cls-10" d="M79.56,35.47a.37.37,0,0,1-.36-.3.36.36,0,0,1,.29-.43,1.28,1.28,0,0,0,.89-.46.6.6,0,0,0,0-.54,7.4,7.4,0,0,0-.54-1,8,8,0,0,1-.62-1.15.37.37,0,0,1,.22-.47.36.36,0,0,1,.47.21,8,8,0,0,0,.56,1,7.89,7.89,0,0,1,.6,1.11,1.34,1.34,0,0,1,0,1.16,1.91,1.91,0,0,1-1.39.82Z"/><path class="cls-9" d="M82.36,37.32a40.8,40.8,0,0,1-8-.29C75.8,40.2,81.48,39.64,82.36,37.32Z"/><path class="cls-4" d="M59.77,30.58c.94,2.33.27,4.58-1.42,5.27s-3.83-.66-4.77-3-.34-4.78,1.35-5.46S58.83,28.25,59.77,30.58Z"/><path class="cls-10" d="M58.14,33.59l-.12,0A1.9,1.9,0,0,1,56.72,32a2.11,2.11,0,0,1,.18-.87A1.58,1.58,0,0,0,57,30.6a1.08,1.08,0,0,0-.31-.8,1.11,1.11,0,0,0-.91-.38,1,1,0,0,0-.73,1,.37.37,0,1,1-.74,0,1.74,1.74,0,0,1,1.35-1.78,1.91,1.91,0,0,1,2.07,2,2.05,2.05,0,0,1-.18.7,1.44,1.44,0,0,0-.14.57,1.18,1.18,0,0,0,.82.95.37.37,0,0,1,.22.47A.39.39,0,0,1,58.14,33.59Z"/><polygon class="cls-5" points="56.43 53.84 61.77 50.9 70.16 60.16 63.02 65.89 56.43 53.84"/><polygon class="cls-5" points="77.7 51.48 70.16 60.16 77 66.28 82.04 54.64 77.7 51.48"/></svg>