<svg width="471" height="474" viewBox="0 0 471 474" fill="none" xmlns="http://www.w3.org/2000/svg">
<path d="M154.865 330.12C152.525 359.48 138.775 378.02 118.015 378.47C75.2948 379.4 24.6748 331.1 13.0648 313.46C3.85484 299.47 -4.58516 317.17 2.84484 334.36C10.2748 351.54 45.2548 398.75 101.295 410.52C142.115 419.09 177.865 406.57 196.005 400.88C214.135 395.18 155.505 322.17 154.865 330.12Z" fill="url(#paint0_linear_146_1163)"/>
<path d="M196.005 400.87C177.865 406.56 142.115 419.08 101.295 410.51C45.265 398.74 10.275 351.54 2.84496 334.35C1.78496 331.89 1.04496 329.42 0.584961 327.04C18.305 363.86 52.035 383.99 74.405 395.99C96.965 408.09 126.115 408.09 147.565 401.49C168.175 395.15 160.215 379.49 160.215 366.28L172.045 346.4C187.975 366.33 207.545 397.25 196.005 400.87Z" fill="url(#paint1_linear_146_1163)"/>
<path d="M307.505 217.72C301.425 243.47 316.705 249.42 338.965 258.22C348.935 262.16 369.695 273.16 372.275 263.97C374.855 254.77 360.295 242.11 343.775 230.94C322.725 216.71 310.815 203.72 307.505 217.72Z" fill="url(#paint2_linear_146_1163)"/>
<path d="M427.215 248.45C416.985 251.65 373.635 267.9 366.995 267.55C363.895 267.39 363.775 260.08 363.315 253.19C362.865 246.56 370.275 248.32 383.165 245.8C395.045 243.48 418.445 239.92 427.405 240.04C432.255 240.1 433.215 246.57 427.215 248.45Z" fill="url(#paint3_linear_146_1163)"/>
<path d="M425.445 239.83C426.215 236.61 430.755 232.85 432.635 231.2C434.065 229.94 442.095 225.02 443.845 225.71C445.905 226.52 438.305 232.98 436.015 234.96C433.205 237.4 430.805 240.84 429.995 241.43C428.655 242.39 424.865 242.28 425.445 239.83Z" fill="url(#paint4_linear_146_1163)"/>
<path d="M442.275 229.13C440.295 231.28 437.305 233.83 436.005 234.95C433.185 237.39 430.795 240.83 429.985 241.42C428.655 242.39 424.855 242.27 425.445 239.83C425.585 239.26 425.835 238.68 426.165 238.1C429.005 236.27 432.845 234.35 435.135 233.68C437.135 233.1 440.285 230.67 442.275 229.13Z" fill="url(#paint5_linear_146_1163)"/>
<path d="M446.665 237.34C448.725 237.09 454.015 237.83 457.175 236.67C458.785 236.07 463.775 231.24 463.735 229.77C463.685 228.04 458.095 231.13 455.605 231.74C452.285 232.55 446.655 232.69 445.895 233.14C444.635 233.88 444.375 237.62 446.665 237.34Z" fill="url(#paint6_linear_146_1163)"/>
<path d="M462.605 231.84C461.045 233.8 458.295 236.26 457.175 236.67C454.015 237.84 448.725 237.09 446.665 237.34C444.375 237.62 444.635 233.88 445.895 233.14C446.225 232.95 447.455 232.81 449.015 232.65C450.185 234.37 454.645 235.69 456.915 235.16C458.385 234.83 460.845 233.26 462.605 231.84Z" fill="url(#paint7_linear_146_1163)"/>
<path d="M445.785 240.57C448.285 241.22 451.535 242.56 455.795 242.06C458.935 241.69 470.085 236.16 470.875 234C471.805 231.45 458.265 235.83 454.695 235.94C450.755 236.06 446.195 235.16 445.065 235.44C443.195 235.91 442.995 239.85 445.785 240.57Z" fill="url(#paint8_linear_146_1163)"/>
<path d="M470.865 234C470.075 236.17 458.935 241.69 455.785 242.06C451.525 242.56 448.285 241.22 445.775 240.57C442.985 239.85 443.185 235.91 445.045 235.45C445.815 235.26 448.195 235.62 450.895 235.83C451.205 237.69 451.745 238.67 454.125 238.58C457.395 238.45 468.745 236.35 470.845 233.56C470.925 233.68 470.935 233.82 470.865 234Z" fill="url(#paint9_linear_146_1163)"/>
<path d="M446.515 242.95C449.145 243.71 453.875 244.83 456.705 244.29C459.285 243.8 469.795 239.56 470.515 237.37C471.355 234.8 459.785 238.61 457.195 239.11C453.285 239.86 448.765 238.71 446.465 238.42C444.695 238.2 443.945 242.21 446.515 242.95Z" fill="url(#paint10_linear_146_1163)"/>
<path d="M470.515 237.37C469.805 239.56 459.295 243.79 456.705 244.29C453.875 244.83 449.155 243.71 446.515 242.95C443.955 242.21 444.695 238.2 446.465 238.42C447.625 238.57 449.335 238.93 451.255 239.16C451.365 241 452.545 241.9 454.875 241.9C457.585 241.9 467.145 240.61 470.535 237.02C470.565 237.12 470.555 237.24 470.515 237.37Z" fill="url(#paint11_linear_146_1163)"/>
<path d="M447.665 246.95C449.745 247.52 453.835 247.03 457.385 247.01C459.205 247 467.835 244.17 468.475 242.45C469.235 240.41 459.095 242.2 456.225 242.57C452.695 243.02 449.185 242.47 448.255 242.67C446.725 242.99 445.345 246.31 447.665 246.95Z" fill="url(#paint12_linear_146_1163)"/>
<path d="M468.325 242.71C466.985 244.44 459.115 246.99 457.385 247C453.825 247.03 449.745 247.52 447.655 246.94C445.345 246.3 446.715 242.98 448.255 242.65C448.815 242.53 450.295 242.68 452.155 242.72C451.905 246.12 453.835 246.83 457.105 246.51C460.175 246.21 465.965 244.31 468.325 242.71Z" fill="url(#paint13_linear_146_1163)"/>
<path d="M424.675 240.29C431.065 233.69 441.645 233.67 447.375 232.85C449.985 232.48 452.055 246.74 449.775 247.21C444.595 248.29 431.715 247.6 427.025 248.25C424.695 248.57 423.065 241.96 424.675 240.29Z" fill="url(#paint14_linear_146_1163)"/>
<path d="M368.245 267.4C361.085 268.67 346.745 261.3 338.965 258.23C316.705 249.43 301.425 243.48 307.505 217.72C309.895 207.58 316.805 211.6 328.435 219.99C332.395 232.98 340.365 253.73 345.665 257.7C351.445 262.03 359.505 267.61 366.875 267.27C367.375 267.25 367.835 267.3 368.245 267.4Z" fill="url(#paint15_linear_146_1163)"/>
<path d="M369.915 247.66C365.985 249.89 365.205 252.93 365.055 251.91C364.905 250.87 364.535 249.15 362.505 245.51C363.645 246.59 364.715 247.67 365.695 248.74C366.765 248.24 368.185 247.92 369.915 247.66Z" fill="url(#paint16_linear_146_1163)"/>
<path d="M429.195 248.06C428.775 248.08 428.385 248.11 428.025 248.14C427.765 248.25 427.505 248.35 427.215 248.45C425.705 248.92 423.485 249.67 420.765 250.6C427.695 246.92 425.215 243.47 426.125 244.19C426.925 244.82 427.635 246.72 429.195 248.06Z" fill="url(#paint17_linear_146_1163)"/>
<path d="M325.155 361.11C321.015 367.42 277.075 443.61 283.365 447.8C289.005 451.56 264.265 453.83 259.005 450.82C253.415 447.63 287.235 412.07 259.355 398.63C249.845 394.04 334.485 346.88 325.155 361.11Z" fill="url(#paint18_linear_146_1163)"/>
<path d="M337.725 329.53C338.275 349.83 317.165 378.09 282.925 394.08C260.865 404.38 241.215 397.74 227.895 377.68C214.565 357.63 224.975 339.12 254.075 319.78C283.165 300.45 336.855 297.72 337.725 329.53Z" fill="url(#paint19_linear_146_1163)"/>
<path d="M336.415 451.73C325.135 452.03 264.805 451.73 259.915 451.73C255.025 451.73 283.595 432.8 287.095 432C288.915 431.59 309.155 436.65 333.505 433.85C357.855 431.04 350.335 451.36 336.415 451.73Z" fill="url(#paint20_linear_146_1163)"/>
<path d="M336.415 451.73C328.075 451.95 294.685 451.85 275.825 451.78C269.595 452.51 261.705 452.36 258.995 450.81C257.965 450.22 277.665 449.84 285.115 449.6C296.415 449.24 307.225 436.38 333.505 433.84C357.905 431.49 350.335 451.36 336.415 451.73Z" fill="url(#paint21_linear_146_1163)"/>
<path d="M259.555 398.73C247.155 397.6 236.275 390.3 227.895 377.69C214.575 357.63 224.975 339.12 254.075 319.79C283.175 300.45 336.865 297.72 337.725 329.54C337.735 330.1 337.735 330.67 337.725 331.24L336.595 337.22C336.595 345.11 316.505 375.75 297.565 387.2C278.625 398.64 272.705 402.01 272.825 408.29C272.975 415.67 271.585 420.23 269.535 422.37C273.815 406.84 264.055 400.89 259.555 398.73Z" fill="url(#paint22_linear_146_1163)"/>
<path d="M367.515 452.26H325.045C320.795 452.26 315.275 445.87 315.335 442.92C315.465 437.1 337.665 432.32 347.135 432.04C361.415 431.61 382.545 444.01 382.545 451.95C382.545 453.08 372.225 452.26 367.515 452.26Z" fill="url(#paint23_linear_146_1163)"/>
<path d="M382.545 451.95C382.545 451.92 382.545 451.9 382.545 451.87C379.675 451 363.985 451.24 359.335 446.39C350.315 436.99 342.635 435.27 334.365 435.52C331.465 435.61 327.365 436.12 323.075 436.95C318.595 438.67 315.385 440.72 315.335 442.92C315.265 445.87 320.795 452.26 325.045 452.26H367.515C372.225 452.26 382.545 453.08 382.545 451.95Z" fill="url(#paint24_linear_146_1163)"/>
<path d="M348.305 452.26H315.995C312.765 452.26 303.175 453.13 303.175 452.04C303.175 442.71 323.365 435.51 332.315 434.95C341.405 434.38 355.365 441.73 355.755 448.7C355.885 450.95 351.885 452.26 348.305 452.26Z" fill="url(#paint25_linear_146_1163)"/>
<path d="M350.615 450.73H316.075C313.245 450.73 305.845 451.36 303.275 450.94C303.215 451.3 303.175 451.67 303.175 452.04C303.175 453.13 312.765 452.26 315.995 452.26H348.305C351.115 452.26 354.165 451.45 355.295 450.02C353.895 450.48 352.215 450.73 350.615 450.73Z" fill="url(#paint26_linear_146_1163)"/>
<path d="M335.875 324.97C340.055 326.83 340.895 329.85 341.355 331.46C342.285 334.71 339.065 344.04 331.925 348.42C324.725 352.83 317.525 352.13 319.855 349.35C322.175 346.57 335.875 324.97 335.875 324.97Z" fill="url(#paint27_linear_146_1163)"/>
<path d="M272.205 152.14C273.985 163.16 268.835 205.67 263.265 222.85C254.055 251.23 192.335 259.87 168.185 297.02C139.305 341.45 152.865 398.72 203.475 403.36C254.095 408 327.115 370.64 339.075 318.84C348.825 276.58 332.575 236.65 324.675 219.93C316.785 203.21 318.855 199.15 320.375 189.34C321.895 179.54 270.675 142.65 272.205 152.14Z" fill="url(#paint28_linear_146_1163)"/>
<path d="M172.765 306.24C196.915 266.79 260.625 257.61 269.825 227.47C273.665 214.91 272.665 177.18 273.055 150.64C272.365 150.78 272.055 151.26 272.195 152.14C273.975 163.16 268.825 205.67 263.255 222.85C254.045 251.23 192.325 259.87 168.175 297.02C153.805 319.13 149.945 344.41 155.925 364.81C153.595 345.43 160.715 325.93 172.765 306.24Z" fill="url(#paint29_linear_146_1163)"/>
<path d="M339.075 318.85C327.125 370.65 254.095 408.01 203.475 403.37C194.895 402.58 187.395 400.3 180.995 396.81C255.395 395.13 312.505 311.69 313.525 264.98C314.015 242.68 296.805 212.51 300.055 183.71L305.845 170.75C311.905 176.29 320.845 186.25 320.365 189.33C318.855 199.14 316.775 203.21 324.665 219.92C332.575 236.66 348.825 276.59 339.075 318.85Z" fill="url(#paint30_linear_146_1163)"/>
<path d="M339.085 318.85C328.465 364.83 269.735 399.44 221.265 403.38C214.925 401.09 210.415 398.52 209.115 395.68C203.715 383.95 272.795 314.63 282.315 324.14C291.835 333.66 323.715 336.87 331.385 326.07C340.345 313.46 341.835 287.35 332.495 246.28C328.825 230.14 316.875 211.28 307.365 205.89C297.845 200.5 289.365 198.77 282.385 176.5L287.095 157.1C301.605 166.44 321.335 183.2 320.385 189.35C318.875 199.16 316.795 203.23 324.685 219.94C332.575 236.66 348.835 276.59 339.085 318.85Z" fill="url(#paint31_linear_146_1163)"/>
<path d="M338.695 326.73C345.385 330.26 345.885 338.06 344.185 342.54C341.645 349.26 330.535 352.21 325.025 358.38C303.215 382.8 236.955 428.68 181.195 396.87C190.945 393.16 272.675 331.39 278.245 326.75C296.815 350.9 337.175 351.3 340.655 333.99C341.095 331.79 339.565 327.86 338.695 326.73Z" fill="url(#paint32_linear_146_1163)"/>
<path d="M341.915 341.73C337.265 348.33 315.655 352.95 297.225 341.86C296.995 341.6 296.845 341.36 296.755 341.16C315.815 349.83 338.105 346.64 340.645 333.98C341.085 331.79 339.545 327.85 338.685 326.72C338.795 326.77 338.915 326.83 339.045 326.92C341.335 328.4 346.325 335.48 341.915 341.73Z" fill="url(#paint33_linear_146_1163)"/>
<path d="M333.655 351.92C330.485 353.85 327.285 355.83 325.025 358.37C323.395 360.2 321.515 362.14 319.415 364.17C322.765 358.31 301.285 348.73 303.005 348.73C316.065 355.98 328.985 354 333.655 351.92Z" fill="url(#paint34_linear_146_1163)"/>
<path d="M287.545 388C257.575 405.55 217.195 417.4 181.185 396.87C188.755 393.99 239.665 356.15 264.695 337.17L288.415 342.52C291.245 356.43 284.035 374.21 282.225 381.94C281.145 386.62 283.165 388.47 287.545 388Z" fill="url(#paint35_linear_146_1163)"/>
<path d="M291.515 337.55C292.695 362 284.225 379.69 255.375 398.86C226.525 418.03 186.815 406.99 169.595 387.86C153.445 369.92 177.825 332.04 206.675 312.86C235.525 293.7 289.985 305.8 291.515 337.55Z" fill="url(#paint36_linear_146_1163)"/>
<path d="M289.885 349.26C290.105 351.22 290.265 353.14 290.365 355.03C291.485 349.55 291.815 343.77 291.515 337.55C290.125 308.71 245.075 296.08 215.195 308.38C246.315 303.35 286.565 319.8 289.885 349.26Z" fill="url(#paint37_linear_146_1163)"/>
<path d="M288.905 356.17C287.405 363.56 224.405 435.34 220.175 441.61C214.915 449.42 204.085 446.01 198.815 443C193.225 439.81 222.845 414.65 193.485 403.35C172.875 395.43 290.315 349.22 288.905 356.17Z" fill="url(#paint38_linear_146_1163)"/>
<path d="M216.465 469.95C211.825 463.91 207.645 457.88 198.355 442.55C195.825 438.37 217.045 439.88 220.185 441.62C224.365 443.94 242.475 449.98 260.125 459.27C268.935 463.91 221.685 476.73 216.465 469.95Z" fill="url(#paint39_linear_146_1163)"/>
<path d="M220.175 441.62C220.435 441.76 220.745 441.92 221.105 442.09C215.535 441.24 208.125 440.69 209.175 439.83C210.175 439.01 218.695 438.6 223.965 436.83C222.005 439.21 220.675 440.88 220.175 441.62Z" fill="url(#paint40_linear_146_1163)"/>
<path d="M206.325 421.88C207.525 415.74 205.975 409.48 196.935 404.89C191.765 403.16 186.905 400.92 182.525 398.3C192.045 401.82 207.225 405.57 213.425 405.57C217.655 405.57 211.745 413.12 206.325 421.88Z" fill="url(#paint41_linear_146_1163)"/>
<path d="M216.465 469.94C211.835 463.93 207.675 457.91 198.465 442.73C198.415 442.67 198.365 442.62 198.335 442.55L198.355 442.54C202.395 448.38 205.285 450.3 212.765 449.1C218.145 448.23 228.275 448.49 236.135 448.25H236.145C243.195 451.14 251.715 454.83 260.115 459.26C268.935 463.91 221.685 476.73 216.465 469.94Z" fill="url(#paint42_linear_146_1163)"/>
<path d="M257.325 448.58C276.365 448.12 271.255 470.41 271.255 471.8C271.255 473.19 238.325 472.14 238.325 470.28C238.325 468.42 246.145 448.86 257.325 448.58Z" fill="url(#paint43_linear_146_1163)"/>
<path d="M271.305 471.38C271.275 471.58 271.265 471.73 271.265 471.8C271.265 473.19 238.335 472.13 238.335 470.28C238.335 468.83 243.115 456.55 250.545 451.13C255.755 453.13 258.265 456.36 259.105 462.1C260.045 468.58 261.655 471.06 271.305 471.38Z" fill="url(#paint44_linear_146_1163)"/>
<path d="M242.465 449.05C261.505 448.59 256.395 470.88 256.395 472.27C256.395 473.66 222.945 472.93 222.945 471.07C222.945 469.21 231.285 449.32 242.465 449.05Z" fill="url(#paint45_linear_146_1163)"/>
<path d="M256.395 472.27C256.395 473.66 222.945 472.93 222.945 471.07C222.945 469.63 227.915 457.44 235.345 451.84C242.325 454.39 242.615 465.91 243.665 469.07C244.755 472.35 254.785 472.05 256.395 472.27Z" fill="url(#paint46_linear_146_1163)"/>
<path d="M225.975 449.23C245.015 448.77 240.365 471.2 240.365 472.59C240.365 473.98 218.505 471.87 216.935 470.87C214.275 469.19 208.875 461.86 207.685 457.49C206.625 453.62 218.565 449.41 225.975 449.23Z" fill="url(#paint47_linear_146_1163)"/>
<path d="M240.605 470.44C240.475 471.58 240.355 472.36 240.355 472.59C240.355 473.98 218.495 471.87 216.925 470.88C214.265 469.2 208.875 461.87 207.675 457.5C207.675 457.48 207.665 457.46 207.665 457.44C211.055 461.47 215.665 466.96 218.255 468.42C221.345 470.16 237.885 471.72 240.605 470.44Z" fill="url(#paint48_linear_146_1163)"/>
<path d="M300.305 241.2C296.125 260.85 276.925 274.3 276.925 280.29C276.925 286.29 297.905 306.38 298.305 312.38C298.705 318.38 304.545 332.22 290.145 320.62C275.745 309.02 247.265 290.86 245.515 282.23C242.485 267.25 270.705 235.6 273.105 234C275.515 232.4 300.865 238.58 300.305 241.2Z" fill="url(#paint49_linear_146_1163)"/>
<path d="M294.705 211.91C311.625 235.41 295.135 251.32 280.315 268.72C269.525 281.38 254.475 289.26 248.895 281.51C243.315 273.76 254.505 258.14 265.025 243.01C278.435 223.71 286.305 200.25 294.705 211.91Z" fill="url(#paint50_linear_146_1163)"/>
<path d="M296.685 321.58C287.325 316.35 251.205 286.85 248.345 280.84C245.485 274.84 249.915 271.52 256.715 272.74C263.515 273.96 268.595 272.88 275.215 283.02C281.845 293.16 302.145 312.69 303.875 317.22C305.605 321.75 299.775 323.31 296.685 321.58Z" fill="url(#paint51_linear_146_1163)"/>
<path d="M309.785 318.49C311.835 319.31 314.915 322.23 317.825 324.46C319.315 325.6 324.755 333.24 324.265 335.05C323.685 337.18 316.675 330.28 314.525 328.2C311.885 325.65 308.305 323.61 307.655 322.87C306.585 321.64 307.505 317.58 309.785 318.49Z" fill="url(#paint52_linear_146_1163)"/>
<path d="M324.265 335.05C323.685 337.19 316.675 330.28 314.525 328.2C311.885 325.65 308.315 323.62 307.655 322.87C306.585 321.64 307.495 317.57 309.775 318.49C310.275 318.69 310.845 319.02 311.445 319.43C313.365 322.16 315.655 325.73 316.845 326.76C318.305 328 321.875 335.83 324.265 335.05Z" fill="url(#paint53_linear_146_1163)"/>
<path d="M316.395 327.63C317.795 329.33 319.555 332.62 321.045 335.97C321.805 337.68 322.455 347.75 321.155 349.11C319.625 350.71 316.785 341.28 315.895 338.43C314.805 334.92 312.645 331.42 312.435 330.46C312.075 328.86 314.835 325.73 316.395 327.63Z" fill="url(#paint54_linear_146_1163)"/>
<path d="M320.875 349.28C319.305 349.65 316.725 341.12 315.885 338.43C314.795 334.92 312.635 331.42 312.425 330.46C312.075 328.87 314.825 325.74 316.385 327.63C316.535 327.82 316.705 328.03 316.865 328.25C315.955 329.61 315.395 330.74 315.905 331.59C316.515 332.6 318.635 334.31 318.785 337.39C318.935 340.47 318.535 346.88 320.855 349.25C320.865 349.26 320.875 349.26 320.875 349.28Z" fill="url(#paint55_linear_146_1163)"/>
<path d="M312.045 328.2C313.675 330.37 317.365 334.36 317.895 337.18C318.375 339.76 317.345 351.1 315.635 352.56C313.615 354.29 312.905 342.12 312.415 339.54C311.685 335.63 308.525 333.12 307.435 331.08C306.605 329.53 310.465 326.09 312.045 328.2Z" fill="url(#paint56_linear_146_1163)"/>
<path d="M315.265 352.74C313.525 352.77 312.875 341.97 312.425 339.55C311.695 335.63 308.535 333.13 307.445 331.09C306.605 329.53 310.465 326.09 312.055 328.21C312.735 329.11 313.765 330.33 314.775 331.64C313.195 332.77 312.065 334.02 312.765 336.13C314.865 342.43 313.535 352.04 315.115 352.68C315.175 352.69 315.225 352.72 315.265 352.74Z" fill="url(#paint57_linear_146_1163)"/>
<path d="M307.695 330.21C308.875 332.5 311.925 335.29 312.425 339.55C312.795 342.69 311.165 351.58 309.295 352.84C307.095 354.34 307.095 344.62 306.385 341.11C305.605 337.24 303.735 331.79 303.735 330.63C303.745 328.71 306.375 327.67 307.695 330.21Z" fill="url(#paint58_linear_146_1163)"/>
<path d="M309.295 352.84C307.095 354.33 307.095 344.62 306.395 341.11C305.615 337.25 303.745 331.79 303.745 330.63C303.755 328.71 306.385 327.66 307.705 330.21C308.445 331.63 309.905 333.25 311.015 335.3C309.135 336.3 308.055 336.77 307.875 339.94C307.675 343.31 307.155 352.64 309.295 352.84Z" fill="url(#paint59_linear_146_1163)"/>
<path d="M304.965 331.95C305.195 334.01 307.105 338.99 306.715 342.33C306.515 344.04 303.085 350.01 301.695 350.3C300.055 350.65 301.705 344.5 301.705 341.93C301.715 338.51 300.575 333 300.825 332.16C301.245 330.78 304.715 329.66 304.965 331.95Z" fill="url(#paint60_linear_146_1163)"/>
<path d="M306.375 338.02C304.955 338.36 303.175 338.85 302.685 340.64C302.105 342.77 300.555 349.64 301.325 350.22C301.355 350.24 301.375 350.27 301.395 350.29C300.275 349.82 301.705 344.32 301.715 341.94C301.725 338.52 300.575 333.01 300.835 332.17C301.245 330.78 304.715 329.66 304.975 331.95C305.115 333.22 305.885 335.6 306.375 338.02Z" fill="url(#paint61_linear_146_1163)"/>
<path d="M295.055 313.59C297.575 311.68 300.485 311.95 303.325 313.3C308.925 315.95 313.935 324.04 315.645 326.47C318.225 330.13 304.285 340.25 301.765 337.73C293.775 329.72 291.585 316.22 295.055 313.59Z" fill="url(#paint62_linear_146_1163)"/>
<path d="M315.175 326.29C316.455 328.17 314.205 331.12 311.255 333.43C308.325 335.71 304.355 339.2 303.265 336.43C302.485 334.43 307.545 331.93 309.545 330.29C311.535 328.65 314.245 324.94 315.175 326.29Z" fill="url(#paint63_linear_146_1163)"/>
<path d="M293.315 319.46C281.305 311.32 253.645 288.51 248.875 281.72L248.885 281.52C254.135 288.29 282.205 310.05 285.455 312.35C288.705 314.64 292.655 316.45 293.855 315.02C294.665 314.06 293.865 316.8 293.315 319.46Z" fill="url(#paint64_linear_146_1163)"/>
<path d="M280.755 268.2C280.615 268.37 280.465 268.55 280.315 268.72C277.415 272.13 274.195 275.19 270.945 277.69C268.125 275.75 262.905 273.74 265.695 274.52C270.885 275.96 276.745 271.58 280.755 268.2Z" fill="url(#paint65_linear_146_1163)"/>
<path d="M266.355 276.57C271.065 278.65 273.455 284.63 279.995 291.67C286.535 298.71 300.275 312.04 299.105 312.32C297.615 312.68 286.835 302.5 280.005 295.91C273.175 289.31 259.465 273.53 266.355 276.57Z" fill="url(#paint66_linear_146_1163)"/>
<path d="M286.795 212.25C282.855 214.53 270.515 236.35 265.185 243.53C258.765 252.18 248.125 268.85 250.145 269.45C256.635 271.36 272.885 256.64 277.925 247.96C290.515 226.26 292.655 208.86 286.795 212.25Z" fill="url(#paint67_linear_146_1163)"/>
<path d="M296.755 98.83C298.965 73.68 288.155 53.95 293.005 33.66C297.855 13.36 336.925 0 342.655 0C348.385 0 338.995 29.35 338.555 43.47C338.115 57.59 320.575 83.83 321.015 87.8C321.455 91.77 296.405 102.77 296.755 98.83Z" fill="url(#paint68_linear_146_1163)"/>
<path d="M345.605 4.18994C346.875 13.5099 337.915 26.6599 337.635 35.0499C337.225 47.7499 319.345 70.7199 318.235 74.1399C316.655 78.9699 299.265 91.8699 296.935 76.9299C293.525 55.0499 291.735 45.6699 293.905 30.6799C293.545 31.6699 293.245 32.6599 293.005 33.6499C288.155 53.9399 298.955 73.6699 296.755 98.8199C296.405 102.76 321.465 91.7599 321.025 87.7899C320.585 83.8199 338.125 57.5799 338.565 43.4599C338.905 32.5299 348.025 13.2099 345.605 4.18994Z" fill="url(#paint69_linear_146_1163)"/>
<path d="M371.565 155.34C370.305 151.15 367.035 139.85 365.675 132.39C364.355 126.86 362.235 126.41 361.595 121.13C359.385 103.04 325.245 82.1001 302.745 88.7201C280.925 95.1401 269.655 112.35 269.655 134.16C269.655 153.45 279.305 171.06 296.205 174.87C308.475 182.78 321.845 183.45 329.215 182.69C342.005 181.37 372.885 159.75 371.565 155.34Z" fill="url(#paint70_linear_146_1163)"/>
<path d="M288.425 137.87C284.015 141.73 296.895 153.47 308.325 158.04C319.755 162.61 335.185 164.47 340.795 164.26C346.405 164.05 351.855 158.61 354.565 155.07C357.265 151.54 341.215 130.8 334.145 132.04C327.075 133.3 295.075 132.05 288.425 137.87Z" fill="url(#paint71_linear_146_1163)"/>
<path d="M354.105 149.17C360.804 149.17 366.235 143.144 366.235 135.71C366.235 128.276 360.804 122.25 354.105 122.25C347.406 122.25 341.975 128.276 341.975 135.71C341.975 143.144 347.406 149.17 354.105 149.17Z" fill="url(#paint72_linear_146_1163)"/>
<path d="M353.535 147.56C358.92 147.56 363.285 143.114 363.285 137.63C363.285 132.146 358.92 127.7 353.535 127.7C348.15 127.7 343.785 132.146 343.785 137.63C343.785 143.114 348.15 147.56 353.535 147.56Z" fill="url(#paint73_linear_146_1163)"/>
<path d="M353.535 146.61C358.406 146.61 362.355 142.589 362.355 137.63C362.355 132.67 358.406 128.65 353.535 128.65C348.664 128.65 344.715 132.67 344.715 137.63C344.715 142.589 348.664 146.61 353.535 146.61Z" fill="url(#paint74_linear_146_1163)"/>
<path d="M351.955 145.95C355.545 145.95 358.455 142.736 358.455 138.77C358.455 134.805 355.545 131.59 351.955 131.59C348.365 131.59 345.455 134.805 345.455 138.77C345.455 142.736 348.365 145.95 351.955 145.95Z" fill="url(#paint75_linear_146_1163)"/>
<path d="M359.095 134.6C359.095 135.99 358.075 137.13 356.805 137.13C355.545 137.13 354.515 136 354.515 134.6C354.515 133.2 355.535 132.07 356.805 132.07C358.075 132.07 359.095 133.21 359.095 134.6Z" fill="url(#paint76_linear_146_1163)"/>
<path d="M354.145 129.25C360.385 129.25 363.125 132.55 366.155 137.23C366.205 136.73 366.235 136.23 366.235 135.72C366.235 128.29 360.805 122.26 354.105 122.26C347.405 122.26 341.975 128.28 341.975 135.72C341.975 136.23 342.005 136.74 342.055 137.23C342.725 131.87 347.905 129.25 354.145 129.25Z" fill="url(#paint77_linear_146_1163)"/>
<path d="M347.185 176C353.555 180.55 361.035 178.94 367.975 169.23C374.905 159.52 376.315 147.51 370.105 142.74C364.715 138.6 362.335 150.8 346.075 152.17C336.385 152.97 340.815 171.45 347.185 176Z" fill="url(#paint78_linear_146_1163)"/>
<path d="M307.905 157.89C315.526 157.89 321.705 151.152 321.705 142.84C321.705 134.528 315.526 127.79 307.905 127.79C300.283 127.79 294.105 134.528 294.105 142.84C294.105 151.152 300.283 157.89 307.905 157.89Z" fill="url(#paint79_linear_146_1163)"/>
<path d="M306.925 157.75C313.05 157.75 318.015 152.78 318.015 146.65C318.015 140.52 313.05 135.55 306.925 135.55C300.8 135.55 295.835 140.52 295.835 146.65C295.835 152.78 300.8 157.75 306.925 157.75Z" fill="url(#paint80_linear_146_1163)"/>
<path d="M306.925 156.68C312.459 156.68 316.945 152.19 316.945 146.65C316.945 141.111 312.459 136.62 306.925 136.62C301.391 136.62 296.905 141.111 296.905 146.65C296.905 152.19 301.391 156.68 306.925 156.68Z" fill="url(#paint81_linear_146_1163)"/>
<path d="M306.575 153.79C310.573 153.79 313.815 150.267 313.815 145.92C313.815 141.574 310.573 138.05 306.575 138.05C302.576 138.05 299.335 141.574 299.335 145.92C299.335 150.267 302.576 153.79 306.575 153.79Z" fill="url(#paint82_linear_146_1163)"/>
<path d="M315.455 142.26C315.455 143.7 314.385 144.86 313.065 144.86C311.745 144.86 310.675 143.7 310.675 142.26C310.675 140.82 311.745 139.66 313.065 139.66C314.385 139.66 315.455 140.82 315.455 142.26Z" fill="url(#paint83_linear_146_1163)"/>
<path d="M307.905 127.79C300.285 127.79 294.105 134.53 294.105 142.84C294.105 143.53 294.155 144.21 294.235 144.87C295.915 141.96 300.275 136.52 306.925 136.62C317.225 136.77 319.415 140.89 321.705 142.84C321.705 134.52 315.525 127.79 307.905 127.79Z" fill="url(#paint84_linear_146_1163)"/>
<path d="M331.155 190.79C315.525 186.04 304.455 187.93 294.785 185.24C278.015 180.58 273.295 160.8 271.955 151.13C270.415 140.05 290.795 158.43 316.485 154.71C337.715 151.64 341.855 194.04 331.155 190.79Z" fill="url(#paint85_linear_146_1163)"/>
<path d="M336.825 180.53C336.985 187.08 335.055 191.98 331.145 190.79C315.515 186.04 304.445 187.93 294.785 185.24C278.015 180.58 273.295 160.8 271.955 151.13C271.885 150.61 271.855 150.15 271.885 149.76C270.415 144.87 269.655 139.59 269.655 134.17C269.655 131.54 269.815 128.97 270.145 126.48C270.545 157.86 285.435 171.7 292.025 176.44C299.555 181.86 327.645 178.51 337.845 180.11C337.495 180.26 337.165 180.4 336.825 180.53Z" fill="url(#paint86_linear_146_1163)"/>
<path d="M356.965 174.45C362.125 180 364.135 190.35 365.055 196.38C365.465 199.03 360.585 204.69 357.345 207.24C352.685 210.91 345.915 207.77 335.155 200.54C321.625 191.45 321.625 186.2 322.795 168.73C323.765 154.34 346.715 163.42 356.965 174.45Z" fill="url(#paint87_linear_146_1163)"/>
<path d="M334.985 197.18C327.335 191.42 324.325 185.88 322.325 179.3C322.565 187.73 325.005 193.72 335.155 200.55C345.915 207.78 352.685 210.93 357.345 207.25C357.595 207.05 357.855 206.83 358.125 206.6C353.435 208.42 345.705 205.26 334.985 197.18Z" fill="url(#paint88_linear_146_1163)"/>
<path d="M356.615 172.77C361.155 179.28 364.265 189.57 365.015 196.5C365.175 197.94 362.205 199.44 361.055 200.24C355.675 203.99 344.885 196.37 334.865 187.98C326.365 180.86 323.255 169.3 328.635 165.54C334.015 161.78 350.845 164.5 356.615 172.77Z" fill="url(#paint89_linear_146_1163)"/>
<path d="M354.785 172.82C360.285 180.71 364.725 194.58 359.665 198.11C354.605 201.64 344.515 190.56 334.715 183.14C326.285 176.77 323.245 169.3 328.305 165.77C333.365 162.25 349.275 164.93 354.785 172.82Z" fill="url(#paint90_linear_146_1163)"/>
<path d="M325.965 169.2C325.175 173.08 327.975 181.45 334.235 186.18C343.605 193.26 353.665 200.91 358.955 198.5C362.035 192.1 355.415 183.32 351.115 177.15C345.735 169.43 331.365 166.01 325.965 169.2Z" fill="url(#paint91_linear_146_1163)"/>
<path d="M339.395 188.7C339.785 187.94 345.925 188.4 348.365 189.97C350.805 191.54 356.585 196.74 355.395 198.09C354.215 199.45 338.145 191.16 339.395 188.7Z" fill="url(#paint92_linear_146_1163)"/>
<path d="M351.805 188.24C351.755 190.41 355.235 194.34 357.225 197.48C358.295 199.18 360.105 194.73 357.805 190.8C355.505 186.86 351.825 187.43 351.805 188.24Z" fill="url(#paint93_linear_146_1163)"/>
<path d="M364.065 167.25C363.625 170.34 363.375 174.67 364.065 177.4C364.755 180.13 368.115 182.43 372.005 180.49C375.535 178.73 380.275 170.29 372.775 162.35C369.685 159.7 364.065 165.05 364.065 167.25Z" fill="url(#paint94_linear_146_1163)"/>
<path d="M369.055 178.26C368.535 175.98 370.705 170.8 371.745 168.41C372.505 166.64 372.975 164.45 373.705 163.42C373.415 163.06 373.115 162.7 372.775 162.34C369.685 159.69 364.065 165.04 364.065 167.24C363.625 170.33 363.375 174.66 364.065 177.39C364.755 180.12 368.115 182.42 372.005 180.48C372.595 180.19 373.215 179.7 373.815 179.07C371.635 180.37 369.495 180.17 369.055 178.26Z" fill="url(#paint95_linear_146_1163)"/>
<path d="M367.835 168.9C369.605 177.04 367.285 180.19 363.575 181.64C359.865 183.09 334.615 181.06 325.045 171.86C321.855 168.67 321.785 160.76 331.715 160.76C341.645 160.76 366.425 165.36 367.835 168.9Z" fill="url(#paint96_linear_146_1163)"/>
<path d="M367.965 169.52C367.925 169.32 367.885 169.12 367.835 168.9C367.815 168.85 367.785 168.79 367.755 168.74C367.725 168.69 367.695 168.65 367.665 168.6C367.655 168.59 367.655 168.58 367.645 168.58C367.565 168.47 367.455 168.37 367.335 168.26C363.515 164.83 341.045 160.77 331.715 160.77C331.195 160.77 330.705 160.8 330.245 160.84C346.585 168.91 362.155 172.4 367.225 175.5C366.425 177.8 364.745 179.09 362.635 179.88C359.235 181.15 338.545 179.76 326.665 173.25C337.195 181.28 360.065 183.03 363.585 181.65C367.195 180.23 369.495 177.2 367.965 169.52Z" fill="url(#paint97_linear_146_1163)"/>
<path d="M328.015 171.41C325.415 171.51 325.065 173.97 325.195 176.65C325.305 178.85 323.625 175.32 324.735 172.46C325.755 169.82 330.315 171.32 328.015 171.41Z" fill="url(#paint98_linear_146_1163)"/>
<path d="M342.495 133.04C346.705 125.67 357.715 125.77 364.505 128.51C367.045 130.02 370.025 121.99 363.245 118.23C356.465 114.47 344.805 118.35 340.775 128.17C336.745 137.99 340.735 136.13 342.495 133.04Z" fill="url(#paint99_linear_146_1163)"/>
<path d="M364.975 120.37C365.555 120.69 366.075 121.05 366.535 121.42C365.885 120.24 364.835 119.12 363.245 118.23C356.465 114.47 344.805 118.35 340.775 128.17C340.705 128.34 340.645 128.49 340.585 128.65C346.265 119.69 357.905 116.44 364.975 120.37Z" fill="url(#paint100_linear_146_1163)"/>
<path d="M365.015 127.23C357.965 124.29 346.535 124.19 342.165 132.1C341.275 133.72 339.835 135.02 339.075 134.71C339.335 136.5 341.375 135.03 342.505 133.05C346.715 125.68 357.725 125.78 364.515 128.52C365.575 129.15 366.715 128.11 367.185 126.4C366.595 127.3 365.785 127.7 365.015 127.23Z" fill="url(#paint101_linear_146_1163)"/>
<path d="M372.355 161.16C368.015 158.44 353.045 155.95 347.015 137.37C346.705 136.68 344.125 123.29 344.325 118.75C344.435 116.19 305.995 123.41 303.345 124.32C300.515 125.3 320.135 134.43 324.495 142.86C328.595 150.79 339.555 162.54 347.735 167.25C355.915 171.96 374.045 162.99 372.355 161.16Z" fill="url(#paint102_linear_146_1163)"/>
<path d="M347.735 167.25C339.555 162.54 328.595 150.79 324.495 142.87C322.465 138.94 317.125 134.86 312.285 131.52C320.865 129.24 323.885 136.41 331.525 145.62C342.275 158.58 359.415 162.74 366.875 158.67C369.225 159.7 371.175 160.42 372.355 161.15C374.045 162.99 355.915 171.96 347.735 167.25Z" fill="url(#paint103_linear_146_1163)"/>
<path d="M374.195 162.28C373.095 159.12 369.345 162.28 366.255 164.04C362.255 166.33 346.555 163.29 345.965 166.69C345.375 170.09 358.235 177.71 366.705 176.4C375.465 175.04 375.305 165.44 374.195 162.28Z" fill="url(#paint104_linear_146_1163)"/>
<path d="M367.425 174.68C360.995 175.68 354.025 168.64 349.065 167.39C348.115 167.15 346.065 166.08 345.955 166.69C345.365 170.09 359.305 176.76 367.745 175.32C374.825 174.11 374.825 167.47 374.555 163.86C374.035 167.46 372.725 173.86 367.425 174.68Z" fill="url(#paint105_linear_146_1163)"/>
<path d="M319.695 135.68C315.315 132.69 307.955 130.75 300.495 135.1C293.035 139.45 280.965 144.31 285.095 132.83C289.065 121.8 304.145 121.15 312.005 124.01C321.705 127.54 323.855 138.52 319.695 135.68Z" fill="url(#paint106_linear_146_1163)"/>
<path d="M314.255 127.32C316.685 128.2 318.715 129.48 320.365 130.92C318.875 128.36 316.125 125.52 311.995 124.02C304.175 121.18 289.255 121.81 285.165 132.64C292.195 124.54 306.305 124.43 314.255 127.32Z" fill="url(#paint107_linear_146_1163)"/>
<path d="M320.585 135.6C316.205 132.61 306.565 129.37 299.105 133.72C294.295 136.53 287.575 139.54 284.505 138.25C286.095 142.18 294.685 138.49 300.485 135.1C307.945 130.75 315.305 132.69 319.685 135.68C321.165 136.69 321.845 135.95 321.665 134.41C321.725 135.7 320.835 135.77 320.585 135.6Z" fill="url(#paint108_linear_146_1163)"/>
<path d="M308.365 87.6499C290.425 92.1599 293.925 100.31 290.755 104.99C289.125 107.39 284.645 105.15 280.595 102.39C286.005 96.1899 293.405 91.4699 302.735 88.7299C304.545 88.1899 306.435 87.8299 308.365 87.6499Z" fill="url(#paint109_linear_146_1163)"/>
<path d="M314.975 118.59C314.975 120.78 310.165 119.35 305.165 119.35C300.165 119.35 290.705 121.7 290.705 119.51C290.705 117.32 300.965 112.84 305.955 112.84C310.965 112.84 314.975 116.4 314.975 118.59Z" fill="url(#paint110_linear_146_1163)"/>
<path d="M313.895 117.47C313.895 118.46 309.945 116.14 305.215 116.14C300.485 116.14 291.905 119.66 291.905 118.67C291.905 117.68 299.715 113.05 306.155 113.06C310.885 113.08 313.895 116.48 313.895 117.47Z" fill="url(#paint111_linear_146_1163)"/>
<path d="M313.655 116.03C313.955 116.54 314.125 117.04 314.125 117.48C314.125 119.67 309.315 118.24 304.315 118.24C300.265 118.24 293.285 119.78 290.785 119.2C290.745 119.31 290.715 119.41 290.715 119.51C290.715 121.7 300.185 119.35 305.175 119.35C310.165 119.35 314.985 120.79 314.985 118.59C314.975 117.83 314.485 116.91 313.655 116.03Z" fill="url(#paint112_linear_146_1163)"/>
<path d="M230.355 93.8901C237.505 104.19 248.365 112.79 257.795 115C267.215 117.21 273.865 117.07 277.315 118.66C280.775 120.25 294.085 106.39 292.025 100.84C289.965 95.2901 288.165 68.5401 267.415 63.1101C237.335 55.2401 194.465 52.6801 191.595 55.2601C188.725 57.8401 223.215 83.6001 230.355 93.8901Z" fill="url(#paint113_linear_146_1163)"/>
<path d="M282.675 103.9C281.505 98.2301 278.445 72.2601 262.305 65.8301C245.335 59.0601 202.325 56.1201 194.195 57.5301C190.115 58.2401 221.875 80.1301 228.035 86.6901C235.145 94.2601 240.375 104.64 252.395 109.4C260.625 112.66 269.875 113.97 277.425 113.09C280.915 112.7 282.965 105.27 282.675 103.9Z" fill="url(#paint114_linear_146_1163)"/>
<path d="M282.615 105.55C281.445 99.88 273.895 74.54 257.755 68.11C240.785 61.34 202.335 56.12 194.205 57.53C190.125 58.24 221.815 81.78 227.985 88.34C235.095 95.91 240.325 106.29 252.345 111.05C260.575 114.31 269.825 115.62 277.375 114.74C280.845 114.35 282.895 106.92 282.615 105.55Z" fill="url(#paint115_linear_146_1163)"/>
<path d="M257.755 68.1101C240.925 61.4001 202.865 56.2001 194.415 57.5001C204.305 57.1301 230.725 63.1701 245.035 68.8701C259.835 74.7701 268.125 92.9701 270.715 97.5801C274.045 103.52 274.725 108.9 267.005 109.92C260.095 110.83 253.075 109.77 245.515 106.78C244.925 106.55 244.365 106.3 243.815 106.04C246.265 108.02 249.055 109.74 252.345 111.05C260.575 114.31 269.825 115.62 277.375 114.74C280.845 114.34 282.895 106.91 282.615 105.54C281.435 99.8801 273.895 74.5501 257.755 68.1101Z" fill="url(#paint116_linear_146_1163)"/>
<path d="M358.075 109.98C359.445 113.35 355.495 111.66 351.295 113.02C347.105 114.38 342.355 117.3 341.675 115.21C340.995 113.12 344.365 108.61 348.555 107.25C352.755 105.89 356.605 106.37 358.075 109.98Z" fill="url(#paint117_linear_146_1163)"/>
<path d="M356.545 108.58C357.245 110 353.775 108.92 350.185 110.08C346.585 111.25 342.605 114.55 342.305 113.65C342.015 112.75 345.075 108.87 348.665 107.7C352.265 106.54 355.805 107.06 356.545 108.58Z" fill="url(#paint118_linear_146_1163)"/>
<path d="M358.075 109.98C357.975 109.75 357.875 109.53 357.755 109.32C358.755 112.27 354.915 110.73 350.865 112.05C347.125 113.26 342.935 115.72 341.605 114.75C341.615 114.92 341.635 115.08 341.685 115.22C342.365 117.31 347.105 114.39 351.305 113.03C355.495 111.66 359.455 113.35 358.075 109.98Z" fill="url(#paint119_linear_146_1163)"/>
<path d="M341.535 3.43991C341.355 8.94991 306.325 16.1799 303.085 36.1899C299.835 56.1999 304.535 78.9999 301.555 80.3499C298.575 81.6999 290.615 51.0599 294.425 34.8399C299.835 11.8499 341.675 -0.660087 341.535 3.43991Z" fill="url(#paint120_linear_146_1163)"/>
<defs>
<linearGradient id="paint0_linear_146_1163" x1="207.449" y1="389.479" x2="8.31065" y2="340.52" gradientUnits="userSpaceOnUse">
<stop stop-color="#E77A21"/>
<stop offset="0.2401" stop-color="#E47922"/>
<stop offset="0.4159" stop-color="#DB7523"/>
<stop offset="0.5711" stop-color="#CB6F26"/>
<stop offset="0.7146" stop-color="#B4662B"/>
<stop offset="0.8498" stop-color="#975B30"/>
<stop offset="0.9774" stop-color="#744D37"/>
<stop offset="1" stop-color="#6D4A38"/>
</linearGradient>
<linearGradient id="paint1_linear_146_1163" x1="94.2738" y1="330.482" x2="115.691" y2="442.075" gradientUnits="userSpaceOnUse">
<stop stop-color="white"/>
<stop offset="1" stop-color="#D4B8A1"/>
</linearGradient>
<linearGradient id="paint2_linear_146_1163" x1="356.193" y1="213.555" x2="336.415" y2="246.065" gradientUnits="userSpaceOnUse">
<stop stop-color="#FFC78F"/>
<stop offset="1" stop-color="#E77A21"/>
</linearGradient>
<linearGradient id="paint3_linear_146_1163" x1="401.761" y1="240.79" x2="382.053" y2="273.184" gradientUnits="userSpaceOnUse">
<stop stop-color="#FFC78F"/>
<stop offset="1" stop-color="#E77A21"/>
</linearGradient>
<linearGradient id="paint4_linear_146_1163" x1="433.632" y1="238.659" x2="436.082" y2="227.098" gradientUnits="userSpaceOnUse">
<stop stop-color="#E77A21"/>
<stop offset="0.3805" stop-color="#BB6929"/>
<stop offset="1" stop-color="#6D4A38"/>
</linearGradient>
<linearGradient id="paint5_linear_146_1163" x1="434.551" y1="223.483" x2="433.562" y2="238.87" gradientUnits="userSpaceOnUse">
<stop stop-color="white"/>
<stop offset="1" stop-color="#D4B8A1"/>
</linearGradient>
<linearGradient id="paint6_linear_146_1163" x1="452.007" y1="229.548" x2="456.065" y2="235.443" gradientUnits="userSpaceOnUse">
<stop stop-color="#E77A21"/>
<stop offset="0.3805" stop-color="#BB6929"/>
<stop offset="1" stop-color="#6D4A38"/>
</linearGradient>
<linearGradient id="paint7_linear_146_1163" x1="454.075" y1="228.837" x2="453.604" y2="236.158" gradientUnits="userSpaceOnUse">
<stop stop-color="white"/>
<stop offset="1" stop-color="#D4B8A1"/>
</linearGradient>
<linearGradient id="paint8_linear_146_1163" x1="455.522" y1="232.83" x2="458.585" y2="238.496" gradientUnits="userSpaceOnUse">
<stop stop-color="#E77A21"/>
<stop offset="0.3805" stop-color="#BB6929"/>
<stop offset="1" stop-color="#6D4A38"/>
</linearGradient>
<linearGradient id="paint9_linear_146_1163" x1="438.07" y1="242.645" x2="471.995" y2="232.116" gradientUnits="userSpaceOnUse">
<stop stop-color="white"/>
<stop offset="1" stop-color="#D4B8A1"/>
</linearGradient>
<linearGradient id="paint10_linear_146_1163" x1="456.441" y1="236.705" x2="458.585" y2="240.84" gradientUnits="userSpaceOnUse">
<stop stop-color="#E77A21"/>
<stop offset="0.3805" stop-color="#BB6929"/>
<stop offset="1" stop-color="#6D4A38"/>
</linearGradient>
<linearGradient id="paint11_linear_146_1163" x1="439.548" y1="245.068" x2="471.448" y2="235.168" gradientUnits="userSpaceOnUse">
<stop stop-color="white"/>
<stop offset="1" stop-color="#D4B8A1"/>
</linearGradient>
<linearGradient id="paint12_linear_146_1163" x1="455.25" y1="240.244" x2="458.534" y2="245.768" gradientUnits="userSpaceOnUse">
<stop stop-color="#E77A21"/>
<stop offset="0.3805" stop-color="#BB6929"/>
<stop offset="1" stop-color="#6D4A38"/>
</linearGradient>
<linearGradient id="paint13_linear_146_1163" x1="441.733" y1="248.415" x2="468.75" y2="240.03" gradientUnits="userSpaceOnUse">
<stop stop-color="white"/>
<stop offset="1" stop-color="#D4B8A1"/>
</linearGradient>
<linearGradient id="paint14_linear_146_1163" x1="418.576" y1="248.339" x2="451.758" y2="238.041" gradientUnits="userSpaceOnUse">
<stop offset="0.1489" stop-color="#FFC78F"/>
<stop offset="0.2819" stop-color="#FEC288"/>
<stop offset="0.4692" stop-color="#FAB676"/>
<stop offset="0.6886" stop-color="#F3A058"/>
<stop offset="0.9306" stop-color="#EA832E"/>
<stop offset="1" stop-color="#E77A21"/>
</linearGradient>
<linearGradient id="paint15_linear_146_1163" x1="361.253" y1="231.383" x2="328.965" y2="243.865" gradientUnits="userSpaceOnUse">
<stop stop-color="white"/>
<stop offset="1" stop-color="#D4B8A1"/>
</linearGradient>
<linearGradient id="paint16_linear_146_1163" x1="370.326" y1="246.311" x2="365.971" y2="247.994" gradientUnits="userSpaceOnUse">
<stop stop-color="white"/>
<stop offset="1" stop-color="#D4B8A1"/>
</linearGradient>
<linearGradient id="paint17_linear_146_1163" x1="435.719" y1="253.668" x2="418.92" y2="245.064" gradientUnits="userSpaceOnUse">
<stop stop-color="white"/>
<stop offset="1" stop-color="#D4B8A1"/>
</linearGradient>
<linearGradient id="paint18_linear_146_1163" x1="304.504" y1="434.461" x2="281" y2="377.688" gradientUnits="userSpaceOnUse">
<stop stop-color="#FFC78F"/>
<stop offset="1" stop-color="#E77A21"/>
</linearGradient>
<linearGradient id="paint19_linear_146_1163" x1="318.331" y1="438.283" x2="292.052" y2="374.809" gradientUnits="userSpaceOnUse">
<stop stop-color="#FFC78F"/>
<stop offset="1" stop-color="#E77A21"/>
</linearGradient>
<linearGradient id="paint20_linear_146_1163" x1="301.568" y1="438.753" x2="283.336" y2="394.716" gradientUnits="userSpaceOnUse">
<stop stop-color="#FFC78F"/>
<stop offset="1" stop-color="#E77A21"/>
</linearGradient>
<linearGradient id="paint21_linear_146_1163" x1="236.66" y1="505.399" x2="362.32" y2="398.279" gradientUnits="userSpaceOnUse">
<stop stop-color="white"/>
<stop offset="1" stop-color="#D4B8A1"/>
</linearGradient>
<linearGradient id="paint22_linear_146_1163" x1="175.528" y1="443.896" x2="372.959" y2="275.593" gradientUnits="userSpaceOnUse">
<stop stop-color="white"/>
<stop offset="1" stop-color="#D4B8A1"/>
</linearGradient>
<linearGradient id="paint23_linear_146_1163" x1="362.333" y1="421.408" x2="352.941" y2="439.482" gradientUnits="userSpaceOnUse">
<stop stop-color="#EF9244"/>
<stop offset="1" stop-color="#6D4A38"/>
</linearGradient>
<linearGradient id="paint24_linear_146_1163" x1="357.522" y1="434.799" x2="348.579" y2="447.601" gradientUnits="userSpaceOnUse">
<stop stop-color="#E3E3E3"/>
<stop offset="1" stop-color="#BAA28D"/>
</linearGradient>
<linearGradient id="paint25_linear_146_1163" x1="305.505" y1="451.553" x2="343.183" y2="442.946" gradientUnits="userSpaceOnUse">
<stop stop-color="#EF9244"/>
<stop offset="0.2442" stop-color="#C87C40"/>
<stop offset="0.5895" stop-color="#97613C"/>
<stop offset="0.8524" stop-color="#785039"/>
<stop offset="1" stop-color="#6D4A38"/>
</linearGradient>
<linearGradient id="paint26_linear_146_1163" x1="306.526" y1="456.192" x2="343.613" y2="447.72" gradientUnits="userSpaceOnUse">
<stop stop-color="#E3E3E3"/>
<stop offset="1" stop-color="#BAA28D"/>
</linearGradient>
<linearGradient id="paint27_linear_146_1163" x1="344.929" y1="330.031" x2="330.091" y2="338.999" gradientUnits="userSpaceOnUse">
<stop stop-color="#BD724A"/>
<stop offset="1" stop-color="#633F2C"/>
</linearGradient>
<linearGradient id="paint28_linear_146_1163" x1="148.407" y1="99.6079" x2="253.16" y2="307.06" gradientUnits="userSpaceOnUse">
<stop stop-color="#FFD6AD"/>
<stop offset="0.0279" stop-color="#FCCC9D"/>
<stop offset="0.0964" stop-color="#F7B67C"/>
<stop offset="0.1729" stop-color="#F2A360"/>
<stop offset="0.2581" stop-color="#EE9448"/>
<stop offset="0.3557" stop-color="#EB8837"/>
<stop offset="0.4731" stop-color="#E9802A"/>
<stop offset="0.631" stop-color="#E77B23"/>
<stop offset="1" stop-color="#E77A21"/>
</linearGradient>
<linearGradient id="paint29_linear_146_1163" x1="243.865" y1="289.599" x2="163.34" y2="202.187" gradientUnits="userSpaceOnUse">
<stop/>
<stop offset="0.1003" stop-color="#0E0B08"/>
<stop offset="0.2909" stop-color="#34271D"/>
<stop offset="0.5518" stop-color="#70553E"/>
<stop offset="0.8697" stop-color="#C3936C"/>
<stop offset="1" stop-color="#E7AE80"/>
</linearGradient>
<linearGradient id="paint30_linear_146_1163" x1="227.47" y1="270.307" x2="305.249" y2="335.979" gradientUnits="userSpaceOnUse">
<stop offset="0.1168" stop-color="#EF984E"/>
<stop offset="0.1409" stop-color="#F09B52"/>
<stop offset="0.4007" stop-color="#F6B479"/>
<stop offset="0.6392" stop-color="#FBC796"/>
<stop offset="0.8467" stop-color="#FED2A7"/>
<stop offset="1" stop-color="#FFD6AD"/>
</linearGradient>
<linearGradient id="paint31_linear_146_1163" x1="350.056" y1="384.476" x2="243.865" y2="268.044" gradientUnits="userSpaceOnUse">
<stop stop-color="white"/>
<stop offset="1" stop-color="#D4B8A1"/>
</linearGradient>
<linearGradient id="paint32_linear_146_1163" x1="382.837" y1="409.37" x2="255.287" y2="360.531" gradientUnits="userSpaceOnUse">
<stop stop-color="#FFC78F"/>
<stop offset="1" stop-color="#E77A21"/>
</linearGradient>
<linearGradient id="paint33_linear_146_1163" x1="303.195" y1="313.03" x2="366.337" y2="401.671" gradientUnits="userSpaceOnUse">
<stop/>
<stop offset="0.1003" stop-color="#0E0B08"/>
<stop offset="0.2909" stop-color="#34271D"/>
<stop offset="0.5518" stop-color="#70553E"/>
<stop offset="0.8697" stop-color="#C3936C"/>
<stop offset="1" stop-color="#E7AE80"/>
</linearGradient>
<linearGradient id="paint34_linear_146_1163" x1="315.6" y1="364.299" x2="319.091" y2="346.12" gradientUnits="userSpaceOnUse">
<stop stop-color="white"/>
<stop offset="1" stop-color="#D4B8A1"/>
</linearGradient>
<linearGradient id="paint35_linear_146_1163" x1="229.97" y1="415.354" x2="248.668" y2="317.968" gradientUnits="userSpaceOnUse">
<stop stop-color="white"/>
<stop offset="1" stop-color="#D4B8A1"/>
</linearGradient>
<linearGradient id="paint36_linear_146_1163" x1="286.876" y1="252.865" x2="225.819" y2="364.47" gradientUnits="userSpaceOnUse">
<stop stop-color="#FFD6AD"/>
<stop offset="0.0833" stop-color="#FAC28F"/>
<stop offset="0.1952" stop-color="#F4AC6D"/>
<stop offset="0.3153" stop-color="#EF9A51"/>
<stop offset="0.4445" stop-color="#EC8C3C"/>
<stop offset="0.5871" stop-color="#E9822D"/>
<stop offset="0.7533" stop-color="#E77C24"/>
<stop offset="1" stop-color="#E77A21"/>
</linearGradient>
<linearGradient id="paint37_linear_146_1163" x1="251.169" y1="334.88" x2="296.826" y2="244.948" gradientUnits="userSpaceOnUse">
<stop/>
<stop offset="0.1003" stop-color="#0E0B08"/>
<stop offset="0.2909" stop-color="#34271D"/>
<stop offset="0.5518" stop-color="#70553E"/>
<stop offset="0.8697" stop-color="#C3936C"/>
<stop offset="1" stop-color="#E7AE80"/>
</linearGradient>
<linearGradient id="paint38_linear_146_1163" x1="256.153" y1="439.689" x2="240.197" y2="388.331" gradientUnits="userSpaceOnUse">
<stop stop-color="#FFC78F"/>
<stop offset="1" stop-color="#E77A21"/>
</linearGradient>
<linearGradient id="paint39_linear_146_1163" x1="213.69" y1="419.604" x2="238.738" y2="469.2" gradientUnits="userSpaceOnUse">
<stop stop-color="#FFC78F"/>
<stop offset="1" stop-color="#E77A21"/>
</linearGradient>
<linearGradient id="paint40_linear_146_1163" x1="230.74" y1="428.532" x2="210.823" y2="444.408" gradientUnits="userSpaceOnUse">
<stop stop-color="white"/>
<stop offset="1" stop-color="#D4B8A1"/>
</linearGradient>
<linearGradient id="paint41_linear_146_1163" x1="220.977" y1="388.926" x2="191.32" y2="412.565" gradientUnits="userSpaceOnUse">
<stop stop-color="white"/>
<stop offset="1" stop-color="#D4B8A1"/>
</linearGradient>
<linearGradient id="paint42_linear_146_1163" x1="269.625" y1="420.231" x2="209.696" y2="468" gradientUnits="userSpaceOnUse">
<stop stop-color="white"/>
<stop offset="1" stop-color="#D4B8A1"/>
</linearGradient>
<linearGradient id="paint43_linear_146_1163" x1="268.756" y1="449.766" x2="257.225" y2="465.587" gradientUnits="userSpaceOnUse">
<stop stop-color="#EF9244"/>
<stop offset="0.2442" stop-color="#C87C40"/>
<stop offset="0.5895" stop-color="#97613C"/>
<stop offset="0.8524" stop-color="#785039"/>
<stop offset="1" stop-color="#6D4A38"/>
</linearGradient>
<linearGradient id="paint44_linear_146_1163" x1="262.007" y1="458.785" x2="255.936" y2="467.474" gradientUnits="userSpaceOnUse">
<stop stop-color="#E3E3E3"/>
<stop offset="1" stop-color="#BAA28D"/>
</linearGradient>
<linearGradient id="paint45_linear_146_1163" x1="260.211" y1="453.227" x2="239.38" y2="466.023" gradientUnits="userSpaceOnUse">
<stop stop-color="#EF9244"/>
<stop offset="0.2442" stop-color="#C87C40"/>
<stop offset="0.5895" stop-color="#97613C"/>
<stop offset="0.8524" stop-color="#785039"/>
<stop offset="1" stop-color="#6D4A38"/>
</linearGradient>
<linearGradient id="paint46_linear_146_1163" x1="246.726" y1="459.757" x2="240.68" y2="468.411" gradientUnits="userSpaceOnUse">
<stop stop-color="#E3E3E3"/>
<stop offset="1" stop-color="#BAA28D"/>
</linearGradient>
<linearGradient id="paint47_linear_146_1163" x1="247.668" y1="446.06" x2="216.844" y2="469.632" gradientUnits="userSpaceOnUse">
<stop stop-color="#EF9244"/>
<stop offset="0.2442" stop-color="#C87C40"/>
<stop offset="0.5895" stop-color="#97613C"/>
<stop offset="0.8524" stop-color="#785039"/>
<stop offset="1" stop-color="#6D4A38"/>
</linearGradient>
<linearGradient id="paint48_linear_146_1163" x1="226.838" y1="460.99" x2="223.212" y2="466.181" gradientUnits="userSpaceOnUse">
<stop stop-color="#E3E3E3"/>
<stop offset="1" stop-color="#BAA28D"/>
</linearGradient>
<linearGradient id="paint49_linear_146_1163" x1="282.57" y1="333.333" x2="271.873" y2="253.951" gradientUnits="userSpaceOnUse">
<stop stop-color="white"/>
<stop offset="1" stop-color="#D4B8A1"/>
</linearGradient>
<linearGradient id="paint50_linear_146_1163" x1="226.197" y1="300.741" x2="294.821" y2="227.228" gradientUnits="userSpaceOnUse">
<stop stop-color="#FFC78F"/>
<stop offset="1" stop-color="#E77A21"/>
</linearGradient>
<linearGradient id="paint51_linear_146_1163" x1="291.445" y1="253.383" x2="263.764" y2="332.36" gradientUnits="userSpaceOnUse">
<stop stop-color="#FFC78F"/>
<stop offset="1" stop-color="#E77A21"/>
</linearGradient>
<linearGradient id="paint52_linear_146_1163" x1="306.929" y1="327.704" x2="321.412" y2="326.483" gradientUnits="userSpaceOnUse">
<stop stop-color="#E77A21"/>
<stop offset="0.3805" stop-color="#BB6929"/>
<stop offset="1" stop-color="#6D4A38"/>
</linearGradient>
<linearGradient id="paint53_linear_146_1163" x1="322.496" y1="326.135" x2="319.084" y2="326.566" gradientUnits="userSpaceOnUse">
<stop stop-color="white"/>
<stop offset="1" stop-color="#D4B8A1"/>
</linearGradient>
<linearGradient id="paint54_linear_146_1163" x1="330.939" y1="328.469" x2="317.679" y2="338.227" gradientUnits="userSpaceOnUse">
<stop stop-color="#E77A21"/>
<stop offset="0.3805" stop-color="#BB6929"/>
<stop offset="1" stop-color="#6D4A38"/>
</linearGradient>
<linearGradient id="paint55_linear_146_1163" x1="321.073" y1="328.635" x2="317.288" y2="337.917" gradientUnits="userSpaceOnUse">
<stop stop-color="white"/>
<stop offset="1" stop-color="#D4B8A1"/>
</linearGradient>
<linearGradient id="paint56_linear_146_1163" x1="316.644" y1="329.027" x2="312.224" y2="339.869" gradientUnits="userSpaceOnUse">
<stop stop-color="#E77A21"/>
<stop offset="0.3805" stop-color="#BB6929"/>
<stop offset="1" stop-color="#6D4A38"/>
</linearGradient>
<linearGradient id="paint57_linear_146_1163" x1="319.857" y1="333.593" x2="311.22" y2="341.228" gradientUnits="userSpaceOnUse">
<stop stop-color="white"/>
<stop offset="1" stop-color="#D4B8A1"/>
</linearGradient>
<linearGradient id="paint58_linear_146_1163" x1="314.322" y1="332.608" x2="305.732" y2="342.282" gradientUnits="userSpaceOnUse">
<stop stop-color="#E77A21"/>
<stop offset="0.3805" stop-color="#BB6929"/>
<stop offset="1" stop-color="#6D4A38"/>
</linearGradient>
<linearGradient id="paint59_linear_146_1163" x1="314.532" y1="334.211" x2="305.578" y2="342.125" gradientUnits="userSpaceOnUse">
<stop stop-color="white"/>
<stop offset="1" stop-color="#D4B8A1"/>
</linearGradient>
<linearGradient id="paint60_linear_146_1163" x1="310.002" y1="333.469" x2="300.661" y2="341.726" gradientUnits="userSpaceOnUse">
<stop stop-color="#E77A21"/>
<stop offset="0.3805" stop-color="#BB6929"/>
<stop offset="1" stop-color="#6D4A38"/>
</linearGradient>
<linearGradient id="paint61_linear_146_1163" x1="309.887" y1="333.34" x2="300.546" y2="341.597" gradientUnits="userSpaceOnUse">
<stop stop-color="white"/>
<stop offset="1" stop-color="#D4B8A1"/>
</linearGradient>
<linearGradient id="paint62_linear_146_1163" x1="323.944" y1="286.683" x2="294.203" y2="341.563" gradientUnits="userSpaceOnUse">
<stop stop-color="#FFC78F"/>
<stop offset="1" stop-color="#E77A21"/>
</linearGradient>
<linearGradient id="paint63_linear_146_1163" x1="310.87" y1="336.665" x2="305.3" y2="318.235" gradientUnits="userSpaceOnUse">
<stop/>
<stop offset="0.1003" stop-color="#0E0B08"/>
<stop offset="0.2909" stop-color="#34271D"/>
<stop offset="0.5518" stop-color="#70553E"/>
<stop offset="0.8697" stop-color="#C3936C"/>
<stop offset="1" stop-color="#E7AE80"/>
</linearGradient>
<linearGradient id="paint64_linear_146_1163" x1="284.493" y1="280.272" x2="256.41" y2="322.667" gradientUnits="userSpaceOnUse">
<stop stop-color="white"/>
<stop offset="1" stop-color="#D4B8A1"/>
</linearGradient>
<linearGradient id="paint65_linear_146_1163" x1="292.444" y1="270.225" x2="261.121" y2="275.356" gradientUnits="userSpaceOnUse">
<stop stop-color="white"/>
<stop offset="1" stop-color="#D4B8A1"/>
</linearGradient>
<linearGradient id="paint66_linear_146_1163" x1="277.884" y1="297.771" x2="289.673" y2="287.545" gradientUnits="userSpaceOnUse">
<stop/>
<stop offset="0.1003" stop-color="#0E0B08"/>
<stop offset="0.2909" stop-color="#34271D"/>
<stop offset="0.5518" stop-color="#70553E"/>
<stop offset="0.8697" stop-color="#C3936C"/>
<stop offset="1" stop-color="#E7AE80"/>
</linearGradient>
<linearGradient id="paint67_linear_146_1163" x1="277.607" y1="245.784" x2="250.762" y2="229.134" gradientUnits="userSpaceOnUse">
<stop/>
<stop offset="0.1003" stop-color="#0E0B08"/>
<stop offset="0.2909" stop-color="#34271D"/>
<stop offset="0.5518" stop-color="#70553E"/>
<stop offset="0.8697" stop-color="#C3936C"/>
<stop offset="1" stop-color="#E7AE80"/>
</linearGradient>
<linearGradient id="paint68_linear_146_1163" x1="272.271" y1="-23.9623" x2="331.478" y2="67.0764" gradientUnits="userSpaceOnUse">
<stop stop-color="#FFC78F"/>
<stop offset="0.1608" stop-color="#FEC389"/>
<stop offset="0.3694" stop-color="#FAB879"/>
<stop offset="0.6043" stop-color="#F4A55E"/>
<stop offset="0.8566" stop-color="#EC8B39"/>
<stop offset="1" stop-color="#E77A21"/>
</linearGradient>
<linearGradient id="paint69_linear_146_1163" x1="318.035" y1="35.8453" x2="309.452" y2="139.695" gradientUnits="userSpaceOnUse">
<stop stop-color="white"/>
<stop offset="1" stop-color="#D4B8A1"/>
</linearGradient>
<linearGradient id="paint70_linear_146_1163" x1="321.091" y1="61.7915" x2="320.382" y2="187.959" gradientUnits="userSpaceOnUse">
<stop stop-color="#FFC78F"/>
<stop offset="1" stop-color="#E77A21"/>
</linearGradient>
<linearGradient id="paint71_linear_146_1163" x1="294.464" y1="160.976" x2="324.389" y2="146.747" gradientUnits="userSpaceOnUse">
<stop stop-color="white"/>
<stop offset="1" stop-color="#D4B8A1"/>
</linearGradient>
<linearGradient id="paint72_linear_146_1163" x1="353.924" y1="124.498" x2="354.193" y2="141.477" gradientUnits="userSpaceOnUse">
<stop stop-color="#FFE6CD"/>
<stop offset="1" stop-color="#FFF5EB"/>
</linearGradient>
<linearGradient id="paint73_linear_146_1163" x1="352.6" y1="126.651" x2="353.355" y2="135.564" gradientUnits="userSpaceOnUse">
<stop stop-color="#45B1BD"/>
<stop offset="1" stop-color="#3B737B"/>
</linearGradient>
<linearGradient id="paint74_linear_146_1163" x1="352.688" y1="127.697" x2="353.372" y2="135.761" gradientUnits="userSpaceOnUse">
<stop stop-color="#51D0DE"/>
<stop offset="1" stop-color="#4B939C"/>
</linearGradient>
<linearGradient id="paint75_linear_146_1163" x1="355.159" y1="130.827" x2="350.777" y2="141.705" gradientUnits="userSpaceOnUse">
<stop stop-color="#945F43"/>
<stop offset="1" stop-color="#1C120D"/>
</linearGradient>
<linearGradient id="paint76_linear_146_1163" x1="356.602" y1="131.393" x2="356.927" y2="136.371" gradientUnits="userSpaceOnUse">
<stop stop-color="#FFE6CD"/>
<stop offset="1" stop-color="#FFF5EB"/>
</linearGradient>
<linearGradient id="paint77_linear_146_1163" x1="354.207" y1="137.541" x2="353.42" y2="123.778" gradientUnits="userSpaceOnUse">
<stop stop-color="#FFE6CD"/>
<stop offset="1" stop-color="#8A6B4D"/>
</linearGradient>
<linearGradient id="paint78_linear_146_1163" x1="357.744" y1="66.9918" x2="357.077" y2="185.702" gradientUnits="userSpaceOnUse">
<stop stop-color="#FFC78F"/>
<stop offset="1" stop-color="#E77A21"/>
</linearGradient>
<linearGradient id="paint79_linear_146_1163" x1="309.142" y1="134.886" x2="307.255" y2="147.014" gradientUnits="userSpaceOnUse">
<stop stop-color="#FFE6CD"/>
<stop offset="1" stop-color="#FFF5EB"/>
</linearGradient>
<linearGradient id="paint80_linear_146_1163" x1="307.339" y1="135.01" x2="306.886" y2="147.701" gradientUnits="userSpaceOnUse">
<stop stop-color="#45B1BD"/>
<stop offset="1" stop-color="#3B737B"/>
</linearGradient>
<linearGradient id="paint81_linear_146_1163" x1="307.3" y1="136.13" x2="306.89" y2="147.6" gradientUnits="userSpaceOnUse">
<stop stop-color="#51D0DE"/>
<stop offset="1" stop-color="#4B939C"/>
</linearGradient>
<linearGradient id="paint82_linear_146_1163" x1="305.714" y1="132.783" x2="306.618" y2="146.652" gradientUnits="userSpaceOnUse">
<stop stop-color="#945F43"/>
<stop offset="1" stop-color="#1C120D"/>
</linearGradient>
<linearGradient id="paint83_linear_146_1163" x1="312.783" y1="137.918" x2="313.082" y2="142.499" gradientUnits="userSpaceOnUse">
<stop stop-color="#FFE6CD"/>
<stop offset="1" stop-color="#FFF5EB"/>
</linearGradient>
<linearGradient id="paint84_linear_146_1163" x1="308.347" y1="153.116" x2="307.148" y2="125.175" gradientUnits="userSpaceOnUse">
<stop stop-color="#FFE6CD"/>
<stop offset="1" stop-color="#8A6B4D"/>
</linearGradient>
<linearGradient id="paint85_linear_146_1163" x1="304.992" y1="52.3061" x2="304.247" y2="184.846" gradientUnits="userSpaceOnUse">
<stop stop-color="#FFC78F"/>
<stop offset="0.2379" stop-color="#FAB879"/>
<stop offset="0.729" stop-color="#EE9142"/>
<stop offset="1" stop-color="#E77A21"/>
</linearGradient>
<linearGradient id="paint86_linear_146_1163" x1="304.712" y1="-15.2515" x2="303.604" y2="181.933" gradientUnits="userSpaceOnUse">
<stop stop-color="white"/>
<stop offset="1" stop-color="#D4B8A1"/>
</linearGradient>
<linearGradient id="paint87_linear_146_1163" x1="357.738" y1="211.411" x2="341.073" y2="183.334" gradientUnits="userSpaceOnUse">
<stop stop-color="#FFC78F"/>
<stop offset="1" stop-color="#FFD6AD"/>
</linearGradient>
<linearGradient id="paint88_linear_146_1163" x1="350.86" y1="214.434" x2="338.185" y2="192.772" gradientUnits="userSpaceOnUse">
<stop stop-color="#FFC78F"/>
<stop offset="1" stop-color="#FFD6AD"/>
</linearGradient>
<linearGradient id="paint89_linear_146_1163" x1="338.143" y1="214.592" x2="345.015" y2="183.547" gradientUnits="userSpaceOnUse">
<stop stop-color="#FFC78F"/>
<stop offset="1" stop-color="#FFD6AD"/>
</linearGradient>
<linearGradient id="paint90_linear_146_1163" x1="342.159" y1="207.318" x2="343.774" y2="182.824" gradientUnits="userSpaceOnUse">
<stop stop-color="#8A4913"/>
<stop offset="0.3353" stop-color="#874713"/>
<stop offset="0.5807" stop-color="#7E4214"/>
<stop offset="0.7968" stop-color="#6E3A16"/>
<stop offset="0.996" stop-color="#582E18"/>
<stop offset="1" stop-color="#572E18"/>
</linearGradient>
<linearGradient id="paint91_linear_146_1163" x1="336.975" y1="208.216" x2="342.481" y2="184.18" gradientUnits="userSpaceOnUse">
<stop stop-color="#FF7A52"/>
<stop offset="0.2439" stop-color="#FC7851"/>
<stop offset="0.4226" stop-color="#F3724D"/>
<stop offset="0.5804" stop-color="#E36847"/>
<stop offset="0.7262" stop-color="#CC5A3E"/>
<stop offset="0.8631" stop-color="#AF4833"/>
<stop offset="0.9927" stop-color="#8C3226"/>
<stop offset="1" stop-color="#8A3125"/>
</linearGradient>
<linearGradient id="paint92_linear_146_1163" x1="367.767" y1="191.224" x2="346.212" y2="193.461" gradientUnits="userSpaceOnUse">
<stop stop-color="#FF7A52"/>
<stop offset="0.3223" stop-color="#A44E35"/>
<stop offset="0.6534" stop-color="#4C2519"/>
<stop offset="0.8873" stop-color="#150A07"/>
<stop offset="1"/>
</linearGradient>
<linearGradient id="paint93_linear_146_1163" x1="347.94" y1="204.361" x2="357.184" y2="189.359" gradientUnits="userSpaceOnUse">
<stop stop-color="#FF7A52"/>
<stop offset="0.3223" stop-color="#A44E35"/>
<stop offset="0.6534" stop-color="#4C2519"/>
<stop offset="0.8873" stop-color="#150A07"/>
<stop offset="1"/>
</linearGradient>
<linearGradient id="paint94_linear_146_1163" x1="366.003" y1="181.653" x2="372.38" y2="165.137" gradientUnits="userSpaceOnUse">
<stop stop-color="#FFC78F"/>
<stop offset="1" stop-color="#FFD6AD"/>
</linearGradient>
<linearGradient id="paint95_linear_146_1163" x1="365.646" y1="181.515" x2="372.023" y2="164.999" gradientUnits="userSpaceOnUse">
<stop stop-color="#FFC78F"/>
<stop offset="1" stop-color="#FFD6AD"/>
</linearGradient>
<linearGradient id="paint96_linear_146_1163" x1="350.855" y1="181.105" x2="341.992" y2="160.641" gradientUnits="userSpaceOnUse">
<stop stop-color="#FFC78F"/>
<stop offset="1" stop-color="#FFD6AD"/>
</linearGradient>
<linearGradient id="paint97_linear_146_1163" x1="351.522" y1="180.929" x2="342.824" y2="160.843" gradientUnits="userSpaceOnUse">
<stop stop-color="#FFC78F"/>
<stop offset="1" stop-color="#FFD6AD"/>
</linearGradient>
<linearGradient id="paint98_linear_146_1163" x1="327.278" y1="175.412" x2="325.855" y2="172.126" gradientUnits="userSpaceOnUse">
<stop stop-color="#FFC78F"/>
<stop offset="1" stop-color="#FFD6AD"/>
</linearGradient>
<linearGradient id="paint99_linear_146_1163" x1="351.854" y1="117.269" x2="353.964" y2="136.091" gradientUnits="userSpaceOnUse">
<stop stop-color="#FFC78F"/>
<stop offset="1" stop-color="#E77A21"/>
</linearGradient>
<linearGradient id="paint100_linear_146_1163" x1="354.005" y1="128.494" x2="351.259" y2="107.128" gradientUnits="userSpaceOnUse">
<stop/>
<stop offset="0.1003" stop-color="#0E0B08"/>
<stop offset="0.2909" stop-color="#34271D"/>
<stop offset="0.5518" stop-color="#70553E"/>
<stop offset="0.8697" stop-color="#C3936C"/>
<stop offset="1" stop-color="#E7AE80"/>
</linearGradient>
<linearGradient id="paint101_linear_146_1163" x1="352.56" y1="125.557" x2="353.625" y2="135.052" gradientUnits="userSpaceOnUse">
<stop stop-color="#FFE6CD"/>
<stop offset="1" stop-color="#8A6B4D"/>
</linearGradient>
<linearGradient id="paint102_linear_146_1163" x1="324.689" y1="117.764" x2="350.71" y2="168.052" gradientUnits="userSpaceOnUse">
<stop stop-color="#F4A55E"/>
<stop offset="0.1496" stop-color="#F3A158"/>
<stop offset="0.3549" stop-color="#EF9446"/>
<stop offset="0.4625" stop-color="#ED8C3A"/>
<stop offset="0.5392" stop-color="#E7893A"/>
<stop offset="0.6446" stop-color="#D5803A"/>
<stop offset="0.7667" stop-color="#B87139"/>
<stop offset="0.9002" stop-color="#905C39"/>
<stop offset="1" stop-color="#6D4A38"/>
</linearGradient>
<linearGradient id="paint103_linear_146_1163" x1="357.137" y1="147.537" x2="329.156" y2="150.431" gradientUnits="userSpaceOnUse">
<stop stop-color="white"/>
<stop offset="1" stop-color="#D4B8A1"/>
</linearGradient>
<linearGradient id="paint104_linear_146_1163" x1="360.336" y1="159.156" x2="360.336" y2="173.268" gradientUnits="userSpaceOnUse">
<stop stop-color="#CC8B69"/>
<stop offset="1" stop-color="#6D4A38"/>
</linearGradient>
<linearGradient id="paint105_linear_146_1163" x1="360.298" y1="162.529" x2="360.298" y2="173.071" gradientUnits="userSpaceOnUse">
<stop stop-color="#CC8B69"/>
<stop offset="1" stop-color="#6D4A38"/>
</linearGradient>
<linearGradient id="paint106_linear_146_1163" x1="300.517" y1="123.927" x2="303.587" y2="138.8" gradientUnits="userSpaceOnUse">
<stop stop-color="#FFC78F"/>
<stop offset="1" stop-color="#E77A21"/>
</linearGradient>
<linearGradient id="paint107_linear_146_1163" x1="302.679" y1="130.262" x2="301.561" y2="111.897" gradientUnits="userSpaceOnUse">
<stop/>
<stop offset="0.1003" stop-color="#0E0B08"/>
<stop offset="0.2909" stop-color="#34271D"/>
<stop offset="0.5518" stop-color="#70553E"/>
<stop offset="0.8697" stop-color="#C3936C"/>
<stop offset="1" stop-color="#E7AE80"/>
</linearGradient>
<linearGradient id="paint108_linear_146_1163" x1="297.791" y1="123.265" x2="309.613" y2="152.393" gradientUnits="userSpaceOnUse">
<stop stop-color="#FFE6CD"/>
<stop offset="1" stop-color="#8A6B4D"/>
</linearGradient>
<linearGradient id="paint109_linear_146_1163" x1="294.753" y1="46.7142" x2="294.434" y2="103.48" gradientUnits="userSpaceOnUse">
<stop stop-color="white"/>
<stop offset="1" stop-color="#D4B8A1"/>
</linearGradient>
<linearGradient id="paint110_linear_146_1163" x1="302.846" y1="113.052" x2="302.846" y2="118.415" gradientUnits="userSpaceOnUse">
<stop stop-color="#CC8B69"/>
<stop offset="1" stop-color="#6D4A38"/>
</linearGradient>
<linearGradient id="paint111_linear_146_1163" x1="302.919" y1="118.233" x2="302.359" y2="110.604" gradientUnits="userSpaceOnUse">
<stop/>
<stop offset="0.1003" stop-color="#0E0B08"/>
<stop offset="0.2909" stop-color="#34271D"/>
<stop offset="0.5518" stop-color="#70553E"/>
<stop offset="0.8697" stop-color="#C3936C"/>
<stop offset="1" stop-color="#E7AE80"/>
</linearGradient>
<linearGradient id="paint112_linear_146_1163" x1="302.846" y1="116.153" x2="302.846" y2="119.265" gradientUnits="userSpaceOnUse">
<stop stop-color="white"/>
<stop offset="1" stop-color="#D4B8A1"/>
</linearGradient>
<linearGradient id="paint113_linear_146_1163" x1="319.019" y1="89.1864" x2="239.171" y2="86.506" gradientUnits="userSpaceOnUse">
<stop stop-color="#FFC78F"/>
<stop offset="1" stop-color="#E77A21"/>
</linearGradient>
<linearGradient id="paint114_linear_146_1163" x1="234.182" y1="91.0852" x2="265.333" y2="21.5838" gradientUnits="userSpaceOnUse">
<stop/>
<stop offset="0.1003" stop-color="#0E0B08"/>
<stop offset="0.2909" stop-color="#34271D"/>
<stop offset="0.5518" stop-color="#70553E"/>
<stop offset="0.8697" stop-color="#C3936C"/>
<stop offset="1" stop-color="#E7AE80"/>
</linearGradient>
<linearGradient id="paint115_linear_146_1163" x1="277.515" y1="93.4108" x2="221.506" y2="82.2597" gradientUnits="userSpaceOnUse">
<stop stop-color="#FFC78F"/>
<stop offset="1" stop-color="#FFD6AD"/>
</linearGradient>
<linearGradient id="paint116_linear_146_1163" x1="173.053" y1="100.321" x2="309.591" y2="69.4938" gradientUnits="userSpaceOnUse">
<stop stop-color="white"/>
<stop offset="1" stop-color="#B88660"/>
</linearGradient>
<linearGradient id="paint117_linear_146_1163" x1="347.922" y1="105.935" x2="349.849" y2="112.439" gradientUnits="userSpaceOnUse">
<stop stop-color="#CC8B69"/>
<stop offset="1" stop-color="#6D4A38"/>
</linearGradient>
<linearGradient id="paint118_linear_146_1163" x1="349.961" y1="112.738" x2="347.651" y2="105.598" gradientUnits="userSpaceOnUse">
<stop/>
<stop offset="0.1003" stop-color="#0E0B08"/>
<stop offset="0.2909" stop-color="#34271D"/>
<stop offset="0.5518" stop-color="#70553E"/>
<stop offset="0.8697" stop-color="#C3936C"/>
<stop offset="1" stop-color="#E7AE80"/>
</linearGradient>
<linearGradient id="paint119_linear_146_1163" x1="349.489" y1="111.226" x2="350.186" y2="113.578" gradientUnits="userSpaceOnUse">
<stop stop-color="white"/>
<stop offset="1" stop-color="#D4B8A1"/>
</linearGradient>
<linearGradient id="paint120_linear_146_1163" x1="328.681" y1="47.3076" x2="276.076" y2="7.66293" gradientUnits="userSpaceOnUse">
<stop/>
<stop offset="0.1003" stop-color="#0E0B08"/>
<stop offset="0.2909" stop-color="#34271D"/>
<stop offset="0.5518" stop-color="#70553E"/>
<stop offset="0.8697" stop-color="#C3936C"/>
<stop offset="1" stop-color="#E7AE80"/>
</linearGradient>
</defs>
</svg>
